<?xml version="1.0" encoding="UTF-8"?>
<svg version="1.1" xmlns="http://www.w3.org/2000/svg" width="315" height="315">
<path d="M0 0 C42.01982648 -1.33117203 79.7344655 11.80463659 111.71240234 39.08251953 C112.67146484 39.89333984 113.63052734 40.70416016 114.61865234 41.53955078 C127.44802376 52.79901227 137.62087185 66.08386541 145.71240234 81.08251953 C146.0667334 81.73752441 146.42106445 82.3925293 146.78613281 83.06738281 C156.91463908 102.02680944 164.93547349 123.97701837 165.08349609 145.69189453 C165.09451859 146.57338165 165.10554108 147.45486877 165.11689758 148.36306763 C165.14353506 151.18639172 165.15002232 154.0090757 165.14990234 156.83251953 C165.15250061 158.27549408 165.15250061 158.27549408 165.15515137 159.74761963 C165.14439338 173.31598848 164.54914342 186.08735195 160.34423828 199.1015625 C159.78134487 200.8663682 159.32133442 202.66323803 158.87646484 204.46142578 C152.87840164 227.71134406 138.68276465 248.53362395 122.71240234 266.08251953 C121.45556641 267.46503906 121.45556641 267.46503906 120.17333984 268.87548828 C102.42143225 287.45867856 79.37578844 301.7669495 54.83740234 309.27001953 C53.67084106 309.62725098 53.67084106 309.62725098 52.48071289 309.99169922 C49.90292367 310.74411503 47.31604143 311.42495286 44.71240234 312.08251953 C43.65778809 312.35467285 42.60317383 312.62682617 41.51660156 312.90722656 C31.16691362 315.29452235 21.09297104 315.60831777 10.50830078 315.58349609 C7.61176764 315.58252768 4.71792823 315.62421847 1.82177734 315.66845703 C-11.49792155 315.75248295 -23.51072408 313.78611313 -36.28759766 310.08251953 C-37.01497635 309.87282532 -37.74235504 309.6631311 -38.49177551 309.44708252 C-48.04415513 306.65712591 -56.71883538 302.68600303 -65.47753906 298.04052734 C-67.118459 297.17203937 -68.77080093 296.32521774 -70.42431641 295.48095703 C-75.76823112 292.69347572 -80.49965857 289.59271652 -85.17822266 285.79345703 C-87.15093392 284.19336901 -89.16818112 282.6967271 -91.22509766 281.20751953 C-102.06291555 273.07379085 -111.86451515 263.44073012 -119.28759766 252.08251953 C-120.53221749 250.43261383 -121.78227408 248.78679603 -123.03759766 247.14501953 C-127.51232504 241.02039266 -131.03273884 234.56137793 -134.42529297 227.79736328 C-135.1517635 226.35264952 -135.90074676 224.9192881 -136.65478516 223.48876953 C-152.72256963 191.14316418 -155.5761827 148.38060346 -144.28759766 114.08251953 C-143.90705915 112.77830718 -143.52831685 111.47357006 -143.15087891 110.16845703 C-135.84118271 85.75456322 -122.0339025 64.21282479 -104.28759766 46.08251953 C-103.56701172 45.32326172 -102.84642578 44.56400391 -102.10400391 43.78173828 C-97.8251612 39.35276075 -93.31747363 35.62377412 -88.28759766 32.08251953 C-87.50384766 31.51662109 -86.72009766 30.95072266 -85.91259766 30.36767578 C-60.29334146 12.07392566 -31.54570003 1.13793454 0 0 Z " fill="#092D1F" transform="translate(150.28759765625,-0.08251953125)"/>
<path d="M0 0 C11.22 0 22.44 0 34 0 C34 51.81 34 103.62 34 157 C9.13975666 161.73528445 9.13975666 161.73528445 -1 162 C-1.64855957 162.02046387 -2.29711914 162.04092773 -2.96533203 162.06201172 C-11.0488207 162.2927506 -19.02061641 162.06681707 -27.0625 161.1875 C-28.07920776 161.08248169 -28.07920776 161.08248169 -29.11645508 160.9753418 C-34.10210139 160.35912451 -38.40575267 158.9235344 -43 157 C-43.86367187 156.64679688 -44.72734375 156.29359375 -45.6171875 155.9296875 C-58.40945659 149.95406007 -66.39275708 140.41878875 -71.375 127.375 C-76.25678209 110.19684629 -74.04179318 90.44641807 -65.71875 74.8203125 C-56.88848795 60.33065523 -43.69090512 54.92610677 -28.0793457 50.44921875 C-25.81168464 49.95931663 -23.76433411 49.87054631 -21.4453125 49.8671875 C-20.15173828 49.86525391 -20.15173828 49.86525391 -18.83203125 49.86328125 C-17.49205078 49.86908203 -17.49205078 49.86908203 -16.125 49.875 C-15.23941406 49.87113281 -14.35382813 49.86726563 -13.44140625 49.86328125 C-12.57644531 49.86457031 -11.71148437 49.86585937 -10.8203125 49.8671875 C-10.03930176 49.86831543 -9.25829102 49.86944336 -8.45361328 49.87060547 C-5.61465075 50.0203219 -2.80422672 50.53262888 0 51 C0 34.17 0 17.34 0 0 Z " fill="#FDFDFD" transform="translate(137,63)"/>
<path d="M0 0 C11.22 0 22.44 0 34 0 C34.04546105 11.92793147 34.08203588 23.85580395 34.10362434 35.78380299 C34.11399367 41.32440766 34.12802526 46.86494921 34.15087891 52.40551758 C34.17285471 57.76775914 34.1846199 63.12994057 34.18975449 68.49222374 C34.19340641 70.52239616 34.20053525 72.55256586 34.21146011 74.58271217 C34.47491317 125.64183393 34.47491317 125.64183393 17 144 C13.52766422 147.05317865 9.93247362 149.58001623 6 152 C5.32710937 152.474375 4.65421875 152.94875 3.9609375 153.4375 C2.1875 154.625 2.1875 154.625 -1 156 C-5.50620414 154.84974873 -9.49526421 152.8575893 -13.625 150.75 C-14.84891978 150.12883029 -16.07287891 149.50773809 -17.296875 148.88671875 C-17.90982422 148.57395996 -18.52277344 148.26120117 -19.15429688 147.93896484 C-22.05327247 146.46416853 -24.96445329 145.01432484 -27.875 143.5625 C-29.58333333 142.70833333 -31.29166667 141.85416667 -33 141 C-30.83588197 138.62557583 -28.81110825 137.2831202 -25.9375 135.875 C-15.08694033 129.93723445 -7.71621926 121.67265283 -4.0078125 109.83203125 C-0.5342142 95.98726088 -0.81009471 81.75657332 -0.68359375 67.578125 C-0.66298219 65.62229007 -0.64198474 63.66645918 -0.62062073 61.71063232 C-0.56583345 56.60131121 -0.51623589 51.49195285 -0.46777344 46.38256836 C-0.41723874 41.15344997 -0.36172078 35.92438464 -0.30664062 30.6953125 C-0.19959048 20.46358563 -0.09849244 10.23181283 0 0 Z " fill="#FDFDFD" transform="translate(191,115)"/>
<path d="M0 0 C1.28003906 0.01450195 1.28003906 0.01450195 2.5859375 0.02929688 C8.78416205 0.14208102 8.78416205 0.14208102 11.125 1.3125 C11.125 19.1325 11.125 36.9525 11.125 55.3125 C7.79264222 56.97867889 4.09775012 56.53920485 0.4375 56.5625 C-0.35333984 56.583125 -1.14417969 56.60375 -1.95898438 56.625 C-9.8287266 56.67698839 -15.42652813 54.36131616 -21.30078125 49.0546875 C-27.16063293 42.5695911 -28.20700164 34.72633803 -28.08203125 26.28515625 C-27.5211551 18.23182136 -25.46105036 12.12598252 -20.08203125 6.06640625 C-13.66703975 0.96847495 -8.09366816 -0.28277567 0 0 Z " fill="#0B2F21" transform="translate(125.875,140.6875)"/>
<path d="M0 0 C11.22 0 22.44 0 34 0 C34 11.55 34 23.1 34 35 C22.78 35 11.56 35 0 35 C0 23.45 0 11.9 0 0 Z " fill="#FEFEFE" transform="translate(191,63)"/>
</svg>
