<?xml version="1.0" encoding="UTF-8"?>
<svg version="1.1" xmlns="http://www.w3.org/2000/svg" width="481" height="481">
<path d="M0 0 C3.15822293 1.0136347 6.30204535 1.56971243 9.56640625 2.15625 C25.71986423 5.33451658 40.85258531 10.62740722 55.62890625 17.84375 C56.35207031 18.19308594 57.07523437 18.54242187 57.8203125 18.90234375 C67.92339497 23.83640728 76.98276749 29.59028631 85.86328125 36.47509766 C87.58844815 37.81238826 89.32523617 39.13285823 91.06640625 40.44921875 C97.12963863 45.04933984 103.07668447 49.78239051 108.9453125 54.62890625 C110.75810017 56.12504979 112.57865182 57.61182835 114.40625 59.08984375 C119.85723675 63.50109109 125.14741885 68.03538611 130.32421875 72.765625 C132.42632407 74.66108268 134.57342231 76.47731549 136.75390625 78.28125 C137.70265625 79.126875 138.65140625 79.9725 139.62890625 80.84375 C139.62890625 81.50375 139.62890625 82.16375 139.62890625 82.84375 C140.21432693 83.10450821 140.79974762 83.36526642 141.40290833 83.63392639 C143.7711944 84.92108321 145.3398419 86.30091932 147.24487305 88.20092773 C147.93626877 88.88601913 148.62766449 89.57111053 149.3400116 90.27696228 C150.07858902 91.01958817 150.81716644 91.76221405 151.578125 92.52734375 C152.35017776 93.29748306 153.12223053 94.06762238 153.91767883 94.86109924 C155.55329373 96.49535294 157.18638481 98.13213588 158.81713867 99.77124023 C161.28285098 102.24755051 163.75889762 104.71315438 166.23632812 107.17773438 C174.15055605 115.08494987 181.82583267 122.94435148 188.62890625 131.84375 C189.52017637 132.95209904 190.41311102 134.05911422 191.30859375 135.1640625 C201.02211431 147.57386279 209.17866551 160.39505865 216.06640625 174.59375 C216.56253418 175.61049805 217.05866211 176.62724609 217.56982422 177.67480469 C220.97013708 184.87478434 223.58390412 192.14773862 225.62890625 199.84375 C225.89883896 200.85683983 225.89883896 200.85683983 226.17422485 201.89039612 C227.57658444 207.5749205 227.92193803 212.93680254 227.89453125 218.77734375 C227.8964447 219.69532242 227.89835815 220.61330109 227.90032959 221.55909729 C227.9016819 223.48772457 227.89805267 225.41636126 227.88964844 227.3449707 C227.87894775 230.2699056 227.88957012 233.19422468 227.90234375 236.11914062 C227.90102175 238.00520967 227.89845851 239.89127833 227.89453125 241.77734375 C227.89857971 242.63806992 227.90262817 243.49879608 227.90679932 244.38560486 C227.84760492 252.18910009 226.39324066 259.53353767 224.26171875 267.02734375 C224.0181665 267.88626221 223.77461426 268.74518066 223.52368164 269.63012695 C223.26965576 270.50499756 223.01562988 271.37986816 222.75390625 272.28125 C222.48634521 273.20574951 222.21878418 274.13024902 221.94311523 275.08276367 C220.08193466 281.44240481 218.12526688 287.70091974 215.62890625 293.84375 C215.18546875 294.98972656 214.74203125 296.13570313 214.28515625 297.31640625 C205.06706766 320.29410669 189.49687515 339.89177577 173.90234375 358.84765625 C171.73579156 361.48159224 169.5966487 364.13403236 167.48046875 366.80859375 C160.50749669 375.58657622 153.11936318 383.81997248 145.35546875 391.90625 C142.18295654 395.2162474 139.16298079 398.63399942 136.19116211 402.12475586 C133.90512263 404.64014951 131.24157251 406.67579289 128.62890625 408.84375 C127.60821635 409.99235926 126.60884733 411.1601848 125.62890625 412.34375 C122.89425797 415.64246412 119.95909994 418.15125298 116.62890625 420.84375 C114.40750122 423.006697 112.22588853 425.18894482 110.13671875 427.48046875 C87.23955529 451.75146202 47.46314475 477.94849624 13.23608398 479.03662109 C11.59499968 479.0695367 9.95377851 479.09606893 8.3125 479.1171875 C7.42649612 479.12957962 6.54049225 479.14197174 5.62763977 479.15473938 C2.77385694 479.18699195 -0.0796594 479.20590927 -2.93359375 479.21875 C-3.90107544 479.22331207 -4.86855713 479.22787415 -5.86535645 479.23257446 C-21.50943869 479.25907608 -36.35971372 478.63394285 -50.91796875 472.30078125 C-53.5060641 471.20874554 -55.65718393 470.47044506 -58.34765625 469.84375 C-62.32549615 468.91093603 -66.01767662 467.50268939 -69.74609375 465.84375 C-70.42526855 465.54251221 -71.10444336 465.24127441 -71.80419922 464.9309082 C-85.59772391 458.66840308 -98.31900834 450.99206655 -110.37109375 441.84375 C-111.42425781 441.05355469 -112.47742188 440.26335937 -113.5625 439.44921875 C-132.46786026 425.09042365 -151.69463518 410.06588446 -168.19140625 392.9609375 C-170.09320031 391.11367517 -172.03888267 389.38921242 -174.046875 387.66015625 C-178.71119895 383.60609752 -183.07633702 379.28568106 -187.43359375 374.90625 C-188.57924805 373.76639648 -188.57924805 373.76639648 -189.74804688 372.60351562 C-194.49638091 367.84705784 -199.00882268 362.95514547 -203.37109375 357.84375 C-204.30725639 356.76429232 -205.24345219 355.6848634 -206.1796875 354.60546875 C-222.79801281 335.24836915 -238.11307259 313.13582782 -246.37109375 288.84375 C-246.71269531 287.88984375 -247.05429688 286.9359375 -247.40625 285.953125 C-251.80218722 272.91574464 -253.61334835 259.25882267 -253.68359375 245.53125 C-253.68907227 244.76151855 -253.69455078 243.99178711 -253.70019531 243.19873047 C-253.63918204 238.41970825 -252.80124393 234.43693307 -251.37109375 229.84375 C-250.86392142 227.28664555 -250.38576295 224.7236514 -249.93359375 222.15625 C-246.70503448 204.37121665 -246.70503448 204.37121665 -244.40625 200.015625 C-243.17473303 197.43176297 -242.6142194 194.79917344 -241.95214844 192.02539062 C-236.501041 171.55854356 -223.66551554 153.09537347 -210.77636719 136.64599609 C-209.43792705 134.9294629 -208.12312096 133.19778742 -206.81640625 131.45703125 C-201.97281333 125.02613115 -196.89388944 118.86344766 -191.61450195 112.78808594 C-188.98230267 109.75298604 -186.45289343 106.69798495 -184.05859375 103.46875 C-176.66522947 93.7626831 -167.69867607 85.03739984 -159 76.5078125 C-157.31963617 74.79118183 -155.78205504 73.00254617 -154.24609375 71.15625 C-151.58823694 67.97258412 -148.56397043 65.49315831 -145.37109375 62.84375 C-144.15775894 61.37497628 -142.94513729 59.90549371 -141.75 58.421875 C-138.94963839 55.21692857 -135.6090623 52.59142678 -132.37109375 49.84375 C-131.3360231 48.9362815 -130.30226267 48.02731725 -129.26953125 47.1171875 C-97.43781312 19.20829556 -44.71912256 -15.11632312 0 0 Z " fill="#3765AF" transform="translate(253.37109375,2.15625)"/>
<path d="M0 0 C0.72624573 -0.0066568 1.45249146 -0.0133136 2.20074463 -0.02017212 C3.73373904 -0.03026545 5.26677709 -0.03499017 6.79980469 -0.03466797 C9.1198974 -0.03902359 11.43805804 -0.07532522 13.7578125 -0.11328125 C30.60070575 -0.24440555 30.60070575 -0.24440555 37.08691406 5.95800781 C38.97942172 9.40988507 38.85837015 12.76859237 38.859375 16.609375 C38.87079529 17.81142075 38.87079529 17.81142075 38.88244629 19.03775024 C38.89323481 20.73053885 38.89610545 22.42339395 38.89160156 24.11621094 C38.8906307 26.69580187 38.9322301 29.27240204 38.9765625 31.8515625 C38.98177113 33.49999383 38.98445767 35.14843545 38.984375 36.796875 C39.0089679 37.94559586 39.0089679 37.94559586 39.03405762 39.11752319 C38.96094508 44.83272413 37.42178442 47.29918369 33.390625 51.3359375 C34.0403125 51.89023437 34.69 52.44453125 35.359375 53.015625 C36.1946875 53.74007812 37.03 54.46453125 37.890625 55.2109375 C38.7259375 55.93023437 39.56125 56.64953125 40.421875 57.390625 C41.39640625 58.35355469 41.39640625 58.35355469 42.390625 59.3359375 C42.390625 59.9959375 42.390625 60.6559375 42.390625 61.3359375 C40.37356787 61.52702712 38.35112906 61.66168192 36.328125 61.7734375 C35.20277344 61.85464844 34.07742188 61.93585938 32.91796875 62.01953125 C28.94099966 61.24880081 28.74765163 60.82170054 26.359375 57.8515625 C23.97590655 55.22898338 22.77926966 54.41083839 19.25024414 53.73071289 C15.47118398 53.56669518 11.73477544 53.5633078 7.953125 53.6484375 C-9.45067393 53.884214 -9.45067393 53.884214 -16.25170898 47.88793945 C-20.30023209 43.25991187 -18.95442229 34.82541046 -19.0144043 28.96777344 C-19.03595684 27.38682169 -19.07002823 25.80598839 -19.11694336 24.22558594 C-19.55233652 9.40672417 -19.55233652 9.40672417 -15.89453125 4.8828125 C-11.31117075 0.52253922 -6.08222671 0.01962811 0 0 Z " fill="#F7F8FB" transform="translate(298.609375,237.6640625)"/>
<path d="M0 0 C1.26457031 -0.03867188 1.26457031 -0.03867188 2.5546875 -0.078125 C5.78361961 0.3340791 7.47883986 1.36054881 10.125 3.25 C11.59130859 5.52392578 11.59130859 5.52392578 12.7734375 8.1953125 C13.21840576 9.18273437 13.66337402 10.17015625 14.12182617 11.1875 C14.57662354 12.239375 15.0314209 13.29125 15.5 14.375 C15.97606689 15.44492188 16.45213379 16.51484375 16.94262695 17.6171875 C20.83745429 26.42483086 24.56312529 35.30276523 28.125 44.25 C30.00334204 40.20987856 31.87718412 36.16768582 33.75 32.125 C34.30179932 30.93696777 34.85359863 29.74893555 35.42211914 28.52490234 C38.7403844 21.3509374 41.91497237 14.17053408 44.74609375 6.7890625 C46.44955776 3.65237239 48.10206081 2.13768692 51.125 0.25 C56.04152109 -0.64712382 60.6754717 -0.38779245 65.25 1.625 C67.125 3.25 67.125 3.25 68.125 5.25 C68.21503966 6.82291208 68.24256509 8.39961575 68.23852539 9.97509766 C68.23841209 11.44639633 68.23841209 11.44639633 68.23829651 12.94741821 C68.23313522 14.00891083 68.22797394 15.07040344 68.22265625 16.1640625 C68.2212413 17.24883881 68.21982635 18.33361511 68.21836853 19.45126343 C68.21275802 22.92587 68.20020372 26.40041281 68.1875 29.875 C68.18248635 32.22656157 68.17792321 34.57812415 68.17382812 36.9296875 C68.16278517 42.70314968 68.14551347 48.47656402 68.125 54.25 C64.495 54.25 60.865 54.25 57.125 54.25 C56.795 40.06 56.465 25.87 56.125 11.25 C54.87203125 14.10269531 53.6190625 16.95539063 52.328125 19.89453125 C51.10618098 22.65589655 49.88042974 25.4155414 48.65429688 28.17504883 C47.80459476 30.0928784 46.95885806 32.01246999 46.1171875 33.93383789 C44.90624131 36.69630889 43.68114616 39.45211603 42.453125 42.20703125 C42.08004211 43.06649857 41.70695923 43.92596588 41.3225708 44.81147766 C40.96249939 45.61208115 40.60242798 46.41268463 40.23144531 47.23754883 C39.92055969 47.9414827 39.60967407 48.64541656 39.28936768 49.37068176 C37.8737557 51.65551452 36.39064812 52.82458785 34.125 54.25 C31.50390625 54.71875 31.50390625 54.71875 28.6875 54.75 C27.76066406 54.7809375 26.83382812 54.811875 25.87890625 54.84375 C21.996288 54.00664649 20.71959599 52.24016918 18.125 49.25 C16.59692107 46.64667861 15.38132145 43.93911106 14.171875 41.17578125 C13.82618469 40.41073776 13.48049438 39.64569427 13.12432861 38.85746765 C12.03049765 36.43045856 10.95251597 33.99678978 9.875 31.5625 C9.13646895 29.91554336 8.39689578 28.2690536 7.65625 26.62304688 C6.30694796 23.62175707 4.96410819 20.61774953 3.62792969 17.6105957 C2.82283437 15.81037852 2.00692521 14.01385042 1.125 12.25 C0.795 26.11 0.465 39.97 0.125 54.25 C-3.505 54.25 -7.135 54.25 -10.875 54.25 C-10.94905717 47.18418687 -11.00355847 40.11859875 -11.03979492 33.05249023 C-11.05489816 30.64782782 -11.07538208 28.24319302 -11.10131836 25.83862305 C-11.13763351 22.38583569 -11.154711 18.93341196 -11.16796875 15.48046875 C-11.18345261 14.40226364 -11.19893646 13.32405853 -11.21488953 12.21318054 C-11.21511612 11.21236954 -11.21534271 10.21155853 -11.21557617 9.18041992 C-11.22223801 8.29883713 -11.22889984 7.41725433 -11.23576355 6.50895691 C-10.79530821 3.7510019 -10.08291263 2.91214692 -7.875 1.25 C-5.0019465 0.2923155 -2.99639007 0.05464541 0 0 Z " fill="#FBFCFD" transform="translate(80.875,236.75)"/>
<path d="M0 0 C5.27936178 1.44057003 10.62474647 3.79271522 14.51953125 7.6875 C16.26610765 8.01055411 18.01535896 8.32431988 19.77416992 8.57226562 C36.09514924 10.9024918 49.48032823 21.11991453 59.89453125 33.625 C66.85350662 42.9375328 71.71145227 52.95749414 76.32397461 63.56982422 C79.69144881 72.44616672 79.69144881 72.44616672 85.859375 79.1484375 C86.71660156 79.45007813 87.57382812 79.75171875 88.45703125 80.0625 C98.16829381 84.01990458 107.37279755 90.08207282 113.51953125 98.6875 C113.51953125 99.3475 113.51953125 100.0075 113.51953125 100.6875 C110.89493465 101.18970072 108.26989756 101.68935357 105.64453125 102.1875 C104.89816406 102.33058594 104.15179688 102.47367187 103.3828125 102.62109375 C97.74609375 103.6875 97.74609375 103.6875 95.51953125 103.6875 C98.28899379 106.63005394 101.05055737 109.1375977 104.33203125 111.5 C108.84692947 114.79372575 112.66894755 118.65257984 116.51953125 122.6875 C116.18953125 123.3475 115.85953125 124.0075 115.51953125 124.6875 C114.82988281 124.24019531 114.14023437 123.79289062 113.4296875 123.33203125 C108.92244031 120.43230706 104.43602809 117.58839763 99.70703125 115.0625 C94.74875381 112.35233043 89.40248434 109.33635928 87.51953125 103.6875 C87.51953125 102.6975 87.51953125 101.7075 87.51953125 100.6875 C93.84790377 98.25703809 99.75737677 97.09689975 106.51953125 96.6875 C99.57471781 90.91265513 92.9711859 87.25169522 84.44750977 84.38647461 C77.79061507 81.96908032 75.10529351 78.00937457 72.12646484 71.76928711 C70.06640375 67.178674 68.11218584 62.5458782 66.15625 57.91015625 C57.87909469 38.71145574 46.13462962 24.45865625 27.0390625 15.52734375 C24.06779369 14.53692081 21.2563654 14.21131462 18.14453125 13.875 C12.11348161 13.02411828 9.14480483 11.54189465 4.51953125 7.6875 C0.91505037 5.92921664 -2.51626229 5.24064509 -6.48046875 4.6875 C-5.59706216 9.30084555 -4.4035475 11.97095774 -1.29296875 15.5 C2.87097244 20.52275406 4.86561846 26.05598971 7.03393555 32.12817383 C9.07043447 37.79807661 11.18453308 43.35250183 15.51953125 47.6875 C15.2675568 51.02616147 14.890837 53.87261143 13.49609375 56.93359375 C12.25047703 60.44623289 12.13630312 63.75389391 12.14453125 67.4375 C12.14541748 68.14471191 12.14630371 68.85192383 12.1472168 69.58056641 C12.27437876 75.2131313 13.15966257 80.08032221 16.51953125 84.6875 C18.00453125 85.6775 18.00453125 85.6775 19.51953125 86.6875 C19.46732422 85.83478516 19.46732422 85.83478516 19.4140625 84.96484375 C19.21801341 79.37277692 19.72417747 75.57936912 22.51953125 70.6875 C24.62890625 69.49609375 24.62890625 69.49609375 26.51953125 68.6875 C27.01582031 69.79867187 27.51210938 70.90984375 28.0234375 72.0546875 C31.85700057 80.49706637 35.75249028 88.35254477 41.51953125 95.6875 C41.18953125 96.3475 40.85953125 97.0075 40.51953125 97.6875 C34.8202407 93.31900826 31.09811969 88.93609086 27.6484375 82.62890625 C27.27589844 81.98824219 26.90335937 81.34757812 26.51953125 80.6875 C26.18953125 80.6875 25.85953125 80.6875 25.51953125 80.6875 C25.33777344 81.62722656 25.33777344 81.62722656 25.15234375 82.5859375 C24.98476563 83.40320313 24.8171875 84.22046875 24.64453125 85.0625 C24.48210937 85.87460938 24.3196875 86.68671875 24.15234375 87.5234375 C23.51953125 89.6875 23.51953125 89.6875 21.51953125 91.6875 C19.26953125 92.25 19.26953125 92.25 16.51953125 91.6875 C10.59507899 87.19206135 8.62071723 80.78097304 7.51953125 73.6875 C6.81098452 65.68682649 7.60964011 58.99482464 10.3515625 51.44140625 C10.84282747 48.45571514 10.84282747 48.45571514 8.30078125 45.9140625 C7.83196533 45.41430908 7.36314941 44.91455566 6.88012695 44.3996582 C4.35107165 41.21712369 3.43463403 37.32591478 2.20703125 33.5 C-0.58055419 25.33725334 -3.95637067 19.35683792 -9.48046875 12.6875 C-11.02633751 9.59576248 -10.77406396 7.09320448 -10.48046875 3.6875 C-7.83391687 -0.91519892 -4.79679841 -0.7636694 0 0 Z " fill="#F3F6FA" transform="translate(297.48046875,127.3125)"/>
<path d="M0 0 C3.63 0 7.26 0 11 0 C11.02505615 0.81267334 11.0501123 1.62534668 11.07592773 2.46264648 C11.19149118 6.12110752 11.31439584 9.77928528 11.4375 13.4375 C11.47681641 14.71689453 11.51613281 15.99628906 11.55664062 17.31445312 C11.61948242 19.13686523 11.61948242 19.13686523 11.68359375 20.99609375 C11.72025146 22.12200928 11.75690918 23.2479248 11.79467773 24.40795898 C11.71218045 26.92853441 11.71218045 26.92853441 13 28 C15.21687994 28.15873955 17.43855298 28.25133837 19.66015625 28.31640625 C20.65685585 28.3475779 20.65685585 28.3475779 21.6736908 28.37937927 C23.80318543 28.44493658 25.93280668 28.50378785 28.0625 28.5625 C29.50326847 28.60567939 30.94402399 28.64929349 32.38476562 28.69335938 C35.92304903 28.80144527 39.46142397 28.90047093 43 29 C43 19.43 43 9.86 43 0 C46.63 0 50.26 0 54 0 C54.12385849 6.15633856 54.21446257 12.31194747 54.2746582 18.46923828 C54.2997588 20.5624658 54.33384677 22.65560605 54.37719727 24.74853516 C54.43804451 27.76226359 54.4662545 30.77483059 54.48828125 33.7890625 C54.51408768 34.72054108 54.5398941 35.65201965 54.56648254 36.61172485 C54.56839465 41.06958121 54.281225 43.50690557 52.03198242 47.45068359 C45.56774372 52.88587004 38.55456527 53.44590992 30.37109375 53.29296875 C29.49598648 53.28872391 28.62087921 53.28447906 27.71925354 53.28010559 C24.95833928 53.26347981 22.19818895 53.22585966 19.4375 53.1875 C17.55144293 53.17243228 15.66537427 53.15874756 13.77929688 53.14648438 C9.18590917 53.11362937 4.59308353 53.06196135 0 53 C0 50.36 0 47.72 0 45 C1.13018555 44.98018066 2.26037109 44.96036133 3.42480469 44.93994141 C7.62196964 44.8638112 11.81879126 44.77510521 16.015625 44.68261719 C17.83131121 44.64435809 19.64707241 44.60949983 21.46289062 44.578125 C24.07449123 44.5324077 26.68557688 44.47442464 29.296875 44.4140625 C30.10743347 44.40251129 30.91799194 44.39096008 31.75311279 44.37905884 C37.2963562 44.42678581 37.2963562 44.42678581 42 42 C42.81584568 38.94091587 42.81584568 38.94091587 43 36 C41.56333984 36.03927612 41.56333984 36.03927612 40.09765625 36.0793457 C36.51212326 36.17049127 32.92669058 36.22747921 29.34033203 36.2746582 C27.79425788 36.29965732 26.24830018 36.33366902 24.70263672 36.37719727 C9.22141359 36.80195645 9.22141359 36.80195645 3.34765625 32.37573242 C-0.14027233 28.81513866 -0.23871605 26.37812387 -0.1953125 21.58203125 C-0.18886719 20.32841797 -0.18242187 19.07480469 -0.17578125 17.78320312 C-0.15902344 16.47287109 -0.14226562 15.16253906 -0.125 13.8125 C-0.11496639 12.47722013 -0.1058412 11.14193311 -0.09765625 9.80664062 C-0.07405292 6.53757985 -0.04112594 3.26887972 0 0 Z " fill="#FAFBFD" transform="translate(159,254)"/>
<path d="M0 0 C0.90154816 0.00424484 1.80309631 0.00848969 2.73196411 0.01286316 C5.59505815 0.02957817 8.45743329 0.06721683 11.3203125 0.10546875 C13.26821896 0.12052488 15.21613652 0.13421166 17.1640625 0.14648438 C21.92475372 0.17945817 26.68491146 0.23119062 31.4453125 0.29296875 C31.4453125 2.93296875 31.4453125 5.57296875 31.4453125 8.29296875 C12.6353125 8.78796875 12.6353125 8.78796875 -6.5546875 9.29296875 C-6.5546875 12.92296875 -6.5546875 16.55296875 -6.5546875 20.29296875 C-4.72949072 22.54220768 -4.72949072 22.54220768 -2.06787109 22.5324707 C-1.04000488 22.53206787 -0.01213867 22.53166504 1.046875 22.53125 C2.74263672 22.55541992 2.74263672 22.55541992 4.47265625 22.58007812 C6.84760281 22.59683942 9.22265964 22.60227842 11.59765625 22.59570312 C20.13079093 22.74549201 25.3817771 24.22943335 31.4453125 30.29296875 C31.78125 33.375 31.78125 33.375 31.8203125 37.10546875 C31.84867187 38.32878906 31.87703125 39.55210937 31.90625 40.8125 C31.36717826 44.88294844 30.34652138 46.44329111 27.4453125 49.29296875 C21.10013385 52.40989861 16.04443887 53.43604431 9.05859375 53.390625 C8.24158493 53.38921005 7.42457611 53.3877951 6.58280945 53.38633728 C3.97443982 53.38074169 1.36615616 53.36819004 -1.2421875 53.35546875 C-3.01106647 53.35045318 -4.77994678 53.34589037 -6.54882812 53.34179688 C-10.88414769 53.33077371 -15.21940302 53.31351213 -19.5546875 53.29296875 C-19.5546875 50.65296875 -19.5546875 48.01296875 -19.5546875 45.29296875 C-18.51014404 45.27314941 -17.46560059 45.25333008 -16.3894043 45.23291016 C-12.514647 45.15684761 -8.64026493 45.06813147 -4.76586914 44.97558594 C-3.08886116 44.93729882 -1.41177112 44.90244544 0.26538086 44.87109375 C2.67591682 44.82543696 5.08588807 44.76744465 7.49609375 44.70703125 C8.62124138 44.68970444 8.62124138 44.68970444 9.76911926 44.67202759 C13.50658963 44.56601416 15.25959873 44.41677793 18.4453125 42.29296875 C18.92321768 39.93012011 18.92321768 39.93012011 18.8203125 37.29296875 C18.82804687 36.40609375 18.83578125 35.51921875 18.84375 34.60546875 C18.71226562 33.84234375 18.58078125 33.07921875 18.4453125 32.29296875 C15.18726912 30.12093983 14.18013576 30.03629292 10.40234375 29.984375 C8.91444336 29.94666992 8.91444336 29.94666992 7.39648438 29.90820312 C5.32362472 29.87337599 3.25070279 29.84205765 1.17773438 29.81445312 C-6.18662767 29.61952811 -12.3696741 29.23608239 -18.0234375 24.01171875 C-19.87934547 20.7165352 -20.08989781 18.56047236 -20.0546875 14.79296875 C-20.07015625 13.1378125 -20.07015625 13.1378125 -20.0859375 11.44921875 C-19.43320565 7.57122364 -18.36090751 6.02435623 -15.5546875 3.29296875 C-10.32081636 -0.04173195 -5.99575261 -0.10722018 0 0 Z " fill="#F9FAFC" transform="translate(241.5546875,237.70703125)"/>
<path d="M0 0 C1.19496094 -0.00257813 2.38992188 -0.00515625 3.62109375 -0.0078125 C4.87019531 -0.00007812 6.11929687 0.00765625 7.40625 0.015625 C9.27990234 0.00402344 9.27990234 0.00402344 11.19140625 -0.0078125 C12.98384766 -0.00394531 12.98384766 -0.00394531 14.8125 0 C16.45702148 0.00338379 16.45702148 0.00338379 18.13476562 0.00683594 C20.90625 0.265625 20.90625 0.265625 23.90625 2.265625 C24.29443359 5.3984375 24.29443359 5.3984375 24.3046875 9.390625 C24.30755768 10.0933252 24.31042786 10.79602539 24.31338501 11.52001953 C24.31542714 13.00619309 24.30988678 14.49239343 24.29736328 15.97851562 C24.28130992 18.25712008 24.29720499 20.5339509 24.31640625 22.8125 C24.31442384 24.25521226 24.31058021 25.69792341 24.3046875 27.140625 C24.30130371 28.45804687 24.29791992 29.77546875 24.29443359 31.1328125 C24.16633301 32.16664063 24.03823242 33.20046875 23.90625 34.265625 C22.91625 34.925625 21.92625 35.585625 20.90625 36.265625 C20.54015625 35.8325 20.1740625 35.399375 19.796875 34.953125 C16.90648905 31.9801566 14.9748093 30.40135731 10.76953125 29.8671875 C7.79490076 29.88830914 4.86882626 30.00293351 1.90625 30.265625 C3.88625 32.575625 5.86625 34.885625 7.90625 37.265625 C5.63600032 37.34659824 3.36492925 37.40480204 1.09375 37.453125 C-0.80310547 37.50533203 -0.80310547 37.50533203 -2.73828125 37.55859375 C-6.09375 37.265625 -6.09375 37.265625 -7.77856445 36.19873047 C-9.80543314 33.21956837 -9.48299214 30.60879753 -9.4921875 27.04296875 C-9.49505768 26.3416835 -9.49792786 25.64039825 -9.50088501 24.91786194 C-9.502924 23.4376647 -9.49740552 21.95744042 -9.48486328 20.47729492 C-9.46878143 18.20756097 -9.48472794 15.93960105 -9.50390625 13.66992188 C-9.50192426 12.23176689 -9.49808149 10.79361302 -9.4921875 9.35546875 C-9.48880371 8.04441162 -9.48541992 6.73335449 -9.48193359 5.38256836 C-9.35383301 4.35397705 -9.22573242 3.32538574 -9.09375 2.265625 C-5.59245264 -0.06857324 -4.13913161 0.00851673 0 0 Z " fill="#3866AF" transform="translate(302.09375,245.734375)"/>
<path d="M0 0 C3.96 0 7.92 0 12 0 C12.01458252 1.26183105 12.02916504 2.52366211 12.04418945 3.82373047 C12.10205329 8.49426979 12.17928617 13.16432092 12.26245117 17.83447266 C12.29575679 19.85782971 12.323771 21.88128093 12.34643555 23.90478516 C12.37987835 26.80932852 12.43218769 29.71300442 12.48828125 32.6171875 C12.49467117 33.52556366 12.5010611 34.43393982 12.50764465 35.36984253 C12.53733589 36.63092331 12.53733589 36.63092331 12.56762695 37.91748047 C12.57873001 38.65916473 12.58983307 39.400849 12.60127258 40.16500854 C12.86719253 42.41361836 12.86719253 42.41361836 16 44 C18.68004202 44.24047646 21.26554203 44.37273498 23.94921875 44.4140625 C25.10814384 44.44311172 25.10814384 44.44311172 26.29048157 44.4727478 C28.7560424 44.53248479 31.22165007 44.57890486 33.6875 44.625 C35.3600463 44.66318525 37.03257305 44.70223731 38.70507812 44.7421875 C42.80322647 44.83818133 46.90146688 44.92223377 51 45 C51 47.31 51 49.62 51 52 C45.41327806 52.07436251 39.82684661 52.12870254 34.23974609 52.16479492 C32.34060647 52.17984691 30.44150141 52.20029316 28.54248047 52.22631836 C25.80687919 52.26285992 23.071739 52.27976238 20.3359375 52.29296875 C19.49195404 52.30845261 18.64797058 52.32393646 17.77841187 52.33988953 C11.60398793 52.34163755 7.47206775 51.13800454 2.6875 47 C0.18463397 44.03364026 -0.12476304 41.54609324 -0.11352539 37.80395508 C-0.11344986 36.96331009 -0.11337433 36.1226651 -0.11329651 35.25654602 C-0.10813522 34.35333115 -0.10297394 33.45011627 -0.09765625 32.51953125 C-0.0962413 31.59154221 -0.09482635 30.66355316 -0.09336853 29.70744324 C-0.08776937 26.74242942 -0.07521704 23.77749101 -0.0625 20.8125 C-0.05748489 18.80273547 -0.052922 16.79296975 -0.04882812 14.78320312 C-0.03780021 9.85543968 -0.02053617 4.92773263 0 0 Z " fill="#F9FAFC" transform="translate(344,238)"/>
<path d="M0 0 C3 1 3 1 4 3 C4.66 2.01 5.32 1.02 6 0 C6.99 0 7.98 0 9 0 C9 2.64 9 5.28 9 8 C8.34 8 7.68 8 7 8 C6.67 7.01 6.34 6.02 6 5 C5.67 5.99 5.34 6.98 5 8 C4.34 8 3.68 8 3 8 C2.67 7.01 2.34 6.02 2 5 C1.34 5.99 0.68 6.98 0 8 C0 5.36 0 2.72 0 0 Z " fill="#DEE5F1" transform="translate(406,283)"/>
<path d="M0 0 C4.875 0.875 4.875 0.875 6 2 C6.04063832 3.66617115 6.042721 5.33388095 6 7 C5.01 7 4.02 7 3 7 C0 2.77777778 0 2.77777778 0 0 Z " fill="#EAEFF7" transform="translate(313,149)"/>
</svg>
