<?xml version="1.0" encoding="UTF-8"?>
<svg version="1.1" xmlns="http://www.w3.org/2000/svg" width="426" height="426">
<path d="M0 0 C2.04445642 -0.00599109 4.08891059 -0.01279797 6.13336182 -0.02035522 C11.66673752 -0.03796528 17.2000513 -0.04270856 22.73345232 -0.0439868 C26.19740339 -0.04541202 29.66133891 -0.04968869 33.1252861 -0.05498123 C45.22969302 -0.07346645 57.334056 -0.08165391 69.43847656 -0.08007812 C80.68899253 -0.07887781 91.93931632 -0.09996254 103.18978369 -0.13156545 C112.87509004 -0.15779397 122.56033389 -0.16844264 132.24567544 -0.16716731 C138.01856463 -0.16665952 143.79128297 -0.17224072 149.56413651 -0.19352341 C154.99960297 -0.21301629 160.43473758 -0.21295519 165.87021637 -0.19849014 C167.8534049 -0.19641445 169.83661481 -0.20102799 171.819767 -0.21321106 C196.15961786 -0.35292864 216.73063667 5.42458556 234.65380859 22.60302734 C243.24930964 31.59890107 249.26512168 41.34884313 252.84130859 53.29052734 C253.21255907 54.52016645 253.21255907 54.52016645 253.59130955 55.77464676 C256.3556365 66.1042755 256.27233537 76.14840572 256.24536133 86.77392578 C256.25107367 88.81720348 256.25804126 90.860478 256.26615906 92.90374756 C256.28401258 98.42051868 256.2829365 103.93713005 256.27721667 109.45392132 C256.27411268 114.07569325 256.28023087 118.69743504 256.28625542 123.31920266 C256.3002742 134.2325216 256.29876216 145.14576222 256.28735352 156.05908203 C256.27588223 167.27954475 256.28993753 178.49976816 256.31674999 189.72019935 C256.33897807 199.38775547 256.34552818 209.05523687 256.33967358 218.72281671 C256.33631889 224.48170979 256.33861912 230.24044964 256.35592461 235.99932098 C256.37150473 241.42007146 256.36731652 246.84047043 256.34861946 252.26120758 C256.34496364 254.23752276 256.34795292 256.21386464 256.35850525 258.19015503 C256.48099205 283.05050925 250.66725149 303.02892061 233.09130859 321.47802734 C224.29475304 329.93883651 214.54025712 335.7870327 202.84130859 339.29052734 C202.02154919 339.53802766 201.20178978 339.78552797 200.35718918 340.0405283 C190.02756044 342.80485525 179.98343021 342.72155412 169.35791016 342.69458008 C167.31463245 342.70029242 165.27135794 342.70726001 163.22808838 342.71537781 C157.71131726 342.73323133 152.19470588 342.73215525 146.67791462 342.72643542 C142.05614269 342.72333143 137.4344009 342.72944962 132.81263328 342.73547417 C121.89931434 342.74949295 110.98607372 342.74798091 100.07275391 342.73657227 C88.85229119 342.72510098 77.63206778 342.73915628 66.41163659 342.76596874 C56.74408047 342.78819682 47.07659907 342.79474693 37.40901923 342.78889233 C31.65012615 342.78553764 25.8913863 342.78783787 20.13251495 342.80514336 C14.71176447 342.82072348 9.29136551 342.81653527 3.87062836 342.79783821 C1.89431317 342.79418239 -0.0820287 342.79717167 -2.05831909 342.807724 C-26.91867331 342.9302108 -46.89708468 337.11647024 -65.34619141 319.54052734 C-82.94282166 301.19095095 -86.46349918 280.53243214 -86.44921875 256.13183594 C-86.45520984 254.08737952 -86.46201672 252.04292535 -86.46957397 249.99847412 C-86.48718403 244.46509842 -86.49192731 238.93178464 -86.49320555 233.39838362 C-86.49463077 229.93443254 -86.49890744 226.47049703 -86.50419998 223.00654984 C-86.5226852 210.90214292 -86.53087266 198.79777994 -86.52929688 186.69335938 C-86.52809656 175.44284341 -86.54918129 164.19251962 -86.5807842 152.94205225 C-86.60701272 143.25674589 -86.61766139 133.57150205 -86.61638606 123.88616049 C-86.61587827 118.11327131 -86.62145947 112.34055297 -86.64274216 106.56769943 C-86.66223504 101.13223297 -86.66217394 95.69709836 -86.64770889 90.26161957 C-86.6456332 88.27843104 -86.65024674 86.29522113 -86.66242981 84.31206894 C-86.80214739 59.97221808 -81.02463319 39.40119926 -63.84619141 21.47802734 C-45.20879198 3.71828939 -24.77212861 -0.01449787 0 0 Z " fill="#FEFEFE" transform="translate(128.15869140625,41.70947265625)"/>
<path d="M0 0 C3.125 0.375 3.125 0.375 4.8125 2.25 C5.85700692 4.73692123 6.63972527 7.0449342 7.375 9.625 C12.6531856 27.86857485 21.68797373 44.0358403 34.125 58.375 C35.20394531 59.63570312 35.20394531 59.63570312 36.3046875 60.921875 C54.14290027 81.29076847 77.239423 93.38483462 102.75390625 101.54296875 C105.125 102.375 105.125 102.375 106.125 103.375 C106.16580783 105.37458364 106.16754356 107.37545254 106.125 109.375 C101.51655149 111.9051286 97.19282616 113.71131001 92.125 115.125 C75.78775997 119.95794224 61.03626532 129.44850922 48.125 140.375 C47.30128906 141.06335938 46.47757813 141.75171875 45.62890625 142.4609375 C25.35384132 159.98416054 13.1820724 183.63023982 5.01953125 208.78125 C4.125 211.375 4.125 211.375 3.125 212.375 C0.1875 212.5625 0.1875 212.5625 -2.875 212.375 C-5.63880338 209.61119662 -6.03981145 206.4268788 -7 202.75 C-9.54390325 193.6519524 -13.23809771 185.58463047 -17.875 177.375 C-18.25285645 176.70581543 -18.63071289 176.03663086 -19.02001953 175.34716797 C-35.56148131 146.55992206 -63.28878427 122.39771723 -95.828125 113.57421875 C-97.72285702 113.09061568 -99.62231666 112.62490218 -101.52734375 112.18359375 C-104.07509763 111.30608118 -105.26997621 110.52573188 -106.875 108.375 C-106.63046876 105.03307308 -106.26956443 103.76956443 -103.875 101.375 C-102.01760517 100.75684494 -100.13787618 100.20514347 -98.25 99.6875 C-63.81098617 89.43960761 -35.13795634 66.9001943 -17.875 35.375 C-12.60865702 25.12850174 -8.27373387 14.69745075 -4.6875 3.75 C-3.56362275 0.46482036 -3.56362275 0.46482036 0 0 Z " fill="#3A8AF8" transform="translate(212.875,106.625)"/>
<path d="M0 0 C3.125 0.375 3.125 0.375 4.8125 2.25 C5.85700692 4.73692123 6.63972527 7.0449342 7.375 9.625 C10.05412632 19.01604278 13.62003695 28.96905822 19.0625 37.125 C21.12863692 40.3807309 21.93081512 41.64810506 21.125 45.375 C19.75 48.1875 19.75 48.1875 18.125 50.375 C17.465 50.375 16.805 50.375 16.125 50.375 C15.795 51.365 15.465 52.355 15.125 53.375 C14.465 53.375 13.805 53.375 13.125 53.375 C13.125 54.035 13.125 54.695 13.125 55.375 C12.465 55.375 11.805 55.375 11.125 55.375 C11.125 56.365 11.125 57.355 11.125 58.375 C9.805 58.375 8.485 58.375 7.125 58.375 C6.980625 58.99375 6.83625 59.6125 6.6875 60.25 C6.125 62.375 6.125 62.375 5.125 64.375 C4.465 64.375 3.805 64.375 3.125 64.375 C3.125 65.035 3.125 65.695 3.125 66.375 C2.320625 66.849375 1.51625 67.32375 0.6875 67.8125 C-2.1668076 69.17483672 -2.1668076 69.17483672 -2.875 72.375 C-3.535 72.375 -4.195 72.375 -4.875 72.375 C-5.205 73.035 -5.535 73.695 -5.875 74.375 C-7.13763107 75.39133308 -8.43448362 76.36561733 -9.75 77.3125 C-12.72004719 79.45466999 -12.72004719 79.45466999 -15.33984375 81.9921875 C-17.32844918 83.7834504 -18.95170382 84.07061086 -21.5625 84.5625 C-22.37074219 84.72105469 -23.17898437 84.87960938 -24.01171875 85.04296875 C-24.93404297 85.20732422 -24.93404297 85.20732422 -25.875 85.375 C-25.875 86.035 -25.875 86.695 -25.875 87.375 C-27.1875 89 -27.1875 89 -28.875 90.375 C-29.865 90.375 -30.855 90.375 -31.875 90.375 C-31.875 91.365 -31.875 92.355 -31.875 93.375 C-32.865 93.87 -32.865 93.87 -33.875 94.375 C-33.875 95.365 -33.875 96.355 -33.875 97.375 C-34.865 97.87 -34.865 97.87 -35.875 98.375 C-38.80058894 106.96070795 -39.62812665 114.02188736 -35.875 122.375 C-35.215 120.065 -34.555 117.755 -33.875 115.375 C-33.215 115.375 -32.555 115.375 -31.875 115.375 C-31.38 113.395 -31.38 113.395 -30.875 111.375 C-30.215 111.705 -29.555 112.035 -28.875 112.375 C-28.25 114.9375 -28.25 114.9375 -27.875 117.375 C-27.545 117.375 -27.215 117.375 -26.875 117.375 C-25.75 125 -25.75 125 -26.875 128.375 C-25.885 128.705 -24.895 129.035 -23.875 129.375 C-23.9678125 130.550625 -23.9678125 130.550625 -24.0625 131.75 C-23.9696875 133.049375 -23.9696875 133.049375 -23.875 134.375 C-22.39 135.365 -22.39 135.365 -20.875 136.375 C-20.875 137.035 -20.875 137.695 -20.875 138.375 C-19.225 138.705 -17.575 139.035 -15.875 139.375 C-15.38 143.83 -15.38 143.83 -14.875 148.375 C-14.215 148.045 -13.555 147.715 -12.875 147.375 C-12.75125 148.509375 -12.6275 149.64375 -12.5 150.8125 C-12.190625 152.5759375 -12.190625 152.5759375 -11.875 154.375 C-11.215 154.705 -10.555 155.035 -9.875 155.375 C-8.18737149 157.0204378 -6.5209651 158.68788577 -4.875 160.375 C-4.215 161.035 -3.555 161.695 -2.875 162.375 C-2.71 163.385625 -2.545 164.39625 -2.375 165.4375 C-2.21 166.406875 -2.045 167.37625 -1.875 168.375 C0.12532373 169.37516187 1.95625748 169.86896008 4.125 170.375 C4.228125 170.99375 4.33125 171.6125 4.4375 172.25 C5.4234558 175.29749975 7.58623634 176.0321504 10.1875 177.6875 C12.66128494 179.84208688 13.32582923 181.18270796 14.125 184.375 C13.35872473 186.93714047 12.54711748 189.09797922 11.4375 191.5 C9.03449768 197.03193993 7.1398206 202.40759627 5.765625 208.30078125 C5.125 210.375 5.125 210.375 3.125 212.375 C0.125 212.625 0.125 212.625 -2.875 212.375 C-5.63880338 209.61119662 -6.03981145 206.4268788 -7 202.75 C-9.54390325 193.6519524 -13.23809771 185.58463047 -17.875 177.375 C-18.25285645 176.70581543 -18.63071289 176.03663086 -19.02001953 175.34716797 C-35.56148131 146.55992206 -63.28878427 122.39771723 -95.828125 113.57421875 C-97.72285702 113.09061568 -99.62231666 112.62490218 -101.52734375 112.18359375 C-104.07509763 111.30608118 -105.26997621 110.52573188 -106.875 108.375 C-106.63046876 105.03307308 -106.26956443 103.76956443 -103.875 101.375 C-102.01760517 100.75684494 -100.13787618 100.20514347 -98.25 99.6875 C-63.81098617 89.43960761 -35.13795634 66.9001943 -17.875 35.375 C-12.60865702 25.12850174 -8.27373387 14.69745075 -4.6875 3.75 C-3.56362275 0.46482036 -3.56362275 0.46482036 0 0 Z " fill="#E16068" transform="translate(212.875,106.625)"/>
<path d="M0 0 C0.66 0.33 1.32 0.66 2 1 C2 1.99 2 2.98 2 4 C2.99 4.33 3.98 4.66 5 5 C4.09463722 12.63091483 4.09463722 12.63091483 3.375 15.4375 C2.92685611 18.49981656 3.46392861 20.39178582 4.4375 23.3125 C4.72496094 24.19550781 5.01242188 25.07851562 5.30859375 25.98828125 C5.65083984 26.98408203 5.65083984 26.98408203 6 28 C6.66 25.69 7.32 23.38 8 21 C8.66 21 9.32 21 10 21 C10.33 19.68 10.66 18.36 11 17 C11.66 17.33 12.32 17.66 13 18 C13.625 20.5625 13.625 20.5625 14 23 C14.33 23 14.66 23 15 23 C16.125 30.625 16.125 30.625 15 34 C15.99 34.33 16.98 34.66 18 35 C17.938125 35.78375 17.87625 36.5675 17.8125 37.375 C17.874375 38.24125 17.93625 39.1075 18 40 C18.99 40.66 19.98 41.32 21 42 C21 42.66 21 43.32 21 44 C22.65 44.33 24.3 44.66 26 45 C26.495 49.455 26.495 49.455 27 54 C27.66 53.67 28.32 53.34 29 53 C29.12375 54.134375 29.2475 55.26875 29.375 56.4375 C29.58125 57.613125 29.7875 58.78875 30 60 C30.99 60.495 30.99 60.495 32 61 C33.68762851 62.6454378 35.3540349 64.31288577 37 66 C37.66 66.66 38.32 67.32 39 68 C39.165 69.010625 39.33 70.02125 39.5 71.0625 C39.665 72.031875 39.83 73.00125 40 74 C42.00032373 75.00016187 43.83125748 75.49396008 46 76 C46.103125 76.61875 46.20625 77.2375 46.3125 77.875 C47.2984558 80.92249975 49.46123634 81.6571504 52.0625 83.3125 C54.53628494 85.46708688 55.20082923 86.80770796 56 90 C55.23372473 92.56214047 54.42211748 94.72297922 53.3125 97.125 C50.90949768 102.65693993 49.0148206 108.03259627 47.640625 113.92578125 C47 116 47 116 45 118 C42 118.25 42 118.25 39 118 C36.23619662 115.23619662 35.83518855 112.0518788 34.875 108.375 C32.33109675 99.2769524 28.63690229 91.20963047 24 83 C23.62214355 82.33081543 23.24428711 81.66163086 22.85498047 80.97216797 C10.87131145 60.11688737 -4.89868355 45.16042011 -25.06811523 32.28344727 C-27.10661472 30.92917053 -29.05550813 29.48537198 -31 28 C-29.68 28 -28.36 28 -27 28 C-27 27.01 -27 26.02 -27 25 C-26.34 25 -25.68 25 -25 25 C-25 23.68 -25 22.36 -25 21 C-24.01 21 -23.02 21 -22 21 C-22.2475 19.948125 -22.495 18.89625 -22.75 17.8125 C-23 14 -23 14 -21.1875 11.1875 C-19.79166667 9.79166667 -18.39583333 8.39583333 -17 7 C-16.30251417 5.68252676 -15.63040043 4.35085807 -15 3 C-12.525 3.495 -12.525 3.495 -10 4 C-10 4.66 -10 5.32 -10 6 C-9.34 6.66 -8.68 7.32 -8 8 C-8.33 8.66 -8.66 9.32 -9 10 C-6.49034386 9.29660434 -6.49034386 9.29660434 -4 8 C-3.11306697 5.95894361 -3.11306697 5.95894361 -3 4 C-2.34 4 -1.68 4 -1 4 C-0.67 2.68 -0.34 1.36 0 0 Z " fill="#28B877" transform="translate(171,201)"/>
<path d="M0 0 C0.99 0.33 1.98 0.66 3 1 C3 1.66 3 2.32 3 3 C2.34 3 1.68 3 1 3 C1.2475 4.3921875 1.2475 4.3921875 1.5 5.8125 C2 9 2 9 2 12 C4.45224694 11.89386164 4.45224694 11.89386164 7 11 C8.37466625 8.52363988 8.37466625 8.52363988 9 6 C12.875 6.875 12.875 6.875 14 8 C13.69972883 9.67293936 13.36442233 11.33985384 13 13 C13 13.66 13 14.32 13 15 C14.485 15.495 14.485 15.495 16 16 C16.33 15.01 16.66 14.02 17 13 C17 13.99 17 14.98 17 16 C18.32 16 19.64 16 21 16 C21.33 15.34 21.66 14.68 22 14 C22 14.66 22 15.32 22 16 C22.99 16.33 23.98 16.66 25 17 C25.63019694 26.17286652 25.63019694 26.17286652 23 29.625 C22.34 30.07875 21.68 30.5325 21 31 C21.433125 31.86625 21.86625 32.7325 22.3125 33.625 C23.42090382 35.84180764 24.50513999 38.07089679 25.5625 40.3125 C26.72143576 43.10145241 26.72143576 43.10145241 29 44 C29.63385922 46.04243528 30.01826504 48.09132519 30.4375 50.1875 C30.7159375 51.0846875 30.7159375 51.0846875 31 52 C31.99 52.495 31.99 52.495 33 53 C33 53.99 33 54.98 33 56 C33.99 56 34.98 56 36 56 C36.66 57.65 37.32 59.3 38 61 C38.66 61 39.32 61 40 61 C41.91036352 62.52829082 42.88864402 63.44322011 43.375 65.875 C44.33095621 69.1252511 46.53115196 70.77201518 49 73 C49.66 73.33 50.32 73.66 51 74 C51.66 73.34 52.32 72.68 53 72 C53 75.96341469 51.11989517 77.98692223 48.875 81.0625 C41.93569781 90.49286525 41.93569781 90.49286525 37 101 C36.01 100.67 35.02 100.34 34 100 C33.67 99.01 33.34 98.02 33 97 C31.6846659 96.29848848 30.34882408 95.63474075 29 95 C26.61493584 92.96827868 26.02322718 92.06968154 25 89 C24.38125 88.9175 23.7625 88.835 23.125 88.75 C21 88 21 88 19.375 84.6875 C18.694375 82.8621875 18.694375 82.8621875 18 81 C16.84025572 78.01780043 16.43331629 77.23332416 13.5625 75.6875 C10.0991643 73.40676673 9.47421222 70.79083143 8 67 C7.34 66.67 6.68 66.34 6 66 C6 63.03 6 60.06 6 57 C4.824375 56.814375 4.824375 56.814375 3.625 56.625 C0.36391165 55.84855039 -0.66601959 54.33398041 -3 52 C-3.125 49.375 -3.125 49.375 -3 47 C-3.66 46.67 -4.32 46.34 -5 46 C-5.4140625 43.71484375 -5.4140625 43.71484375 -5.625 40.9375 C-5.69976562 40.01839844 -5.77453125 39.09929687 -5.8515625 38.15234375 C-5.90054688 37.44207031 -5.94953125 36.73179687 -6 36 C-6.33 36 -6.66 36 -7 36 C-7.33 34.02 -7.66 32.04 -8 30 C-8.66 30.99 -9.32 31.98 -10 33 C-10.66 33 -11.32 33 -12 33 C-12.185625 34.7015625 -12.185625 34.7015625 -12.375 36.4375 C-12.58125 37.613125 -12.7875 38.78875 -13 40 C-13.99 40.495 -13.99 40.495 -15 41 C-15.185625 39.700625 -15.185625 39.700625 -15.375 38.375 C-15.88015921 35.03768305 -15.88015921 35.03768305 -17.11328125 32.19921875 C-18.16654142 28.3991303 -17.76818497 26.23780596 -16.8125 22.4375 C-16.55082031 21.34308594 -16.28914062 20.24867188 -16.01953125 19.12109375 C-15.01319017 16.0403791 -13.89308657 13.62684106 -12 11 C-11.34 11 -10.68 11 -10 11 C-10 10.01 -10 9.02 -10 8 C-9.01 8 -8.02 8 -7 8 C-6.67 7.01 -6.34 6.02 -6 5 C-5.34 5 -4.68 5 -4 5 C-4 4.34 -4 3.68 -4 3 C-2.68 2.67 -1.36 2.34 0 2 C0 1.34 0 0.68 0 0 Z " fill="#4CABAB" transform="translate(191,189)"/>
<path d="M0 0 C3.01573216 2.86829637 5.46396343 5.86099277 7.875 9.25 C10.82225171 13.38610558 13.8564095 17.40837736 17.06640625 21.34375 C17.37449219 21.8903125 17.68257812 22.436875 18 23 C16.8158974 26.55230779 15.70412814 27.24146766 12.75 29.4375 C11.9353125 30.05367187 11.120625 30.66984375 10.28125 31.3046875 C9.5284375 31.86414063 8.775625 32.42359375 8 33 C4.03727692 35.97204231 1.12468493 39.15423393 -2 43 C-5.58974359 46.79487179 -5.58974359 46.79487179 -8 48 C-8 48.99 -8 49.98 -8 51 C-8.598125 51.433125 -9.19625 51.86625 -9.8125 52.3125 C-12.25817826 53.93776257 -12.25817826 53.93776257 -13.5 57.125 C-15 60 -15 60 -17.1875 60.875 C-17.785625 60.91625 -18.38375 60.9575 -19 61 C-19 59.68 -19 58.36 -19 57 C-23.3164922 56.23826608 -26.74433453 55.83936396 -31 57 C-32.125 53.25 -32.125 53.25 -31 51 C-30.34 51 -29.68 51 -29 51 C-30.65 49.35 -32.3 47.7 -34 46 C-34.061875 46.598125 -34.12375 47.19625 -34.1875 47.8125 C-35.32800995 50.88310372 -37.17812585 51.48582363 -40 53 C-40.66 53.66 -41.32 54.32 -42 55 C-42 54.01 -42 53.02 -42 52 C-42.66 51.67 -43.32 51.34 -44 51 C-43.34 51 -42.68 51 -42 51 C-42.185625 50.05125 -42.37125 49.1025 -42.5625 48.125 C-43 45 -43 45 -42 43 C-41.34 43 -40.68 43 -40 43 C-39.67 42.01 -39.34 41.02 -39 40 C-37.25 38.5625 -37.25 38.5625 -35 37 C-34.13375 36.278125 -33.2675 35.55625 -32.375 34.8125 C-30 33 -30 33 -28 33 C-27.67 32.34 -27.34 31.68 -27 31 C-26.01 30.67 -25.02 30.34 -24 30 C-23.40929986 28.05396726 -23.40929986 28.05396726 -23 26 C-22.34 25.34 -21.68 24.68 -21 24 C-20.01 24 -19.02 24 -18 24 C-18 23.34 -18 22.68 -18 22 C-17.34 22 -16.68 22 -16 22 C-15.34 20.02 -14.68 18.04 -14 16 C-12.68 16 -11.36 16 -10 16 C-10 15.01 -10 14.02 -10 13 C-9.34 13 -8.68 13 -8 13 C-8 12.34 -8 11.68 -8 11 C-6.625 9.375 -6.625 9.375 -5 8 C-4.34 8 -3.68 8 -3 8 C-1.92474806 5.34771188 -0.90543849 2.71631546 0 0 Z " fill="#638BE6" transform="translate(234,149)"/>
<path d="M0 0 C2.57713581 3.18669787 4.33985986 6.5050878 6.125 10.1875 C7.70272876 13.83392618 7.70272876 13.83392618 10 17 C10.46892527 21.22032739 9.51812147 23.6102211 7 27 C6.34 27 5.68 27 5 27 C4.505 28.485 4.505 28.485 4 30 C3.34 30 2.68 30 2 30 C2 30.66 2 31.32 2 32 C1.34 32 0.68 32 0 32 C0 32.99 0 33.98 0 35 C-1.32 35 -2.64 35 -4 35 C-4.144375 35.61875 -4.28875 36.2375 -4.4375 36.875 C-5 39 -5 39 -6 41 C-6.66 41 -7.32 41 -8 41 C-8 41.66 -8 42.32 -8 43 C-8.804375 43.474375 -9.60875 43.94875 -10.4375 44.4375 C-13.2918076 45.79983672 -13.2918076 45.79983672 -14 49 C-14.66 49 -15.32 49 -16 49 C-16.495 49.99 -16.495 49.99 -17 51 C-18.26263107 52.01633308 -19.55948362 52.99061733 -20.875 53.9375 C-23.84504719 56.07966999 -23.84504719 56.07966999 -26.46484375 58.6171875 C-28.45344918 60.4084504 -30.07670382 60.69561086 -32.6875 61.1875 C-33.49574219 61.34605469 -34.30398437 61.50460938 -35.13671875 61.66796875 C-35.75160156 61.77753906 -36.36648437 61.88710937 -37 62 C-37 62.66 -37 63.32 -37 64 C-38.3125 65.625 -38.3125 65.625 -40 67 C-40.99 67 -41.98 67 -43 67 C-43 67.99 -43 68.98 -43 70 C-43.99 70.495 -43.99 70.495 -45 71 C-45 71.99 -45 72.98 -45 74 C-46.875 75.0625 -46.875 75.0625 -49 76 C-51 75 -51 75 -53 72 C-53.33 72.99 -53.66 73.98 -54 75 C-54.66 75 -55.32 75 -56 75 C-56.33 76.65 -56.66 78.3 -57 80 C-59.475 80.495 -59.475 80.495 -62 81 C-64.23973204 75.89838814 -63.79588531 73.19861539 -62 68 C-61.9071875 66.63875 -61.9071875 66.63875 -61.8125 65.25 C-61.544375 64.5075 -61.27625 63.765 -61 63 C-59.35346163 62.39514917 -57.70506236 61.79479941 -56.046875 61.22265625 C-52.21442475 58.93342547 -50.11664762 54.96254483 -47.69921875 51.30078125 C-47.13847656 50.54152344 -46.57773438 49.78226563 -46 49 C-45.34 49 -44.68 49 -44 49 C-43.67 48.01 -43.34 47.02 -43 46 C-40.9375 44.8125 -40.9375 44.8125 -39 44 C-39 44.66 -39 45.32 -39 46 C-37.68 46 -36.36 46 -35 46 C-34.67 44.68 -34.34 43.36 -34 42 C-33.34 42 -32.68 42 -32 42 C-32 41.34 -32 40.68 -32 40 C-31.34 40 -30.68 40 -30 40 C-30 39.34 -30 38.68 -30 38 C-29.01 38 -28.02 38 -27 38 C-27 37.01 -27 36.02 -27 35 C-21.65116279 30 -21.65116279 30 -19 30 C-19 29.01 -19 28.02 -19 27 C-18.01 27 -17.02 27 -16 27 C-16 26.01 -16 25.02 -16 24 C-15.34 24 -14.68 24 -14 24 C-14 23.34 -14 22.68 -14 22 C-12.34997172 20.64613064 -10.6825613 19.31321858 -9 18 C-8.67 17.34 -8.34 16.68 -8 16 C-7.34 16 -6.68 16 -6 16 C-5.7525 15.2575 -5.505 14.515 -5.25 13.75 C-4 11 -4 11 -1.875 9.125 C0.38301288 7.00158927 0.38301288 7.00158927 0.25 3.25 C0.1675 2.1775 0.085 1.105 0 0 Z " fill="#C27D83" transform="translate(224,130)"/>
<path d="M0 0 C0.66 0.33 1.32 0.66 2 1 C2 1.99 2 2.98 2 4 C2.99 4.33 3.98 4.66 5 5 C4.09747969 12.60695688 4.09747969 12.60695688 3.390625 15.45703125 C2.70450338 19.92368299 4.32026174 23.88566134 6 28 C7.28667172 29.70294787 8.61096733 31.37946188 10 33 C10.37668344 34.65740715 10.72057545 36.32345271 11 38 C11.99 38.495 11.99 38.495 13 39 C14.44512404 42.6128101 15 45.06687842 15 49 C15.66 49 16.32 49 17 49 C16.67 51.31 16.34 53.62 16 56 C16.66 56 17.32 56 18 56 C18.495 64.415 18.495 64.415 19 73 C16.26606966 70.26606966 14.0802612 67.90988042 11.8125 64.875 C1.16052566 51.08610949 -10.88354109 40.95278523 -25.7265625 32.03125 C-29 30 -29 30 -31 28 C-29.68 28 -28.36 28 -27 28 C-27 27.01 -27 26.02 -27 25 C-26.34 25 -25.68 25 -25 25 C-25 23.68 -25 22.36 -25 21 C-24.01 21 -23.02 21 -22 21 C-22.2475 19.948125 -22.495 18.89625 -22.75 17.8125 C-23 14 -23 14 -21.1875 11.1875 C-19.79166667 9.79166667 -18.39583333 8.39583333 -17 7 C-16.30251417 5.68252676 -15.63040043 4.35085807 -15 3 C-12.525 3.495 -12.525 3.495 -10 4 C-10 4.66 -10 5.32 -10 6 C-9.34 6.66 -8.68 7.32 -8 8 C-8.33 8.66 -8.66 9.32 -9 10 C-6.49034386 9.29660434 -6.49034386 9.29660434 -4 8 C-3.11306697 5.95894361 -3.11306697 5.95894361 -3 4 C-2.34 4 -1.68 4 -1 4 C-0.67 2.68 -0.34 1.36 0 0 Z " fill="#7DC56E" transform="translate(171,201)"/>
<path d="M0 0 C3.875 0.875 3.875 0.875 5 2 C4.69972883 3.67293936 4.36442233 5.33985384 4 7 C4 7.66 4 8.32 4 9 C4.99 9.33 5.98 9.66 7 10 C7.33 9.01 7.66 8.02 8 7 C8 7.99 8 8.98 8 10 C9.32 10 10.64 10 12 10 C12.33 9.34 12.66 8.68 13 8 C13 8.66 13 9.32 13 10 C13.99 10.33 14.98 10.66 16 11 C16.63019694 20.17286652 16.63019694 20.17286652 14 23.625 C13.01 24.305625 13.01 24.305625 12 25 C12.433125 25.86625 12.86625 26.7325 13.3125 27.625 C14.42090382 29.84180764 15.50513999 32.07089679 16.5625 34.3125 C17.72143576 37.10145241 17.72143576 37.10145241 20 38 C20.63385922 40.04243528 21.01826504 42.09132519 21.4375 44.1875 C21.623125 44.785625 21.80875 45.38375 22 46 C22.66 46.33 23.32 46.66 24 47 C24 47.99 24 48.98 24 50 C24.99 50 25.98 50 27 50 C27.66 51.65 28.32 53.3 29 55 C29.66 55 30.32 55 31 55 C32.91036352 56.52829082 33.88864402 57.44322011 34.375 59.875 C35.33095621 63.1252511 37.53115196 64.77201518 40 67 C40.99 67.495 40.99 67.495 42 68 C42.66 67.34 43.32 66.68 44 66 C44 69.74762133 42.89613619 71.10869428 40.8125 74.1875 C40.22082031 75.08855469 39.62914062 75.98960937 39.01953125 76.91796875 C37 79 37 79 34.375 79.38671875 C31.57054958 78.93007304 30.66068021 78.27250975 29 76 C29 75.34 29 74.68 29 74 C28.34 74 27.68 74 27 74 C26.67 72.35 26.34 70.7 26 69 C25.34 69 24.68 69 24 69 C24 68.01 24 67.02 24 66 C23.01 66 22.02 66 21 66 C21 64.35 21 62.7 21 61 C20.01 61 19.02 61 18 61 C18 60.01 18 59.02 18 58 C17.34 58 16.68 58 16 58 C16 57.01 16 56.02 16 55 C14.35 55 12.7 55 11 55 C11 54.34 11 53.68 11 53 C10.38125 52.9175 9.7625 52.835 9.125 52.75 C7 52 7 52 5.8125 50.1875 C5 48 5 48 4.5 45.8125 C4.335 45.214375 4.17 44.61625 4 44 C3.34 43.67 2.68 43.34 2 43 C1.79859524 39.37471432 2.14223235 37.13498292 4 34 C3.401875 33.773125 2.80375 33.54625 2.1875 33.3125 C-2.35206791 30.58875926 -3.46796283 25.81497397 -5 21 C-5.33 20.67 -5.66 20.34 -6 20 C-6.04080783 18.00041636 -6.04254356 15.99954746 -6 14 C-6.66 13.67 -7.32 13.34 -8 13 C-7.67 10.69 -7.34 8.38 -7 6 C-6.21625 5.938125 -5.4325 5.87625 -4.625 5.8125 C-3.75875 5.544375 -2.8925 5.27625 -2 5 C-0.62533375 2.52363988 -0.62533375 2.52363988 0 0 Z " fill="#42A2C9" transform="translate(200,195)"/>
<path d="M0 0 C0.66 0.33 1.32 0.66 2 1 C1.34 2.65 0.68 4.3 0 6 C1.65 5.67 3.3 5.34 5 5 C5 9.23147735 3.78568114 12.76407316 2.4375 16.75 C2.16808594 17.54921875 1.89867187 18.3484375 1.62109375 19.171875 C1.41613281 19.77515625 1.21117187 20.3784375 1 21 C-0.65 21.33 -2.3 21.66 -4 22 C-4.0825 22.5775 -4.165 23.155 -4.25 23.75 C-5.21797787 26.6539336 -6.68694284 28.03740604 -9 30 C-9.66 30 -10.32 30 -11 30 C-10.98839844 30.62648437 -10.97679687 31.25296875 -10.96484375 31.8984375 C-10.95582031 32.71570313 -10.94679687 33.53296875 -10.9375 34.375 C-10.92589844 35.18710938 -10.91429687 35.99921875 -10.90234375 36.8359375 C-11 39 -11 39 -12 41 C-12.66 41 -13.32 41 -14 41 C-14 41.66 -14 42.32 -14 43 C-14.66 43 -15.32 43 -16 43 C-16 43.99 -16 44.98 -16 46 C-20.8000026 45.73333319 -24.20990674 45.06321141 -28.4375 42.75 C-33.79576993 39.85318532 -39.3339117 38.31022901 -45.19897461 36.78808594 C-52.09225302 34.9297543 -52.09225302 34.9297543 -54 32 C-53.75546876 28.65807308 -53.39456443 27.39456443 -51 25 C-49.14260517 24.38184494 -47.26287618 23.83014347 -45.375 23.3125 C-28.81052783 18.38347012 -13.7288453 10.46260164 0 0 Z " fill="#E8BE2A" transform="translate(160,183)"/>
<path d="M0 0 C3.51973101 3.25901019 6.52760275 6.8860931 9 11 C9 11.66 9 12.32 9 13 C7.4609375 14.48046875 7.4609375 14.48046875 5.375 16.1875 C2.02388778 19.03033065 -0.82261507 21.98194558 -3.625 25.35546875 C-5.61912767 27.74049077 -7.67976315 29.93059956 -10 32 C-10.99 32 -11.98 32 -13 32 C-13 32.99 -13 33.98 -13 35 C-13.99 35 -14.98 35 -16 35 C-16 35.66 -16 36.32 -16 37 C-16.99 37 -17.98 37 -19 37 C-19 37.66 -19 38.32 -19 39 C-20.98 39.495 -20.98 39.495 -23 40 C-23.103125 40.763125 -23.20625 41.52625 -23.3125 42.3125 C-24.06034403 45.23589031 -24.60664352 46.22714335 -27 48 C-29 48.875 -29 48.875 -31 49 C-32.75 47.5625 -32.75 47.5625 -34 46 C-34.061875 46.598125 -34.12375 47.19625 -34.1875 47.8125 C-35.32800995 50.88310372 -37.17812585 51.48582363 -40 53 C-40.66 53.66 -41.32 54.32 -42 55 C-42 54.01 -42 53.02 -42 52 C-42.66 51.67 -43.32 51.34 -44 51 C-43.34 51 -42.68 51 -42 51 C-42.185625 50.05125 -42.37125 49.1025 -42.5625 48.125 C-43 45 -43 45 -42 43 C-41.34 43 -40.68 43 -40 43 C-39.67 42.01 -39.34 41.02 -39 40 C-37.25 38.5625 -37.25 38.5625 -35 37 C-34.13375 36.278125 -33.2675 35.55625 -32.375 34.8125 C-30 33 -30 33 -28 33 C-27.67 32.34 -27.34 31.68 -27 31 C-26.01 30.67 -25.02 30.34 -24 30 C-23.40929986 28.05396726 -23.40929986 28.05396726 -23 26 C-22.34 25.34 -21.68 24.68 -21 24 C-20.01 24 -19.02 24 -18 24 C-18 23.34 -18 22.68 -18 22 C-17.34 22 -16.68 22 -16 22 C-15.34 20.02 -14.68 18.04 -14 16 C-12.68 16 -11.36 16 -10 16 C-10 15.01 -10 14.02 -10 13 C-9.34 13 -8.68 13 -8 13 C-8 12.34 -8 11.68 -8 11 C-6.625 9.375 -6.625 9.375 -5 8 C-4.34 8 -3.68 8 -3 8 C-1.92474806 5.34771188 -0.90543849 2.71631546 0 0 Z " fill="#8D83C5" transform="translate(234,149)"/>
<path d="M0 0 C0.66 0.33 1.32 0.66 2 1 C2.625 3.5625 2.625 3.5625 3 6 C3.33 6 3.66 6 4 6 C5.125 13.625 5.125 13.625 4 17 C4.99 17.33 5.98 17.66 7 18 C6.938125 18.78375 6.87625 19.5675 6.8125 20.375 C6.874375 21.24125 6.93625 22.1075 7 23 C7.99 23.66 8.98 24.32 10 25 C10 25.66 10 26.32 10 27 C11.65 27.33 13.3 27.66 15 28 C15.33 30.97 15.66 33.94 16 37 C16.99 36.505 16.99 36.505 18 36 C18.12375 37.134375 18.2475 38.26875 18.375 39.4375 C18.58125 40.613125 18.7875 41.78875 19 43 C19.66 43.33 20.32 43.66 21 44 C21.8515625 46.06640625 21.8515625 46.06640625 22.625 48.5625 C22.88539063 49.38878906 23.14578125 50.21507812 23.4140625 51.06640625 C23.70410156 52.02353516 23.70410156 52.02353516 24 53 C23.34 53.66 22.68 54.32 22 55 C21.34 55 20.68 55 20 55 C19.896875 56.093125 19.79375 57.18625 19.6875 58.3125 C19 62 19 62 17.375 63.5 C16.694375 64.2425 16.694375 64.2425 16 65 C16.23477199 68.64541845 16.23477199 68.64541845 17 72 C11.08989068 64.24961712 7.047141 57.94675205 7 48 C6.98582031 47.13246094 6.97164062 46.26492188 6.95703125 45.37109375 C6.94041403 43.24741255 6.96575048 41.12347003 7 39 C6.34 39 5.68 39 5 39 C5.33 36.69 5.66 34.38 6 32 C5.34 32 4.68 32 4 32 C3.34 28.7 2.68 25.4 2 22 C1.01 21.67 0.02 21.34 -1 21 C-2.125 18 -2.125 18 -3 15 C-3.33 14.67 -3.66 14.34 -4 14 C-4.23880597 6.47761194 -4.23880597 6.47761194 -3 4 C-2.34 4 -1.68 4 -1 4 C-0.67 2.68 -0.34 1.36 0 0 Z " fill="#63BE7D" transform="translate(182,218)"/>
<path d="M0 0 C3.125 0.375 3.125 0.375 4.9375 2.25 C6.31427907 5.87310283 6.66497832 9.12371262 6.9140625 12.97265625 C7.03959082 15.36546323 7.03959082 15.36546323 7.7890625 17.53125 C7.89992187 18.1396875 8.01078125 18.748125 8.125 19.375 C5.875 21.8125 5.875 21.8125 3.125 24.375 C2.58875 25.303125 2.0525 26.23125 1.5 27.1875 C1.04625 27.909375 0.5925 28.63125 0.125 29.375 C-0.865 29.375 -1.855 29.375 -2.875 29.375 C-2.875 30.035 -2.875 30.695 -2.875 31.375 C-3.535 31.375 -4.195 31.375 -4.875 31.375 C-5.205 32.695 -5.535 34.015 -5.875 35.375 C-6.535 35.375 -7.195 35.375 -7.875 35.375 C-8.205 36.695 -8.535 38.015 -8.875 39.375 C-9.535 39.375 -10.195 39.375 -10.875 39.375 C-11.205 40.365 -11.535 41.355 -11.875 42.375 C-13.36 42.87 -13.36 42.87 -14.875 43.375 C-16.68846266 45.2394281 -16.68846266 45.2394281 -18.4375 47.4375 C-19.54001188 48.78659519 -20.67810688 50.10888897 -21.875 51.375 C-22.535 51.375 -23.195 51.375 -23.875 51.375 C-24.205 52.365 -24.535 53.355 -24.875 54.375 C-25.535 54.375 -26.195 54.375 -26.875 54.375 C-27.205 55.035 -27.535 55.695 -27.875 56.375 C-28.535 56.045 -29.195 55.715 -29.875 55.375 C-28.38503113 52.12490307 -26.49441215 49.19167652 -24.54931641 46.19799805 C-15.92039483 32.8460309 -9.63207349 18.84396117 -4.6875 3.75 C-3.56362275 0.46482036 -3.56362275 0.46482036 0 0 Z " fill="#EF5457" transform="translate(212.875,106.625)"/>
<path d="M0 0 C0.66 0 1.32 0 2 0 C2 0.66 2 1.32 2 2 C3.65 2 5.3 2 7 2 C7 2.99 7 3.98 7 5 C7.66 5 8.32 5 9 5 C9 5.99 9 6.98 9 8 C9.99 8 10.98 8 12 8 C12 9.65 12 11.3 12 13 C12.99 13 13.98 13 15 13 C15 13.99 15 14.98 15 16 C15.66 16 16.32 16 17 16 C17.33 17.65 17.66 19.3 18 21 C18.66 21 19.32 21 20 21 C22 23 22 23 23 26 C24.32 25.67 25.64 25.34 27 25 C25.3341708 31.16356805 22.12194714 36.48259656 19 42 C17.515 41.505 17.515 41.505 16 41 C15.67 40.01 15.34 39.02 15 38 C13.6846659 37.29848848 12.34882408 36.63474075 11 36 C8.61493584 33.96827868 8.02322718 33.06968154 7 30 C6.38125 29.9175 5.7625 29.835 5.125 29.75 C3 29 3 29 1.375 25.6875 C0.92125 24.470625 0.4675 23.25375 0 22 C-1.05520506 19.69173892 -2.01969956 17.97575439 -3.625 16 C-5 14 -5 14 -5 10 C-3 8.25 -3 8.25 -1 7 C-1.33 6.34 -1.66 5.68 -2 5 C-1.34 4.34 -0.68 3.68 0 3 C0 2.01 0 1.02 0 0 Z " fill="#3BADA3" transform="translate(209,248)"/>
<path d="M0 0 C0.33 0.99 0.66 1.98 1 3 C2.32 3 3.64 3 5 3 C5.33 2.34 5.66 1.68 6 1 C6 1.66 6 2.32 6 3 C6.99 3.33 7.98 3.66 9 4 C9.63019694 13.17286652 9.63019694 13.17286652 7 16.625 C6.01 17.305625 6.01 17.305625 5 18 C5.433125 18.86625 5.86625 19.7325 6.3125 20.625 C7.42090382 22.84180764 8.50513999 25.07089679 9.5625 27.3125 C10.72143576 30.10145241 10.72143576 30.10145241 13 31 C13.63385922 33.04243528 14.01826504 35.09132519 14.4375 37.1875 C14.623125 37.785625 14.80875 38.38375 15 39 C15.66 39.33 16.32 39.66 17 40 C17 40.99 17 41.98 17 43 C17.99 43 18.98 43 20 43 C20.66 44.65 21.32 46.3 22 48 C22.66 48 23.32 48 24 48 C25.91036352 49.52829082 26.88864402 50.44322011 27.375 52.875 C28.33095621 56.1252511 30.53115196 57.77201518 33 60 C33.99 60.495 33.99 60.495 35 61 C35.66 60.34 36.32 59.68 37 59 C37 62.39593478 36.47834052 63.06619881 34.5 65.6875 C34.0359375 66.31011719 33.571875 66.93273437 33.09375 67.57421875 C32.7328125 68.04472656 32.371875 68.51523437 32 69 C28.91910327 66.22719294 27.31224548 63.93673644 26 60 C25.01 60 24.02 60 23 60 C22.67 59.01 22.34 58.02 22 57 C21.01 56.34 20.02 55.68 19 55 C18.19140625 53.1953125 18.19140625 53.1953125 17.5625 51.125 C16.05619377 46.76380972 13.86297009 44.51797563 10.3125 41.625 C8.4119884 39.27198563 8.32767482 36.94907337 8 34 C7.34 34 6.68 34 6 34 C6 33.01 6 32.02 6 31 C5.34 31 4.68 31 4 31 C3.67 30.34 3.34 29.68 3 29 C2.01 28.67 1.02 28.34 0 28 C0 27.01 0 26.02 0 25 C-0.66 25 -1.32 25 -2 25 C-6 19 -6 19 -6 14 C-6.43083271 11.5380988 -6.93804179 9.19713977 -7.6875 6.8125 C-7.790625 6.214375 -7.89375 5.61625 -8 5 C-7.34 4.34 -6.68 3.68 -6 3 C-5.34 3.33 -4.68 3.66 -4 4 C-3.34 3.34 -2.68 2.68 -2 2 C-1.34 2.33 -0.68 2.66 0 3 C0 2.01 0 1.02 0 0 Z " fill="#4F97DD" transform="translate(207,202)"/>
<path d="M0 0 C5.55659495 7.32460243 5.55659495 7.32460243 5 12 C3.625 14.8125 3.625 14.8125 2 17 C1.34 17 0.68 17 0 17 C-0.495 18.485 -0.495 18.485 -1 20 C-1.66 20 -2.32 20 -3 20 C-3 20.66 -3 21.32 -3 22 C-3.66 22 -4.32 22 -5 22 C-5 22.99 -5 23.98 -5 25 C-6.32 25 -7.64 25 -9 25 C-9.144375 25.61875 -9.28875 26.2375 -9.4375 26.875 C-10 29 -10 29 -11 31 C-11.66 31 -12.32 31 -13 31 C-13 31.66 -13 32.32 -13 33 C-13.804375 33.474375 -14.60875 33.94875 -15.4375 34.4375 C-18.2918076 35.79983672 -18.2918076 35.79983672 -19 39 C-19.66 39 -20.32 39 -21 39 C-21.33 39.66 -21.66 40.32 -22 41 C-23.26263107 42.01633308 -24.55948362 42.99061733 -25.875 43.9375 C-28.84504719 46.07966999 -28.84504719 46.07966999 -31.46484375 48.6171875 C-33.45344918 50.4084504 -35.07670382 50.69561086 -37.6875 51.1875 C-38.49574219 51.34605469 -39.30398437 51.50460938 -40.13671875 51.66796875 C-40.75160156 51.77753906 -41.36648437 51.88710937 -42 52 C-42 52.66 -42 53.32 -42 54 C-43.485 54.495 -43.485 54.495 -45 55 C-45.3125 52.25 -45.3125 52.25 -45 49 C-42.399035 46.399035 -40.48886679 45.1629556 -37 44 C-35.63360658 42.3603279 -34.3050581 40.68889872 -33 39 C-28.49450549 34.16483516 -28.49450549 34.16483516 -25 33 C-23.29209912 31.79252059 -23.29209912 31.79252059 -22 30 C-21.9175 29.21625 -21.835 28.4325 -21.75 27.625 C-20.71964559 24.01875958 -18.70497668 23.11082592 -15.59375 21.2109375 C-13.68583971 19.99762627 -13.68583971 19.99762627 -13 17 C-12.01 17 -11.02 17 -10 17 C-9.731875 16.236875 -9.46375 15.47375 -9.1875 14.6875 C-8.04865495 12.11011382 -7.18583329 10.73045136 -5 9 C-4.34 9 -3.68 9 -3 9 C-2.67 7.35 -2.34 5.7 -2 4 C-1.34 4 -0.68 4 0 4 C0 2.68 0 1.36 0 0 Z " fill="#A87EA8" transform="translate(229,140)"/>
<path d="M0 0 C2.475 0.495 2.475 0.495 5 1 C5 1.66 5 2.32 5 3 C5.66 3.66 6.32 4.32 7 5 C7.23046875 8.1953125 7.23046875 8.1953125 7.1875 12.125 C7.18177979 12.80643066 7.17605957 13.48786133 7.17016602 14.18994141 C7.12053715 17.62458679 6.96189319 20.98024411 6.4375 24.375 C5.98165535 28.15199857 6.26233827 31.28660364 6.84375 35.01953125 C7 37 7 37 6 40 C3.08205596 38.0644185 0.16587391 36.12619838 -2.75 34.1875 C-3.575 33.64029297 -4.4 33.09308594 -5.25 32.52929688 C-6.04921875 31.99755859 -6.8484375 31.46582031 -7.671875 30.91796875 C-8.4050293 30.43094482 -9.13818359 29.9439209 -9.89355469 29.44213867 C-11.97520793 28.01697343 -13.99348714 26.52867729 -16 25 C-14.68 25 -13.36 25 -12 25 C-12 24.01 -12 23.02 -12 22 C-11.34 22 -10.68 22 -10 22 C-10 20.68 -10 19.36 -10 18 C-9.01 18 -8.02 18 -7 18 C-7.2475 16.948125 -7.495 15.89625 -7.75 14.8125 C-8 11 -8 11 -6.1875 8.1875 C-4.09375 6.09375 -4.09375 6.09375 -2 4 C-1.30251417 2.68252676 -0.63040043 1.35085807 0 0 Z " fill="#C3BA42" transform="translate(156,204)"/>
<path d="M0 0 C3.62107449 4.44404597 5.33060893 8.21434368 5 14 C4.34 14 3.68 14 3 14 C2.67 15.65 2.34 17.3 2 19 C1.34 19 0.68 19 0 19 C-0.495 20.485 -0.495 20.485 -1 22 C-1.9793879 23.02019573 -2.97895449 24.02149805 -4 25 C-4.33 25.66 -4.66 26.32 -5 27 C-5.99 27 -6.98 27 -8 27 C-8.0928125 27.86625 -8.0928125 27.86625 -8.1875 28.75 C-9.33384174 31.92448483 -11.25956842 33.12848575 -14 35 C-14.66 35 -15.32 35 -16 35 C-16 36.65 -16 38.3 -16 40 C-17.485 40.495 -17.485 40.495 -19 41 C-19.33 41.99 -19.66 42.98 -20 44 C-21.175625 44.0928125 -21.175625 44.0928125 -22.375 44.1875 C-23.24125 44.455625 -24.1075 44.72375 -25 45 C-25.72904086 46.64034193 -26.38655243 48.31301918 -27 50 C-30.31379552 53.95814465 -33.00189109 55.721414 -38 57 C-36.5 54 -36.5 54 -35 51 C-34.01 51 -33.02 51 -32 51 C-32 50.34 -32 49.68 -32 49 C-31.34 49 -30.68 49 -30 49 C-28.99983813 46.99967627 -28.50603992 45.16874252 -28 43 C-28.99 43 -29.98 43 -31 43 C-31.33 43.99 -31.66 44.98 -32 46 C-32.99 46 -33.98 46 -35 46 C-34.67 44.68 -34.34 43.36 -34 42 C-33.34 42 -32.68 42 -32 42 C-32 41.34 -32 40.68 -32 40 C-31.34 40 -30.68 40 -30 40 C-30 39.34 -30 38.68 -30 38 C-29.01 38 -28.02 38 -27 38 C-27 37.01 -27 36.02 -27 35 C-21.65116279 30 -21.65116279 30 -19 30 C-19 29.01 -19 28.02 -19 27 C-18.01 27 -17.02 27 -16 27 C-16 26.01 -16 25.02 -16 24 C-15.34 24 -14.68 24 -14 24 C-14 23.34 -14 22.68 -14 22 C-12.34997172 20.64613064 -10.6825613 19.31321858 -9 18 C-8.67 17.34 -8.34 16.68 -8 16 C-7.34 16 -6.68 16 -6 16 C-5.7525 15.2575 -5.505 14.515 -5.25 13.75 C-4 11 -4 11 -1.875 9.125 C0.38301288 7.00158927 0.38301288 7.00158927 0.25 3.25 C0.1675 2.1775 0.085 1.105 0 0 Z " fill="#BB7297" transform="translate(224,130)"/>
<path d="M0 0 C0.66 0.33 1.32 0.66 2 1 C2 1.99 2 2.98 2 4 C2.99 4.33 3.98 4.66 5 5 C3.84705882 14.88235294 3.84705882 14.88235294 3 17 C2.01 17.33 1.02 17.66 0 18 C-1.02700444 20.32891096 -1.02700444 20.32891096 -1.6875 23.0625 C-1.93886719 23.98160156 -2.19023437 24.90070313 -2.44921875 25.84765625 C-2.63097656 26.55792969 -2.81273437 27.26820313 -3 28 C-2.01 28.33 -1.02 28.66 0 29 C-0.33 29.99 -0.66 30.98 -1 32 C-0.34 32.33 0.32 32.66 1 33 C1.85571373 37.36414001 2.10827397 41.56076733 2 46 C2.99 46.33 3.98 46.66 5 47 C5 49.64 5 52.28 5 55 C4.56429687 54.62488281 4.12859375 54.24976563 3.6796875 53.86328125 C2.78636719 53.09564453 2.78636719 53.09564453 1.875 52.3125 C1.23949219 51.75046875 0.60398438 51.1884375 -0.05078125 50.609375 C-2.12954803 48.8054903 -2.12954803 48.8054903 -5.3125 47.0625 C-9.50019444 43.65859864 -9.31176886 37.68501858 -9.87109375 32.69140625 C-9.99115984 29.25315004 -9.66233673 26.3600294 -9 23 C-8.9593739 20.1377796 -8.9593739 20.1377796 -9.17578125 17.84375 C-9.31372436 15.47901105 -9.36918541 13.3425693 -9 11 C-6.5625 9.1875 -6.5625 9.1875 -4 8 C-3.12177688 5.91466367 -3.12177688 5.91466367 -3 4 C-2.34 4 -1.68 4 -1 4 C-0.67 2.68 -0.34 1.36 0 0 Z " fill="#99C55D" transform="translate(171,201)"/>
<path d="M0 0 C1.9375 0.8125 1.9375 0.8125 4 2 C4.33 2.99 4.66 3.98 5 5 C5.350625 5.680625 5.70125 6.36125 6.0625 7.0625 C7 9 7 9 7 11 C9.00032373 12.00016187 10.83125748 12.49396008 13 13 C13.103125 13.61875 13.20625 14.2375 13.3125 14.875 C14.2984558 17.92249975 16.46123634 18.6571504 19.0625 20.3125 C21.5647216 22.4918543 22.34514074 23.72570372 23 27 C22.26741878 29.795239 21.20945118 32.37952244 20 35 C19.67 33.68 19.34 32.36 19 31 C18.34 31 17.68 31 17 31 C17 30.34 17 29.68 17 29 C16.01 29 15.02 29 14 29 C14 28.01 14 27.02 14 26 C11.1575146 24.42726432 11.1575146 24.42726432 8 24 C7.01 26.475 7.01 26.475 6 29 C4.6078125 28.9071875 4.6078125 28.9071875 3.1875 28.8125 C0.01604897 28.69105736 0.01604897 28.69105736 -1.875 30.5 C-2.24625 30.995 -2.6175 31.49 -3 32 C-4.41401153 28.86897448 -5.4413737 25.6917728 -6.3125 22.375 C-6.51488281 21.61960937 -6.71726563 20.86421875 -6.92578125 20.0859375 C-7 18 -7 18 -5.578125 16.41796875 C-5.05734375 15.95003906 -4.5365625 15.48210937 -4 15 C-3.63371323 13.00577205 -3.29868656 11.00546689 -3 9 C-2.34 8.34 -1.68 7.68 -1 7 C-0.34 7 0.32 7 1 7 C0.67 4.69 0.34 2.38 0 0 Z " fill="#37B38D" transform="translate(204,264)"/>
<path d="M0 0 C0.99 0.33 1.98 0.66 3 1 C3 1.66 3 2.32 3 3 C2.34 3 1.68 3 1 3 C1.185625 3.928125 1.37125 4.85625 1.5625 5.8125 C2 9 2 9 1 12 C1.09406754 14.29453495 1.09406754 14.29453495 1.4375 16.6875 C1.53933594 17.49574219 1.64117187 18.30398437 1.74609375 19.13671875 C1.87177734 20.05904297 1.87177734 20.05904297 2 21 C1.34 21 0.68 21 0 21 C-0.33 21.66 -0.66 22.32 -1 23 C-1.66666667 24.33333333 -2.33333333 25.66666667 -3 27 C-3.66 27 -4.32 27 -5 27 C-5 26.34 -5 25.68 -5 25 C-5.66 25.66 -6.32 26.32 -7 27 C-7 27.66 -7 28.32 -7 29 C-7.66 29.33 -8.32 29.66 -9 30 C-9.33 30.99 -9.66 31.98 -10 33 C-10.66 33 -11.32 33 -12 33 C-12.185625 34.7015625 -12.185625 34.7015625 -12.375 36.4375 C-12.58125 37.613125 -12.7875 38.78875 -13 40 C-13.99 40.495 -13.99 40.495 -15 41 C-15.185625 39.700625 -15.185625 39.700625 -15.375 38.375 C-15.88015921 35.03768305 -15.88015921 35.03768305 -17.11328125 32.19921875 C-18.16654142 28.3991303 -17.76818497 26.23780596 -16.8125 22.4375 C-16.55082031 21.34308594 -16.28914062 20.24867188 -16.01953125 19.12109375 C-15.01319017 16.0403791 -13.89308657 13.62684106 -12 11 C-11.34 11 -10.68 11 -10 11 C-10 10.01 -10 9.02 -10 8 C-9.01 8 -8.02 8 -7 8 C-6.67 7.01 -6.34 6.02 -6 5 C-5.34 5 -4.68 5 -4 5 C-4 4.34 -4 3.68 -4 3 C-2.68 2.67 -1.36 2.34 0 2 C0 1.34 0 0.68 0 0 Z " fill="#7DB580" transform="translate(191,189)"/>
<path d="M0 0 C2.18994248 3.28491373 2.35277339 4.83095639 2.625 8.6875 C2.69976562 9.68136719 2.77453125 10.67523438 2.8515625 11.69921875 C2.90054688 12.45847656 2.94953125 13.21773437 3 14 C2.34 14.33 1.68 14.66 1 15 C-0.33802961 16.78832804 -1.55116189 18.64002274 -2.78125 20.50390625 C-3.1834375 20.99761719 -3.585625 21.49132812 -4 22 C-4.66 22 -5.32 22 -6 22 C-6.495 23.485 -6.495 23.485 -7 25 C-7.66 25 -8.32 25 -9 25 C-9.495 26.485 -9.495 26.485 -10 28 C-10.66 28 -11.32 28 -12 28 C-12 28.66 -12 29.32 -12 30 C-12.66 30 -13.32 30 -14 30 C-14 30.99 -14 31.98 -14 33 C-14.99 33 -15.98 33 -17 33 C-17 33.99 -17 34.98 -17 36 C-22.34883721 41 -22.34883721 41 -25 41 C-25 41.99 -25 42.98 -25 44 C-25.99 44 -26.98 44 -28 44 C-28 44.66 -28 45.32 -28 46 C-28.66 46 -29.32 46 -30 46 C-30 46.66 -30 47.32 -30 48 C-30.99 48.495 -30.99 48.495 -32 49 C-32.33 49.99 -32.66 50.98 -33 52 C-33.7425 51.79375 -34.485 51.5875 -35.25 51.375 C-38.37536757 50.94881351 -39.32229676 51.52264649 -42 53 C-42.66 52.67 -43.32 52.34 -44 52 C-44 51.01 -44 50.02 -44 49 C-43.01 49 -42.02 49 -41 49 C-41 48.34 -41 47.68 -41 47 C-39.625 45.375 -39.625 45.375 -38 44 C-37.34 44 -36.68 44 -36 44 C-35.67 43.34 -35.34 42.68 -35 42 C-31.74733167 37.58566441 -28.48947324 33.98421035 -23.3125 31.9375 C-20.67379032 31.1202663 -20.67379032 31.1202663 -19 28 C-18.34 28 -17.68 28 -17 28 C-17 27.01 -17 26.02 -17 25 C-16.01 25 -15.02 25 -14 25 C-13.7525 24.236875 -13.505 23.47375 -13.25 22.6875 C-11.87869328 19.73919055 -10.7648921 18.64165468 -8 17 C-7.34 17 -6.68 17 -6 17 C-6 15.68 -6 14.36 -6 13 C-4.6875 11.5 -4.6875 11.5 -3 10 C-0.57849946 7.39912905 -0.02170162 6.37616148 0.1875 2.75 C0.125625 1.8425 0.06375 0.935 0 0 Z " fill="#D56579" transform="translate(222,124)"/>
<path d="M0 0 C3.26460973 1.80412643 4.88929795 2.83394693 7 6 C5.8158974 9.55230779 4.70412814 10.24146766 1.75 12.4375 C0.9353125 13.05367187 0.120625 13.66984375 -0.71875 14.3046875 C-1.4715625 14.86414063 -2.224375 15.42359375 -3 16 C-6.96272308 18.97204231 -9.87531507 22.15423393 -13 26 C-16.58974359 29.79487179 -16.58974359 29.79487179 -19 31 C-19 31.99 -19 32.98 -19 34 C-19.598125 34.433125 -20.19625 34.86625 -20.8125 35.3125 C-23.25817826 36.93776257 -23.25817826 36.93776257 -24.5 40.125 C-26 43 -26 43 -28.1875 43.875 C-28.785625 43.91625 -29.38375 43.9575 -30 44 C-30 42.68 -30 41.36 -30 40 C-30.66 39.67 -31.32 39.34 -32 39 C-31.37064741 36.06302123 -30.67498244 33.51247366 -29 31 C-28.154375 30.67 -27.30875 30.34 -26.4375 30 C-25.633125 29.67 -24.82875 29.34 -24 29 C-23.11306697 26.95894361 -23.11306697 26.95894361 -23 25 C-22.34 25 -21.68 25 -21 25 C-21 24.34 -21 23.68 -21 23 C-20.34 23 -19.68 23 -19 23 C-19 22.01 -19 21.02 -19 20 C-18.34 20 -17.68 20 -17 20 C-17 19.34 -17 18.68 -17 18 C-15.38025441 16.28769752 -13.7041054 14.62836738 -12 13 C-11.195625 12.175 -10.39125 11.35 -9.5625 10.5 C-7.66365524 8.64746853 -5.81292181 7.01942932 -3.75 5.375 C-0.79262734 3.23003634 -0.79262734 3.23003634 0 0 Z " fill="#528AEF" transform="translate(245,166)"/>
<path d="M0 0 C0.66 0.33 1.32 0.66 2 1 C1.34 2.65 0.68 4.3 0 6 C1.65 5.67 3.3 5.34 5 5 C5 9.23147735 3.78568114 12.76407316 2.4375 16.75 C2.16808594 17.54921875 1.89867187 18.3484375 1.62109375 19.171875 C1.41613281 19.77515625 1.21117187 20.3784375 1 21 C-3.56120312 22.17708468 -8.31612353 22.51750695 -13 22 C-13.99 21.34 -14.98 20.68 -16 20 C-19.60458998 18.2439177 -21.20185582 17.98716155 -25 19 C-25.99 18.34 -26.98 17.68 -28 17 C-26.90042969 16.443125 -25.80085937 15.88625 -24.66796875 15.3125 C-15.88526562 10.80133459 -7.76051829 6.15142594 0 0 Z " fill="#E2A33A" transform="translate(160,183)"/>
<path d="M0 0 C1.875 0.25 1.875 0.25 4 1 C5.1328125 3.046875 5.1328125 3.046875 6 5 C5.49210937 5.42410156 4.98421875 5.84820312 4.4609375 6.28515625 C0.40400177 9.7419086 -3.22100338 13.25772282 -6.625 17.35546875 C-8.61912767 19.74049077 -10.67976315 21.93059956 -13 24 C-13.99 24 -14.98 24 -16 24 C-16 24.99 -16 25.98 -16 27 C-16.99 27 -17.98 27 -19 27 C-19 27.66 -19 28.32 -19 29 C-19.99 29 -20.98 29 -22 29 C-22 29.66 -22 30.32 -22 31 C-23.32 31.33 -24.64 31.66 -26 32 C-26.103125 32.763125 -26.20625 33.52625 -26.3125 34.3125 C-27.06034403 37.23589031 -27.60664352 38.22714335 -30 40 C-32.1875 40.6875 -32.1875 40.6875 -34 41 C-34.6875 39.25 -34.6875 39.25 -35 37 C-33.2426201 33.92458518 -32.42054006 33.14018002 -29 32 C-29 31.01 -29 30.02 -29 29 C-28.34 29 -27.68 29 -27 29 C-26.67 28.01 -26.34 27.02 -26 26 C-24.89770098 23.1523942 -23.99898203 21.99919084 -21.5625 20.0625 C-18.85581679 18.15394496 -18.85581679 18.15394496 -17.5 15.25 C-17.005 14.5075 -16.51 13.765 -16 13 C-13.3125 12.6875 -13.3125 12.6875 -11 13 C-11 12.34 -11 11.68 -11 11 C-10.01 11 -9.02 11 -8 11 C-8 10.01 -8 9.02 -8 8 C-6.625 6.3125 -6.625 6.3125 -5 5 C-4.34 5 -3.68 5 -3 5 C-3 4.34 -3 3.68 -3 3 C-2.01 3 -1.02 3 0 3 C0 2.01 0 1.02 0 0 Z " fill="#7887D7" transform="translate(237,157)"/>
<path d="M0 0 C0.66 0.33 1.32 0.66 2 1 C2 1.66 2 2.32 2 3 C3.65 3.33 5.3 3.66 7 4 C7.33 6.97 7.66 9.94 8 13 C8.66 12.67 9.32 12.34 10 12 C10.12375 13.134375 10.2475 14.26875 10.375 15.4375 C10.58125 16.613125 10.7875 17.78875 11 19 C11.66 19.33 12.32 19.66 13 20 C13.8515625 22.06640625 13.8515625 22.06640625 14.625 24.5625 C15.01558594 25.80193359 15.01558594 25.80193359 15.4140625 27.06640625 C15.60742188 27.70449219 15.80078125 28.34257812 16 29 C15.34 29.66 14.68 30.32 14 31 C13.34 31 12.68 31 12 31 C11.8453125 32.6396875 11.8453125 32.6396875 11.6875 34.3125 C11 38 11 38 9.375 39.5 C8.92125 39.995 8.4675 40.49 8 41 C8.23477199 44.64541845 8.23477199 44.64541845 9 48 C4.30340032 42.1851623 2.52972852 37.28107994 2.75 29.8125 C2.75515625 29.10158203 2.7603125 28.39066406 2.765625 27.65820312 C2.81279957 24.52404234 3.00303303 21.99090091 4 19 C3.75991445 16.30954233 3.75991445 16.30954233 3.1875 13.4375 C3.01605469 12.46683594 2.84460938 11.49617187 2.66796875 10.49609375 C2.18265594 7.84913754 2.18265594 7.84913754 0 6 C-0.6875 3.4375 -0.6875 3.4375 -1 1 C-0.67 0.67 -0.34 0.34 0 0 Z " fill="#5BB988" transform="translate(190,242)"/>
<path d="M0 0 C2 0.875 2 0.875 3.125 3.375 C3.41375 4.2 3.7025 5.025 4 5.875 C4.66 6.205 5.32 6.535 6 6.875 C6.63385922 8.91743528 7.01826504 10.96632519 7.4375 13.0625 C7.623125 13.660625 7.80875 14.25875 8 14.875 C8.66 15.205 9.32 15.535 10 15.875 C10 16.865 10 17.855 10 18.875 C10.99 18.875 11.98 18.875 13 18.875 C13.66 20.525 14.32 22.175 15 23.875 C15.66 23.875 16.32 23.875 17 23.875 C18.91036352 25.40329082 19.88864402 26.31822011 20.375 28.75 C21.33095621 32.0002511 23.53115196 33.64701518 26 35.875 C26.66 36.205 27.32 36.535 28 36.875 C28.66 36.215 29.32 35.555 30 34.875 C30 38.27093478 29.47834052 38.94119881 27.5 41.5625 C27.0359375 42.18511719 26.571875 42.80773437 26.09375 43.44921875 C25.7328125 43.91972656 25.371875 44.39023437 25 44.875 C21.91910327 42.10219294 20.31224548 39.81173644 19 35.875 C18.01 35.875 17.02 35.875 16 35.875 C15.67 34.885 15.34 33.895 15 32.875 C14.01 32.215 13.02 31.555 12 30.875 C11.19140625 29.0703125 11.19140625 29.0703125 10.5625 27 C9.05619377 22.63880972 6.86297009 20.39297563 3.3125 17.5 C1.4119884 15.14698563 1.32767482 12.82407337 1 9.875 C0.34 9.875 -0.32 9.875 -1 9.875 C-1 8.885 -1 7.895 -1 6.875 C-1.66 6.875 -2.32 6.875 -3 6.875 C-3.33 4.895 -3.66 2.915 -4 0.875 C-2 -0.125 -2 -0.125 0 0 Z " fill="#449ED7" transform="translate(214,226.125)"/>
<path d="M0 0 C0.66 0 1.32 0 2 0 C2 0.66 2 1.32 2 2 C3.65 2 5.3 2 7 2 C7 2.99 7 3.98 7 5 C7.66 5 8.32 5 9 5 C9 5.99 9 6.98 9 8 C9.99 8 10.98 8 12 8 C12 9.65 12 11.3 12 13 C12.99 13 13.98 13 15 13 C15 13.99 15 14.98 15 16 C15.66 16 16.32 16 17 16 C17.33 17.65 17.66 19.3 18 21 C18.66 21 19.32 21 20 21 C22 23 22 23 23 26 C24.32 25.67 25.64 25.34 27 25 C25.74194623 29.50802601 24.09592835 32.4912812 21 36 C20.731875 35.195625 20.46375 34.39125 20.1875 33.5625 C19.795625 32.716875 19.40375 31.87125 19 31 C18.01 30.67 17.02 30.34 16 30 C15.66666667 28.66666667 15.33333333 27.33333333 15 26 C14.01 25.67 13.02 25.34 12 25 C11.3125 22.9375 11.3125 22.9375 11 21 C10.34 21 9.68 21 9 21 C9 20.01 9 19.02 9 18 C8.34 18 7.68 18 7 18 C6.87625 17.360625 6.7525 16.72125 6.625 16.0625 C6.41875 15.381875 6.2125 14.70125 6 14 C5.34 13.67 4.68 13.34 4 13 C4 12.01 4 11.02 4 10 C3.01 10 2.02 10 1 10 C0.67 6.7 0.34 3.4 0 0 Z " fill="#41A9B5" transform="translate(209,248)"/>
<path d="M0 0 C5 1 5 1 6 2 C6.144375 3.11375 6.28875 4.2275 6.4375 5.375 C6.75300217 9.08510547 6.75300217 9.08510547 9 12 C9.44856614 14.17360752 9.8155978 16.36476218 10.125 18.5625 C10.29257813 19.71878906 10.46015625 20.87507813 10.6328125 22.06640625 C11 25 11 25 11 27 C11.99 27 12.98 27 14 27 C14 28.32 14 29.64 14 31 C14.66 31 15.32 31 16 31 C16.45375 32.134375 16.9075 33.26875 17.375 34.4375 C18.57095806 38.04721692 18.57095806 38.04721692 21 39 C22.485 38.505 22.485 38.505 24 38 C24 38.66 24 39.32 24 40 C24.66 40.33 25.32 40.66 26 41 C25.34 41.556875 24.68 42.11375 24 42.6875 C21.74507789 44.84062308 21.74507789 44.84062308 21.75 47.75 C21.87375 48.86375 21.87375 48.86375 22 50 C20.515 49.505 20.515 49.505 19 49 C17.96514123 46.68191636 16.9644586 44.34824702 16 42 C15.34 41.67 14.68 41.34 14 41 C14 38.03 14 35.06 14 32 C13.21625 31.87625 12.4325 31.7525 11.625 31.625 C8.36391165 30.84855039 7.33398041 29.33398041 5 27 C4.875 24.375 4.875 24.375 5 22 C4.34 21.67 3.68 21.34 3 21 C2.5859375 18.71484375 2.5859375 18.71484375 2.375 15.9375 C2.26285156 14.55884766 2.26285156 14.55884766 2.1484375 13.15234375 C2.07496094 12.08693359 2.07496094 12.08693359 2 11 C1.67 11 1.34 11 1 11 C0.67 7.37 0.34 3.74 0 0 Z " fill="#55B394" transform="translate(183,214)"/>
<path d="M0 0 C0.33 0.99 0.66 1.98 1 3 C-0.62339805 4.70884005 -2.29319053 6.37446717 -4 8 C-4.66 8 -5.32 8 -6 8 C-5.98839844 8.62648437 -5.97679687 9.25296875 -5.96484375 9.8984375 C-5.95582031 10.71570313 -5.94679687 11.53296875 -5.9375 12.375 C-5.92589844 13.18710938 -5.91429687 13.99921875 -5.90234375 14.8359375 C-6 17 -6 17 -7 19 C-7.66 19 -8.32 19 -9 19 C-9 19.66 -9 20.32 -9 21 C-9.66 21 -10.32 21 -11 21 C-11 21.99 -11 22.98 -11 24 C-16.19591612 23.55966813 -19.66335081 23.11696661 -24 20 C-23.54625 19.608125 -23.0925 19.21625 -22.625 18.8125 C-20.8169073 17.05804676 -20.8169073 17.05804676 -20.25 14.4375 C-19.8375 13.633125 -19.425 12.82875 -19 12 C-17.865625 11.7525 -16.73125 11.505 -15.5625 11.25 C-11.91214549 10.43719761 -11.91214549 10.43719761 -10.98046875 7.91796875 C-10.50164942 6.29203145 -10.07361821 4.65008131 -9.703125 2.99609375 C-9.47109375 2.33738281 -9.2390625 1.67867187 -9 1 C-5.8035914 -0.06546953 -3.34252724 -0.07427838 0 0 Z " fill="#CAC43B" transform="translate(155,205)"/>
<path d="M0 0 C0.33 0 0.66 0 1 0 C0.979375 0.9075 0.95875 1.815 0.9375 2.75 C0.80853289 5.86532872 0.80853289 5.86532872 1.8125 8.0625 C1.874375 8.701875 1.93625 9.34125 2 10 C-0.25 12.4375 -0.25 12.4375 -3 15 C-3.53625 15.928125 -4.0725 16.85625 -4.625 17.8125 C-5.07875 18.534375 -5.5325 19.25625 -6 20 C-6.99 20 -7.98 20 -9 20 C-9 20.66 -9 21.32 -9 22 C-9.66 22 -10.32 22 -11 22 C-11.33 23.32 -11.66 24.64 -12 26 C-12.66 26 -13.32 26 -14 26 C-14.33 27.32 -14.66 28.64 -15 30 C-15.66 30 -16.32 30 -17 30 C-17.33 30.99 -17.66 31.98 -18 33 C-19.485 33.495 -19.485 33.495 -21 34 C-22.81346266 35.8644281 -22.81346266 35.8644281 -24.5625 38.0625 C-25.66501188 39.41159519 -26.80310688 40.73388897 -28 42 C-28.66 42 -29.32 42 -30 42 C-30.33 42.99 -30.66 43.98 -31 45 C-31.66 45 -32.32 45 -33 45 C-33.33 45.66 -33.66 46.32 -34 47 C-34.66 46.67 -35.32 46.34 -36 46 C-34.31610065 42.45178351 -32.33935135 39.13683616 -30.25 35.8125 C-29.59515625 34.74644531 -28.9403125 33.68039063 -28.265625 32.58203125 C-25.50712893 29.43829694 -24.03676596 29.46071785 -20 29 C-17.73674754 26.02236957 -17.73674754 26.02236957 -16 23 C-15.34 23 -14.68 23 -14 23 C-14 22.01 -14 21.02 -14 20 C-12.68 19.34 -11.36 18.68 -10 18 C-10 17.34 -10 16.68 -10 16 C-9.34 16 -8.68 16 -8 16 C-8 15.01 -8 14.02 -8 13 C-6.68 12.67 -5.36 12.34 -4 12 C-3.896875 11.13375 -3.79375 10.2675 -3.6875 9.375 C-2.96601586 5.83316877 -1.72876739 3.15687958 0 0 Z " fill="#E85A60" transform="translate(219,116)"/>
<path d="M0 0 C0.99 0.33 1.98 0.66 3 1 C3.17323873 10.39338884 3.17323873 10.39338884 2.4375 15.0625 C2.0034382 18.96905623 2.24398619 22.16877499 2.84375 26.01953125 C3 28 3 28 2 31 C0.34233195 29.95606023 -1.30083631 28.88907121 -2.9375 27.8125 C-3.85402344 27.22082031 -4.77054688 26.62914062 -5.71484375 26.01953125 C-8 24 -8 24 -8.86328125 21.453125 C-9.09501451 17.29516816 -7.88567496 14.1152944 -5.3125 10.875 C-3.73041125 9.0676672 -3.73041125 9.0676672 -4.3125 6.75 C-4.6528125 5.88375 -4.6528125 5.88375 -5 5 C-4.34 5 -3.68 5 -3 5 C-3 4.34 -3 3.68 -3 3 C-2.01 3 -1.02 3 0 3 C0 2.01 0 1.02 0 0 Z " fill="#ABC753" transform="translate(160,213)"/>
<path d="M0 0 C2.4375 2.5 2.4375 2.5 4 5 C2.90398831 6.00893131 1.79786082 7.00688225 0.6875 8 C0.07261719 8.556875 -0.54226562 9.11375 -1.17578125 9.6875 C-3 11 -3 11 -6 11 C-6.33 11.66 -6.66 12.32 -7 13 C-8.77007714 13.08114106 -10.54122098 13.13925505 -12.3125 13.1875 C-13.29863281 13.22230469 -14.28476563 13.25710937 -15.30078125 13.29296875 C-18 13 -18 13 -19.8671875 11.6484375 C-21 10 -21 10 -20.8125 7.4375 C-20 5 -20 5 -18 3 C-12.30977417 0.9428371 -6.03996467 -0.98611668 0 0 Z " fill="#F1BE27" transform="translate(127,205)"/>
<path d="M0 0 C0.66 0.33 1.32 0.66 2 1 C2.3636198 5.24223102 1.5393228 7.58168085 -1 11 C-1.66 11 -2.32 11 -3 11 C-3.33 11.99 -3.66 12.98 -4 14 C-4.66 14 -5.32 14 -6 14 C-6 14.66 -6 15.32 -6 16 C-6.66 16 -7.32 16 -8 16 C-8 16.99 -8 17.98 -8 19 C-9.32 19 -10.64 19 -12 19 C-12.144375 19.61875 -12.28875 20.2375 -12.4375 20.875 C-13 23 -13 23 -14 25 C-14.66 25 -15.32 25 -16 25 C-16 25.66 -16 26.32 -16 27 C-16.804375 27.474375 -17.60875 27.94875 -18.4375 28.4375 C-21.2918076 29.79983672 -21.2918076 29.79983672 -22 33 C-22.66 33 -23.32 33 -24 33 C-24.33 33.66 -24.66 34.32 -25 35 C-26.27776482 36.08399389 -27.59612571 37.12078851 -28.9375 38.125 C-29.64777344 38.66382813 -30.35804688 39.20265625 -31.08984375 39.7578125 C-33 41 -33 41 -35 41 C-35 40.34 -35 39.68 -35 39 C-34.34 39 -33.68 39 -33 39 C-32.87625 38.071875 -32.87625 38.071875 -32.75 37.125 C-32 35 -32 35 -30 33.9375 C-29.34 33.628125 -28.68 33.31875 -28 33 C-27.67 32.01 -27.34 31.02 -27 30 C-26.01 30 -25.02 30 -24 30 C-24 29.01 -24 28.02 -24 27 C-23.34 27 -22.68 27 -22 27 C-21.67 25.35 -21.34 23.7 -21 22 C-20.34 22 -19.68 22 -19 22 C-19 21.01 -19 20.02 -19 19 C-18.01 19 -17.02 19 -16 19 C-16 18.34 -16 17.68 -16 17 C-14.35 16.67 -12.7 16.34 -11 16 C-11 15.34 -11 14.68 -11 14 C-10.34 13.67 -9.68 13.34 -9 13 C-8.505 12.154375 -8.01 11.30875 -7.5 10.4375 C-7.005 9.633125 -6.51 8.82875 -6 8 C-5.34 8 -4.68 8 -4 8 C-3.67 6.35 -3.34 4.7 -3 3 C-2.01 3 -1.02 3 0 3 C0 2.01 0 1.02 0 0 Z " fill="#9A7FB8" transform="translate(232,146)"/>
<path d="M0 0 C3.14958831 3.42346555 3.56179109 6.44262737 4 11 C3.34 11 2.68 11 2 11 C1.67 11.99 1.34 12.98 1 14 C0.34 14 -0.32 14 -1 14 C-1 14.66 -1 15.32 -1 16 C-1.66 16 -2.32 16 -3 16 C-3 16.99 -3 17.98 -3 19 C-3.99 19 -4.98 19 -6 19 C-6.268125 19.804375 -6.53625 20.60875 -6.8125 21.4375 C-7.204375 22.283125 -7.59625 23.12875 -8 24 C-8.99 24.33 -9.98 24.66 -11 25 C-11 25.66 -11 26.32 -11 27 C-14.32272407 30.81135996 -17.50356392 32.80174236 -22 35 C-22.66 35.99 -23.32 36.98 -24 38 C-24.66 38 -25.32 38 -26 38 C-26.495 40.475 -26.495 40.475 -27 43 C-28.32 43 -29.64 43 -31 43 C-31.33 43.99 -31.66 44.98 -32 46 C-32.99 46 -33.98 46 -35 46 C-34.67 44.68 -34.34 43.36 -34 42 C-33.34 42 -32.68 42 -32 42 C-32 41.34 -32 40.68 -32 40 C-31.34 40 -30.68 40 -30 40 C-30 39.34 -30 38.68 -30 38 C-29.01 38 -28.02 38 -27 38 C-27 37.01 -27 36.02 -27 35 C-21.65116279 30 -21.65116279 30 -19 30 C-19 29.01 -19 28.02 -19 27 C-18.01 27 -17.02 27 -16 27 C-16 26.01 -16 25.02 -16 24 C-15.34 24 -14.68 24 -14 24 C-14 23.34 -14 22.68 -14 22 C-12.34997172 20.64613064 -10.6825613 19.31321858 -9 18 C-8.67 17.34 -8.34 16.68 -8 16 C-7.34 16 -6.68 16 -6 16 C-5.7525 15.2575 -5.505 14.515 -5.25 13.75 C-4 11 -4 11 -1.875 9.125 C0.38301288 7.00158927 0.38301288 7.00158927 0.25 3.25 C0.1675 2.1775 0.085 1.105 0 0 Z " fill="#C66D8A" transform="translate(224,130)"/>
<path d="M0 0 C3.465 1.98 3.465 1.98 7 4 C7 7 7 7 4.75 9.3125 C3.8425 10.199375 2.935 11.08625 2 12 C1.319375 13.051875 0.63875 14.10375 -0.0625 15.1875 C-1.94943467 17.92659872 -2.84482336 19.08398098 -6 20 C-6.99 19.67 -7.98 19.34 -9 19 C-9 18.34 -9 17.68 -9 17 C-9.66 17.33 -10.32 17.66 -11 18 C-11.66 17.67 -12.32 17.34 -13 17 C-12.42195578 10.44883213 -7.89258965 6.68111176 -3.1875 2.625 C-2.12918085 1.74494783 -1.06816445 0.86807601 0 0 Z " fill="#E07F56" transform="translate(173,172)"/>
<path d="M0 0 C3.875 0.875 3.875 0.875 5 2 C4.72057545 3.67654729 4.37668344 5.34259285 4 7 C3.814375 7.928125 3.62875 8.85625 3.4375 9.8125 C3.293125 10.534375 3.14875 11.25625 3 12 C2.01 12 1.02 12 0 12 C0.48526627 16.77178494 1.10231747 20.57207411 3 25 C3 25.99 3 26.98 3 28 C3.66 28 4.32 28 5 28 C4.67 29.32 4.34 30.64 4 32 C3.67 31.67 3.34 31.34 3 31 C2.34 31.66 1.68 32.32 1 33 C-1.79612314 29.08542761 -3.60981492 25.59830449 -5 21 C-5.33 20.67 -5.66 20.34 -6 20 C-6.04080783 18.00041636 -6.04254356 15.99954746 -6 14 C-6.66 13.67 -7.32 13.34 -8 13 C-7.67 10.69 -7.34 8.38 -7 6 C-6.21625 5.938125 -5.4325 5.87625 -4.625 5.8125 C-3.75875 5.544375 -2.8925 5.27625 -2 5 C-0.62533375 2.52363988 -0.62533375 2.52363988 0 0 Z " fill="#55A3C1" transform="translate(200,195)"/>
<path d="M0 0 C3.875 3.75 3.875 3.75 5 6 C5.33 6 5.66 6 6 6 C6.12375 7.11375 6.12375 7.11375 6.25 8.25 C7.1396946 11.51221354 8.48503749 12.80954878 11 15 C10.01 17.31 9.02 19.62 8 22 C6.6078125 21.9071875 6.6078125 21.9071875 5.1875 21.8125 C2.01604897 21.69105736 2.01604897 21.69105736 0.125 23.5 C-0.24625 23.995 -0.6175 24.49 -1 25 C-2.41401153 21.86897448 -3.4413737 18.6917728 -4.3125 15.375 C-4.51488281 14.61960937 -4.71726563 13.86421875 -4.92578125 13.0859375 C-5 11 -5 11 -3.58203125 9.41796875 C-2.79892578 8.71607422 -2.79892578 8.71607422 -2 8 C-1.34227572 4.97065509 -1.34227572 4.97065509 -1 2 C-0.67 1.34 -0.34 0.68 0 0 Z " fill="#3CB97C" transform="translate(202,271)"/>
<path d="M0 0 C0.99 0.33 1.98 0.66 3 1 C3 1.66 3 2.32 3 3 C2.34 3 1.68 3 1 3 C1.185625 3.928125 1.37125 4.85625 1.5625 5.8125 C2 9 2 9 1 12 C1.09406754 14.29453495 1.09406754 14.29453495 1.4375 16.6875 C1.53933594 17.49574219 1.64117187 18.30398437 1.74609375 19.13671875 C1.82988281 19.75160156 1.91367188 20.36648437 2 21 C1.34 21 0.68 21 0 21 C-0.33 21.66 -0.66 22.32 -1 23 C-1.66666667 24.33333333 -2.33333333 25.66666667 -3 27 C-3.66 27 -4.32 27 -5 27 C-5 26.34 -5 25.68 -5 25 C-5.99 24.67 -6.98 24.34 -8 24 C-8.87890625 17.84765625 -8.87890625 17.84765625 -9 16 C-8.67 15.67 -8.34 15.34 -8 15 C-7.76807135 13.48530552 -7.58784762 11.96245438 -7.4375 10.4375 C-7.35371094 9.61121094 -7.26992187 8.78492188 -7.18359375 7.93359375 C-7.12300781 7.29550781 -7.06242188 6.65742188 -7 6 C-6.01 5.67 -5.02 5.34 -4 5 C-4 4.34 -4 3.68 -4 3 C-2.68 2.67 -1.36 2.34 0 2 C0 1.34 0 0.68 0 0 Z " fill="#869DA2" transform="translate(191,189)"/>
<path d="M0 0 C1.67542976 0.28604898 3.34385343 0.61781233 5 1 C5 2.32 5 3.64 5 5 C4.01 5 3.02 5 2 5 C1.67 6.98 1.34 8.96 1 11 C0.34 11 -0.32 11 -1 11 C-1 12.65 -1 14.3 -1 16 C-1.66 16 -2.32 16 -3 16 C-3.33 17.65 -3.66 19.3 -4 21 C-5.65 21.33 -7.3 21.66 -9 22 C-11.23973204 16.89838814 -10.79588531 14.19861539 -9 9 C-8.9071875 7.63875 -8.9071875 7.63875 -8.8125 6.25 C-8 4 -8 4 -4.5 2.25 C-3.345 1.8375 -2.19 1.425 -1 1 C-0.67 0.67 -0.34 0.34 0 0 Z " fill="#C7945C" transform="translate(171,189)"/>
<path d="M0 0 C0.33 0.66 0.66 1.32 1 2 C2.65391846 2.39171753 4.32345271 2.72057545 6 3 C9 4 9 4 10.203125 5.7734375 C11.11779189 8.32912441 11.09059094 9.94508707 10.75 12.625 C10.61851562 13.78902344 10.61851562 13.78902344 10.484375 14.9765625 C10 17 10 17 8 19 C5 19.25 5 19.25 2 19 C-0.83588148 16.16411852 -1.40577456 12.85503752 -2 9 C-1.6875 6.25 -1.6875 6.25 -1 4 C-0.814375 3.236875 -0.62875 2.47375 -0.4375 1.6875 C-0.293125 1.130625 -0.14875 0.57375 0 0 Z " fill="#21B971" transform="translate(208,300)"/>
<path d="M0 0 C0.66 0.33 1.32 0.66 2 1 C2 1.99 2 2.98 2 4 C2.99 4.33 3.98 4.66 5 5 C3.84705882 14.88235294 3.84705882 14.88235294 3 17 C2.01 17.33 1.02 17.66 0 18 C-1.21869929 20.50447516 -1.21869929 20.50447516 -2 23 C-2.66 22.34 -3.32 21.68 -4 21 C-4 19.68 -4 18.36 -4 17 C-4.66 17 -5.32 17 -6 17 C-6 17.66 -6 18.32 -6 19 C-6.99 19.33 -7.98 19.66 -9 20 C-9.28771437 16.95022769 -9.45564181 14.03761209 -9 11 C-6.5625 9.1875 -6.5625 9.1875 -4 8 C-3.12177688 5.91466367 -3.12177688 5.91466367 -3 4 C-2.34 4 -1.68 4 -1 4 C-0.67 2.68 -0.34 1.36 0 0 Z " fill="#A2B460" transform="translate(171,201)"/>
<path d="M0 0 C1.65 1.32 3.3 2.64 5 4 C4.3503125 4.5259375 4.3503125 4.5259375 3.6875 5.0625 C1.73098897 7.09203661 1.73098897 7.09203661 0.5625 10.625 C-1 14 -1 14 -3 14.9375 C-4.6659836 14.98956199 -6.33320313 15 -8 15 C-8.061875 15.94875 -8.12375 16.8975 -8.1875 17.875 C-9 21 -9 21 -11.3125 22.5 C-14.38704645 23.07200864 -15.44357099 22.70428601 -18 21 C-17.67 19.35 -17.34 17.7 -17 16 C-16.030625 15.690625 -15.06125 15.38125 -14.0625 15.0625 C-9.71094521 13.55277691 -7.95322366 10.806108 -5.8125 6.75 C-5.544375 6.1725 -5.27625 5.595 -5 5 C-4.34 5 -3.68 5 -3 5 C-2.87625 4.360625 -2.7525 3.72125 -2.625 3.0625 C-2.41875 2.381875 -2.2125 1.70125 -2 1 C-1.34 0.67 -0.68 0.34 0 0 Z " fill="#DEB430" transform="translate(144,202)"/>
<path d="M0 0 C0.66 0 1.32 0 2 0 C2 0.66 2 1.32 2 2 C3.32 1.67 4.64 1.34 6 1 C5.95875 1.7425 5.9175 2.485 5.875 3.25 C6.01020662 6.22454562 6.56681916 7.4353606 8 10 C11 16.57692308 11 16.57692308 11 20 C11.66 20 12.32 20 13 20 C13.33 21.65 13.66 23.3 14 25 C12.35 25 10.7 25 9 25 C9 24.34 9 23.68 9 23 C8.38125 22.9175 7.7625 22.835 7.125 22.75 C5 22 5 22 3.8125 20.1875 C3 18 3 18 2.5 15.8125 C2.335 15.214375 2.17 14.61625 2 14 C1.34 13.67 0.68 13.34 0 13 C-0.20140476 9.37471432 0.14223235 7.13498292 2 4 C1.34 4 0.68 4 0 4 C0 2.68 0 1.36 0 0 Z " fill="#49A5BE" transform="translate(202,225)"/>
<path d="M0 0 C2.09749995 2.35968744 2.96905704 3.54616994 3.1875 6.75 C3.0946875 7.86375 3.0946875 7.86375 3 9 C2.01 9 1.02 9 0 9 C-0.33 10.65 -0.66 12.3 -1 14 C-1.66 14 -2.32 14 -3 14 C-3.33 14.99 -3.66 15.98 -4 17 C-4.66 17.99 -5.32 18.98 -6 20 C-6.66 20 -7.32 20 -8 20 C-8 20.66 -8 21.32 -8 22 C-9.65 22.33 -11.3 22.66 -13 23 C-13 23.66 -13 24.32 -13 25 C-18.75 28 -18.75 28 -21 28 C-21 27.01 -21 26.02 -21 25 C-19.50390625 23.71875 -19.50390625 23.71875 -17.5625 22.5 C-14.40503705 20.53380379 -14.40503705 20.53380379 -13 17 C-12.01 17 -11.02 17 -10 17 C-9.731875 16.236875 -9.46375 15.47375 -9.1875 14.6875 C-8.04865495 12.11011382 -7.18583329 10.73045136 -5 9 C-4.34 9 -3.68 9 -3 9 C-2.67 7.35 -2.34 5.7 -2 4 C-1.34 4 -0.68 4 0 4 C0 2.68 0 1.36 0 0 Z " fill="#A979AA" transform="translate(229,140)"/>
<path d="M0 0 C0.66 0.33 1.32 0.66 2 1 C1.34 2.65 0.68 4.3 0 6 C1.65 5.67 3.3 5.34 5 5 C5 9.23147735 3.78568114 12.76407316 2.4375 16.75 C2.16808594 17.54921875 1.89867187 18.3484375 1.62109375 19.171875 C1.41613281 19.77515625 1.21117187 20.3784375 1 21 C-1.31 21.33 -3.62 21.66 -6 22 C-5.21302675 18.58978257 -4.12880057 15.31114834 -3 12 C-3.99 11.67 -4.98 11.34 -6 11 C-6.33 9.02 -6.66 7.04 -7 5 C-4.69 3.35 -2.38 1.7 0 0 Z " fill="#DF8B4F" transform="translate(160,183)"/>
<path d="M0 0 C2.97148323 3.35490043 4.2679078 5.6074468 5 10 C5.66 10.33 6.32 10.66 7 11 C8.44512404 14.6128101 9 17.06687842 9 21 C9.66 21 10.32 21 11 21 C10.67 23.31 10.34 25.62 10 28 C10.66 28 11.32 28 12 28 C12.33 33.61 12.66 39.22 13 45 C9.44183934 41.44183934 9.5201654 39.85487707 9 35 C8.505 33.515 8.505 33.515 8 32 C7.64820803 29.6693782 7.31669821 27.33564933 7 25 C6.6725678 22.99902542 6.34123581 20.99866686 6 19 C5.34 19 4.68 19 4 19 C4 17.35 4 15.7 4 14 C3.34 14 2.68 14 2 14 C0.66416101 9.15758367 -0.25328119 5.06562383 0 0 Z " fill="#70C176" transform="translate(177,229)"/>
<path d="M0 0 C0.144375 0.7425 0.28875 1.485 0.4375 2.25 C0.623125 3.1575 0.80875 4.065 1 5 C1.144375 5.721875 1.28875 6.44375 1.4375 7.1875 C1.91606861 9.22656623 1.91606861 9.22656623 4 11 C4.28875 11.78375 4.5775 12.5675 4.875 13.375 C5.85106438 16.13403637 5.85106438 16.13403637 8.1875 18.0625 C8.785625 18.701875 9.38375 19.34125 10 20 C9.81358559 22.98263061 8.39977879 25.38707959 7 28 C6.67 28 6.34 28 6 28 C5.5978125 26.5459375 5.5978125 26.5459375 5.1875 25.0625 C4.795625 24.051875 4.40375 23.04125 4 22 C3.01 21.67 2.02 21.34 1 21 C0.67 18.03 0.34 15.06 0 12 C-1.32 12 -2.64 12 -4 12 C-4.33 12 -4.66 12 -5 12 C-5.22174933 10.54364629 -5.42698698 9.08477044 -5.625 7.625 C-5.74101562 6.81289062 -5.85703125 6.00078125 -5.9765625 5.1640625 C-5.98429688 4.44992188 -5.99203125 3.73578125 -6 3 C-4.1132732 1.1132732 -2.83087714 0 0 0 Z " fill="#52A7B5" transform="translate(194,209)"/>
<path d="M0 0 C1.67542976 0.28604898 3.34385343 0.61781233 5 1 C6.77471263 6.21321836 7.99398813 11.48496907 7 17 C6.49210938 17.50660156 5.98421875 18.01320313 5.4609375 18.53515625 C4.97882813 19.01855469 4.49671875 19.50195312 4 20 C4.23477199 23.64541845 4.23477199 23.64541845 5 27 C0.18769735 21.041911 -1.4686989 16.19844027 -1.25 8.6875 C-1.24484375 7.95982422 -1.2396875 7.23214844 -1.234375 6.48242188 C-1.15493437 1.15493437 -1.15493437 1.15493437 0 0 Z " fill="#55BD7C" transform="translate(194,263)"/>
<path d="M0 0 C1.32 0.66 2.64 1.32 4 2 C3.67 2.99 3.34 3.98 3 5 C3.66 5.33 4.32 5.66 5 6 C5.85571373 10.36414001 6.10827397 14.56076733 6 19 C6.99 19.33 7.98 19.66 9 20 C9 22.64 9 25.28 9 28 C7.8418981 27.12008445 6.6989107 26.22025664 5.5625 25.3125 C4.92441406 24.81363281 4.28632813 24.31476563 3.62890625 23.80078125 C1.56277838 21.51664469 1.39060106 20.03703292 1 17 C0.81179687 15.94683594 0.62359375 14.89367187 0.4296875 13.80859375 C0.24664062 12.69613281 0.06359375 11.58367187 -0.125 10.4375 C-0.31320313 9.32246094 -0.50140625 8.20742187 -0.6953125 7.05859375 C-0.97065204 4.29460833 -0.89878237 2.58874641 0 0 Z " fill="#8CC863" transform="translate(167,228)"/>
<path d="M0 0 C3 1 3 1 3.9375 2.75 C4 5 4 5 2.125 7.1875 C-0.74655204 10.98808358 -0.79726513 14.3472348 -1 19 C-5.30764815 17.43358249 -9.06171464 15.31663844 -13 13 C-11.68 12.67 -10.36 12.34 -9 12 C-9 11.01 -9 10.02 -9 9 C-8.34 9 -7.68 9 -7 9 C-7 7.68 -7 6.36 -7 5 C-5.02 4.67 -3.04 4.34 -1 4 C-0.67 2.68 -0.34 1.36 0 0 Z " fill="#C2CC4B" transform="translate(153,217)"/>
<path d="M0 0 C0.72529579 2.5903421 1.11836143 4.99761777 1.4375 7.6875 C1.623125 8.780625 1.80875 9.87375 2 11 C2.66 11.33 3.32 11.66 4 12 C4.625 15.0625 4.625 15.0625 5 18 C5.33 18 5.66 18 6 18 C6 20.64 6 23.28 6 26 C5.01 26 4.02 26 3 26 C3 25.01 3 24.02 3 23 C2.34 23 1.68 23 1 23 C-3 17 -3 17 -3 12 C-3.43083271 9.5380988 -3.93804179 7.19713977 -4.6875 4.8125 C-4.790625 4.214375 -4.89375 3.61625 -5 3 C-4.34 2.34 -3.68 1.68 -3 1 C-2.34 1.33 -1.68 1.66 -1 2 C-0.67 1.34 -0.34 0.68 0 0 Z " fill="#539DCF" transform="translate(204,204)"/>
<path d="M0 0 C0.78375 0.185625 1.5675 0.37125 2.375 0.5625 C4.97089775 1.25962266 4.97089775 1.25962266 7 0 C7 2.31 7 4.62 7 7 C6.01 7 5.02 7 4 7 C4 7.99 4 8.98 4 10 C3.01 10.495 3.01 10.495 2 11 C2 11.99 2 12.98 2 14 C0.125 15.0625 0.125 15.0625 -2 16 C-4 15 -4 15 -6 12 C-6 8.79604584 -5.25664978 6.90600261 -4 4 C-3.01 4 -2.02 4 -1 4 C-0.67 2.68 -0.34 1.36 0 0 Z " fill="#A5958B" transform="translate(177,190)"/>
<path d="M0 0 C2.68292289 1.34146144 2.87704062 2.69589996 4 5.4375 C5.14709767 8.22906973 5.84618666 9.84618666 8 12 C8.165 12.680625 8.33 13.36125 8.5 14.0625 C8.665 14.701875 8.83 15.34125 9 16 C9.66 16.33 10.32 16.66 11 17 C11.625 19.5625 11.625 19.5625 12 22 C12.66 22 13.32 22 14 22 C14 22.99 14 23.98 14 25 C12.0625 24.6875 12.0625 24.6875 10 24 C9.67 23.01 9.34 22.02 9 21 C8.38125 20.9175 7.7625 20.835 7.125 20.75 C5 20 5 20 3.375 16.6875 C2.92125 15.470625 2.4675 14.25375 2 13 C0.94479494 10.69173892 -0.01969956 8.97575439 -1.625 7 C-3 5 -3 5 -3 1 C-2.01 0.67 -1.02 0.34 0 0 Z " fill="#3FB098" transform="translate(207,257)"/>
<path d="M0 0 C1.32 0.33 2.64 0.66 4 1 C2.61888695 5.53794289 1.32080671 7.67919329 -2 11 C-2.99 11 -3.98 11 -5 11 C-4.67 11.99 -4.34 12.98 -4 14 C-4.4375 16.6875 -4.4375 16.6875 -5 19 C-7.66666667 19 -10.33333333 19 -13 19 C-12.67 17.35 -12.34 15.7 -12 14 C-11.34 14 -10.68 14 -10 14 C-10 13.01 -10 12.02 -10 11 C-9.34 11 -8.68 11 -8 11 C-7.67 10.01 -7.34 9.02 -7 8 C-6.34 8 -5.68 8 -5 8 C-4.67 6.35 -4.34 4.7 -4 3 C-2.68 2.67 -1.36 2.34 0 2 C0 1.34 0 0.68 0 0 Z " fill="#6A8CDE" transform="translate(215,186)"/>
<path d="M0 0 C0.66 0.33 1.32 0.66 2 1 C2.625 3.5625 2.625 3.5625 3 6 C3.33 6 3.66 6 4 6 C4.33 8.64 4.66 11.28 5 14 C4.34 14 3.68 14 3 14 C2.67 16.64 2.34 19.28 2 22 C1.01 21.67 0.02 21.34 -1 21 C-2.125 18 -2.125 18 -3 15 C-3.33 14.67 -3.66 14.34 -4 14 C-4.23880597 6.47761194 -4.23880597 6.47761194 -3 4 C-2.34 4 -1.68 4 -1 4 C-0.67 2.68 -0.34 1.36 0 0 Z " fill="#6EB981" transform="translate(182,218)"/>
<path d="M0 0 C0.99 0.66 1.98 1.32 3 2 C2.67 3.65 2.34 5.3 2 7 C-4.42468262 9.56987305 -9.36652305 8.55940688 -16 7 C-16.33 6.01 -16.66 5.02 -17 4 C-11.6414814 1.74378164 -7.89393279 0.76424269 -2 1 C-1.34 0.67 -0.68 0.34 0 0 Z " fill="#EBAD2A" transform="translate(139,200)"/>
<path d="M0 0 C0.33 0.66 0.66 1.32 1 2 C1.66 2.33 2.32 2.66 3 3 C1.02 3.99 1.02 3.99 -1 5 C-1 7.97 -1 10.94 -1 14 C-1.94875 14.45375 -2.8975 14.9075 -3.875 15.375 C-7.00313679 16.80238254 -7.00313679 16.80238254 -9 19 C-9 18.01 -9 17.02 -9 16 C-9.66 15.67 -10.32 15.34 -11 15 C-10.34 15 -9.68 15 -9 15 C-9.185625 14.05125 -9.37125 13.1025 -9.5625 12.125 C-10 9 -10 9 -9 7 C-8.34 7 -7.68 7 -7 7 C-6.67 6.01 -6.34 5.02 -6 4 C-4.06757953 2.37926025 -2.25484379 1.12742189 0 0 Z " fill="#7E95BB" transform="translate(201,185)"/>
<path d="M0 0 C2.4375 2.5 2.4375 2.5 4 5 C0.33193945 7.34755875 -2.74091456 7 -7 7 C-9.83378132 7.8974827 -9.83378132 7.8974827 -12 9 C-12 8.34 -12 7.68 -12 7 C-13.98 7 -15.96 7 -18 7 C-17.02797994 4.51080576 -16.4673666 3.2551003 -14.08203125 1.953125 C-9.31148912 0.47516014 -5.03090259 -0.78916119 0 0 Z " fill="#F2B61F" transform="translate(127,205)"/>
<path d="M0 0 C4.875 0.875 4.875 0.875 6 2 C6.144375 3.11375 6.28875 4.2275 6.4375 5.375 C6.75300217 9.08510547 6.75300217 9.08510547 9 12 C9.44429438 14.04869074 9.81294195 16.11454293 10.125 18.1875 C10.29257813 19.27417969 10.46015625 20.36085937 10.6328125 21.48046875 C10.81457031 22.72763672 10.81457031 22.72763672 11 24 C10.34 24 9.68 24 9 24 C7.76078698 21.02588876 6.69941596 18.14737182 6 15 C5.01 15 4.02 15 3 15 C1.08697693 11.73386305 0.64325339 9.00554752 0.375 5.25 C0.30023438 4.26515625 0.22546875 3.2803125 0.1484375 2.265625 C0.09945312 1.51796875 0.05046875 0.7703125 0 0 Z " fill="#63AE9B" transform="translate(183,214)"/>
<path d="M0 0 C2.49361571 1.20381448 4.68143083 2.45428722 7 4 C7 4.99 7 5.98 7 7 C7.99 7 8.98 7 10 7 C10 7.66 10 8.32 10 9 C10.66 9 11.32 9 12 9 C11.25 16.625 11.25 16.625 9 20 C8.71125 18.906875 8.4225 17.81375 8.125 16.6875 C7.18106796 12.95986155 7.18106796 12.95986155 5 10 C1.93443402 9.26656572 1.93443402 9.26656572 -1 9 C-1.125 2.25 -1.125 2.25 0 0 Z " fill="#2BB582" transform="translate(211,286)"/>
<path d="M0 0 C0.66 0.33 1.32 0.66 2 1 C2 1.66 2 2.32 2 3 C1.34 3 0.68 3 0 3 C0 3.99 0 4.98 0 6 C-0.99 6 -1.98 6 -3 6 C-3 6.99 -3 7.98 -3 9 C-8.34883721 14 -8.34883721 14 -11 14 C-11 14.99 -11 15.98 -11 17 C-11.99 17 -12.98 17 -14 17 C-14 17.66 -14 18.32 -14 19 C-14.66 19 -15.32 19 -16 19 C-16 19.66 -16 20.32 -16 21 C-16.66 21.33 -17.32 21.66 -18 22 C-18.33 22.99 -18.66 23.98 -19 25 C-20.32 25 -21.64 25 -23 25 C-23.33 24.01 -23.66 23.02 -24 22 C-23.195625 21.731875 -22.39125 21.46375 -21.5625 21.1875 C-20.716875 20.795625 -19.87125 20.40375 -19 20 C-18.67 19.01 -18.34 18.02 -18 17 C-15.9375 16.3125 -15.9375 16.3125 -14 16 C-14 15.34 -14 14.68 -14 14 C-13.34 13.67 -12.68 13.34 -12 13 C-11.67 12.01 -11.34 11.02 -11 10 C-9.66666667 9.33333333 -8.33333333 8.66666667 -7 8 C-5.98758315 6.67607028 -4.98560611 5.34400833 -4 4 C-3.34 4 -2.68 4 -2 4 C-1.34 2.68 -0.68 1.36 0 0 Z " fill="#CF6B7C" transform="translate(208,151)"/>
<path d="M0 0 C0.66 1.32 1.32 2.64 2 4 C1.34 4 0.68 4 0 4 C-0.33 4.99 -0.66 5.98 -1 7 C-1.66 7 -2.32 7 -3 7 C-2.896875 8.093125 -2.79375 9.18625 -2.6875 10.3125 C-3 14 -3 14 -5.25 16 C-8.13101837 17.04764304 -9.21309756 17.1354047 -12 16 C-10.74809374 11.51400257 -9.20614467 8.40652872 -6 5 C-5.34 5 -4.68 5 -4 5 C-3.67 4.01 -3.34 3.02 -3 2 C-2.01 1.34 -1.02 0.68 0 0 Z " fill="#CE7A72" transform="translate(184,174)"/>
<path d="M0 0 C0.33 0.66 0.66 1.32 1 2 C0.3503125 2.92232422 0.3503125 2.92232422 -0.3125 3.86328125 C-0.869375 4.67152344 -1.42625 5.47976562 -2 6.3125 C-2.556875 7.11300781 -3.11375 7.91351563 -3.6875 8.73828125 C-5.25095964 10.99663018 -5.25095964 10.99663018 -5 14 C-6.5 15.6875 -6.5 15.6875 -8 17 C-10.02045442 16.39816251 -12.02111039 15.72693904 -14 15 C-14.33 14.34 -14.66 13.68 -15 13 C-14.01 12.34 -13.02 11.68 -12 11 C-11.7525 10.175 -11.505 9.35 -11.25 8.5 C-10.8375 7.675 -10.425 6.85 -10 6 C-7.6859378 5.26924352 -5.35171131 4.59861742 -3 4 C-2.67 3.01 -2.34 2.02 -2 1 C-1.34 0.67 -0.68 0.34 0 0 Z " fill="#D4C337" transform="translate(146,211)"/>
<path d="M0 0 C3.875 0.875 3.875 0.875 5 2 C4.72057545 3.67654729 4.37668344 5.34259285 4 7 C3.814375 7.928125 3.62875 8.85625 3.4375 9.8125 C3.293125 10.534375 3.14875 11.25625 3 12 C1.35 11.67 -0.3 11.34 -2 11 C-2 11.66 -2 12.32 -2 13 C-3.98 13.33 -5.96 13.66 -8 14 C-7.67 11.36 -7.34 8.72 -7 6 C-6.21625 5.938125 -5.4325 5.87625 -4.625 5.8125 C-3.75875 5.544375 -2.8925 5.27625 -2 5 C-0.62533375 2.52363988 -0.62533375 2.52363988 0 0 Z " fill="#729BBE" transform="translate(200,195)"/>
<path d="M0 0 C4.875 4.75 4.875 4.75 6 7 C5.1875 9.5625 5.1875 9.5625 4 12 C3.01 12.495 3.01 12.495 2 13 C2 12.34 2 11.68 2 11 C0.35 11 -1.3 11 -3 11 C-3 10.34 -3 9.68 -3 9 C-4.32 8.34 -5.64 7.68 -7 7 C-5.54744301 3.17053157 -3.57104439 1.87949705 0 0 Z " fill="#DF983F" transform="translate(152,189)"/>
<path d="M0 0 C0.8971875 0.5259375 0.8971875 0.5259375 1.8125 1.0625 C1.8125 2.7125 1.8125 4.3625 1.8125 6.0625 C1.1525 6.0625 0.4925 6.0625 -0.1875 6.0625 C-0.5175 7.7125 -0.8475 9.3625 -1.1875 11.0625 C-2.8375 11.3925 -4.4875 11.7225 -6.1875 12.0625 C-7.89393007 8.29039143 -8.42525916 6.72572291 -7 2.75 C-4.88509973 -0.38588661 -3.66438317 -1.57044993 0 0 Z " fill="#B1A860" transform="translate(168.1875,198.9375)"/>
<path d="M0 0 C0.66 0 1.32 0 2 0 C1.67 1.65 1.34 3.3 1 5 C0.34 5 -0.32 5 -1 5 C-1 6.65 -1 8.3 -1 10 C-4.3 10.66 -7.6 11.32 -11 12 C-11 12.66 -11 13.32 -11 14 C-11.99 14.33 -12.98 14.66 -14 15 C-14.3125 12.25 -14.3125 12.25 -14 9 C-11.18465483 5.84340087 -9.5228714 5.07089782 -5.3125 4.5 C-4.219375 4.335 -3.12625 4.17 -2 4 C-0.48705712 2.06402968 -0.48705712 2.06402968 0 0 Z " fill="#9E87A8" transform="translate(198,180)"/>
<path d="M0 0 C0 3 0 3 -2.25 5.3125 C-3.1575 6.199375 -4.065 7.08625 -5 8 C-5.680625 9.051875 -6.36125 10.10375 -7.0625 11.1875 C-8.94943467 13.92659872 -9.84482336 15.08398098 -13 16 C-13.99 15.67 -14.98 15.34 -16 15 C-15.67 13.35 -15.34 11.7 -15 10 C-14.34 10 -13.68 10 -13 10 C-12.67 9.34 -12.34 8.68 -12 8 C-11.34 8 -10.68 8 -10 8 C-9.67 7.01 -9.34 6.02 -9 5 C-8.34 5 -7.68 5 -7 5 C-6.67 4.01 -6.34 3.02 -6 2 C-3.85412616 0.684787 -2.52986895 0 0 0 Z " fill="#D57965" transform="translate(180,176)"/>
<path d="M0 0 C0.99 0 1.98 0 3 0 C3.31563182 5.26053037 2.66590937 8.44573816 0 13 C-0.66 13 -1.32 13 -2 13 C-2.433125 14.2065625 -2.433125 14.2065625 -2.875 15.4375 C-4 18 -4 18 -6 19 C-7.06340773 15.80263986 -6.96582104 14.1018975 -5.6875 11 C-5.40648437 10.3090625 -5.12546875 9.618125 -4.8359375 8.90625 C-3.95601739 6.8997032 -3.04383494 4.92707989 -2 3 C-1.34 3 -0.68 3 0 3 C0 2.01 0 1.02 0 0 Z " fill="#8AA985" transform="translate(181,197)"/>
<path d="M0 0 C0.99 0 1.98 0 3 0 C3 1.65 3 3.3 3 5 C2.01 5.33 1.02 5.66 0 6 C-0.33 6.99 -0.66 7.98 -1 9 C-2.175625 9.0928125 -2.175625 9.0928125 -3.375 9.1875 C-4.24125 9.455625 -5.1075 9.72375 -6 10 C-6.72904086 11.64034193 -7.38655243 13.31301918 -8 15 C-11.31379552 18.95814465 -14.00189109 20.721414 -19 22 C-18 20 -17 18 -16 16 C-15.01 16 -14.02 16 -13 16 C-13 15.34 -13 14.68 -13 14 C-12.34 14 -11.68 14 -11 14 C-9.97967968 12.03783784 -9.97967968 12.03783784 -9.25 10.0625 C-8 8 -8 8 -5.5625 6.5625 C-2.59375122 4.75228733 -1.74558681 2.93575964 0 0 Z " fill="#B4769F" transform="translate(205,165)"/>
<path d="M0 0 C0.33 2.31 0.66 4.62 1 7 C0.01 7.495 0.01 7.495 -1 8 C-1.33 8.66 -1.66 9.32 -2 10 C-2.66666667 11.33333333 -3.33333333 12.66666667 -4 14 C-4.66 14 -5.32 14 -6 14 C-6 13.34 -6 12.68 -6 12 C-6.99 11.67 -7.98 11.34 -9 11 C-9.9375 9.1875 -9.9375 9.1875 -10 7 C-8.25 4.9375 -8.25 4.9375 -6 3 C-5.484375 2.4225 -4.96875 1.845 -4.4375 1.25 C-3 0 -3 0 0 0 Z " fill="#75A1AC" transform="translate(192,202)"/>
<path d="M0 0 C0.99 0.33 1.98 0.66 3 1 C1.84705882 10.88235294 1.84705882 10.88235294 1 13 C0.01 13.33 -0.98 13.66 -2 14 C-3.21869929 16.50447516 -3.21869929 16.50447516 -4 19 C-6 17 -6 17 -6.25 13.6875 C-6.01400074 10.20651098 -5.71991866 8.00985766 -4 5 C-1.875 3.6875 -1.875 3.6875 0 3 C0 2.01 0 1.02 0 0 Z " fill="#93B56B" transform="translate(173,205)"/>
<path d="M0 0 C2 2 2 2 2 5 C2.66 5 3.32 5 4 5 C4.40992188 5.78246094 4.81984375 6.56492188 5.2421875 7.37109375 C5.78101563 8.38300781 6.31984375 9.39492187 6.875 10.4375 C7.40867188 11.44683594 7.94234375 12.45617187 8.4921875 13.49609375 C9.75654114 16.10140442 9.75654114 16.10140442 12 17 C12 18.65 12 20.3 12 22 C11.01 22 10.02 22 9 22 C6.89229241 19.11165997 6 17.61537605 6 14 C5.34 14 4.68 14 4 14 C4 12.68 4 11.36 4 10 C3.01 10 2.02 10 1 10 C0.63883954 8.5225254 0.28624952 7.04295325 -0.0625 5.5625 C-0.25972656 4.73878906 -0.45695313 3.91507813 -0.66015625 3.06640625 C-0.82837891 2.04353516 -0.82837891 2.04353516 -1 1 C-0.67 0.67 -0.34 0.34 0 0 Z " fill="#50B09F" transform="translate(193,231)"/>
<path d="M0 0 C0.33 0 0.66 0 1 0 C1.185625 1.7015625 1.185625 1.7015625 1.375 3.4375 C1.684375 5.2009375 1.684375 5.2009375 2 7 C2.66 7.33 3.32 7.66 4 8 C4.8515625 10.06640625 4.8515625 10.06640625 5.625 12.5625 C6.01558594 13.80193359 6.01558594 13.80193359 6.4140625 15.06640625 C6.60742188 15.70449219 6.80078125 16.34257812 7 17 C6.34 17.66 5.68 18.32 5 19 C2.875 18.625 2.875 18.625 1 18 C0.855625 16.948125 0.71125 15.89625 0.5625 14.8125 C-0.03956899 10.73181015 -0.69580471 6.91258588 -2 3 C-1.34 2.01 -0.68 1.02 0 0 Z " fill="#4DB787" transform="translate(199,254)"/>
<path d="M0 0 C0.99 0.66 1.98 1.32 3 2 C1.71937515 3.7074998 0.38232443 5.37373596 -1 7 C-1.66 7 -2.32 7 -3 7 C-3 7.99 -3 8.98 -3 10 C-5.37072898 12.79407345 -7.63704165 14.55873214 -11 16 C-11.33 14.35 -11.66 12.7 -12 11 C-11.401875 10.566875 -10.80375 10.13375 -10.1875 9.6875 C-8.01024117 8.09318895 -8.01024117 8.09318895 -6.375 6.3125 C-5 5 -5 5 -3 5 C-2.690625 4.360625 -2.38125 3.72125 -2.0625 3.0625 C-1 1 -1 1 0 0 Z " fill="#828AC6" transform="translate(211,179)"/>
<path d="M0 0 C0.33 0.99 0.66 1.98 1 3 C-0.62339805 4.70884005 -2.29319053 6.37446717 -4 8 C-4.66 8 -5.32 8 -6 8 C-6 8.66 -6 9.32 -6 10 C-6.99 10.33 -7.98 10.66 -9 11 C-10.125 3.25 -10.125 3.25 -9 1 C-5.8035914 -0.06546953 -3.34252724 -0.07427838 0 0 Z " fill="#D0B03C" transform="translate(155,205)"/>
<path d="M0 0 C2.125 1.3125 2.125 1.3125 4 4 C3.75051478 7.76939621 2.93254694 11.34542416 2 15 C1.01 15.33 0.02 15.66 -1 16 C-1 15.01 -1 14.02 -1 13 C-1.66 12.67 -2.32 12.34 -3 12 C-3.43200679 7.24792529 -1.98489083 4.21789302 0 0 Z " fill="#89BD6D" transform="translate(171,217)"/>
<path d="M0 0 C3 1 3 1 3.9375 2.75 C4.03061906 6.10228611 2.09239392 7.47681909 0 10 C-0.78946609 12.68507329 -0.78946609 12.68507329 -1 15 C-1.66 15 -2.32 15 -3 15 C-3.5745952 11.26513121 -4 7.78706732 -4 4 C-3.01 4 -2.02 4 -1 4 C-0.67 2.68 -0.34 1.36 0 0 Z " fill="#B9C446" transform="translate(153,217)"/>
<path d="M0 0 C0.8353125 0.556875 0.8353125 0.556875 1.6875 1.125 C1.5 3.5 1.5 3.5 0.6875 6.125 C-1.625 7.5625 -1.625 7.5625 -4.3125 8.125 C-6.625 7.25 -6.625 7.25 -8.3125 6.125 C-8.125 3.75 -8.125 3.75 -7.3125 1.125 C-4.46142663 -0.64728885 -3.18589418 -1.20547347 0 0 Z " fill="#E1C430" transform="translate(134.3125,216.875)"/>
<path d="M0 0 C0.66 0 1.32 0 2 0 C2.84098656 4.01804691 3.05404945 7.01803543 2 11 C-0.66666667 11 -3.33333333 11 -6 11 C-5.67 9.35 -5.34 7.7 -5 6 C-4.34 6 -3.68 6 -3 6 C-3 5.01 -3 4.02 -3 3 C-2.34 3 -1.68 3 -1 3 C-0.67 2.01 -0.34 1.02 0 0 Z " fill="#6494D8" transform="translate(208,194)"/>
<path d="M0 0 C1.65 0.99 3.3 1.98 5 3 C4.67 3.99 4.34 4.98 4 6 C3.01 6.33 2.02 6.66 1 7 C-0.70586575 8.62652316 -2.3777546 10.29006566 -4 12 C-5.07723233 8.768303 -5.1735237 8.06921583 -4 5 C-2.71937515 3.2925002 -1.3927289 1.61736259 0 0 Z " fill="#DE725C" transform="translate(173,172)"/>
<path d="M0 0 C1.02977875 4.76272672 1.39511469 7.65885463 -1 12 C-2.33333333 12 -3.66666667 12 -5 12 C-5.22174933 10.54364629 -5.42698698 9.08477044 -5.625 7.625 C-5.74101562 6.81289062 -5.85703125 6.00078125 -5.9765625 5.1640625 C-5.98429688 4.44992188 -5.99203125 3.73578125 -6 3 C-4.1132732 1.1132732 -2.83087714 0 0 0 Z " fill="#64A5B0" transform="translate(194,209)"/>
<path d="M0 0 C0 0.66 0 1.32 0 2 C-0.66 2 -1.32 2 -2 2 C-2 3.32 -2 4.64 -2 6 C-2.804375 6.268125 -3.60875 6.53625 -4.4375 6.8125 C-5.283125 7.204375 -6.12875 7.59625 -7 8 C-7.33 8.99 -7.66 9.98 -8 11 C-8.99 11.33 -9.98 11.66 -11 12 C-11.66 11.67 -12.32 11.34 -13 11 C-13 10.01 -13 9.02 -13 8 C-12.01 8 -11.02 8 -10 8 C-10 7.34 -10 6.68 -10 6 C-8.625 4.375 -8.625 4.375 -7 3 C-6.34 3 -5.68 3 -5 3 C-4.67 2.34 -4.34 1.68 -4 1 C-2 0 -2 0 0 0 Z " fill="#D86C6C" transform="translate(191,165)"/>
<path d="M0 0 C0.66 0.33 1.32 0.66 2 1 C2.625 3.5625 2.625 3.5625 3 6 C3.33 6 3.66 6 4 6 C4.33 8.64 4.66 11.28 5 14 C4.01 14.33 3.02 14.66 2 15 C1.67 14.01 1.34 13.02 1 12 C0.34 11.67 -0.32 11.34 -1 11 C-1.73075648 8.6859378 -2.40138258 6.35171131 -3 4 C-2.34 4 -1.68 4 -1 4 C-0.67 2.68 -0.34 1.36 0 0 Z " fill="#6BB38C" transform="translate(182,218)"/>
<path d="M0 0 C1.32 0.33 2.64 0.66 4 1 C4 1.99 4 2.98 4 4 C2.02 4.99 2.02 4.99 0 6 C0.33 6.99 0.66 7.98 1 9 C0.195625 9.12375 -0.60875 9.2475 -1.4375 9.375 C-2.283125 9.58125 -3.12875 9.7875 -4 10 C-4.33 10.66 -4.66 11.32 -5 12 C-5.66 12 -6.32 12 -7 12 C-6.690625 11.236875 -6.38125 10.47375 -6.0625 9.6875 C-5.32106407 7.81210323 -4.63771783 5.91315348 -4 4 C-3.01 4 -2.02 4 -1 4 C-0.67 2.68 -0.34 1.36 0 0 Z " fill="#B09679" transform="translate(177,190)"/>
<path d="M0 0 C1.875 0.9375 1.875 0.9375 4 3 C4.69507819 5.23781271 5.12464784 7.43537626 5.5078125 9.74609375 C5.90984057 12.05446203 5.90984057 12.05446203 7.1171875 14.16015625 C7.40851563 14.76730469 7.69984375 15.37445313 8 16 C7.67 16.66 7.34 17.32 7 18 C6.34 18 5.68 18 5 18 C4.67 16.35 4.34 14.7 4 13 C3.34 13 2.68 13 2 13 C1.690625 11.906875 1.38125 10.81375 1.0625 9.6875 C0.41662103 7.44592006 -0.2623117 5.2130649 -1 3 C-0.67 2.01 -0.34 1.02 0 0 Z " fill="#5AABA7" transform="translate(190,218)"/>
<path d="M0 0 C0.99 0.33 1.98 0.66 3 1 C4 7.75 4 7.75 4 10 C3.01 10.495 3.01 10.495 2 11 C1.01 12.485 1.01 12.485 0 14 C-2.23150482 9.66825536 -1.97917594 6.71784771 -1 2 C-0.67 1.34 -0.34 0.68 0 0 Z " fill="#7BAD8D" transform="translate(180,208)"/>
<path d="M0 0 C1.98 0 3.96 0 6 0 C5.4 5.4 5.4 5.4 3.75 7.875 C1.41786614 9.37422891 -0.28371825 9.22023906 -3 9 C-2.30058404 5.85262818 -1.23921302 2.97411124 0 0 Z " fill="#CD9F4C" transform="translate(157,196)"/>
<path d="M0 0 C0.99 0.33 1.98 0.66 3 1 C3 1.66 3 2.32 3 3 C2.34 3 1.68 3 1 3 C0.67 4.98 0.34 6.96 0 9 C-0.804375 9.12375 -1.60875 9.2475 -2.4375 9.375 C-3.283125 9.58125 -4.12875 9.7875 -5 10 C-5.33 10.66 -5.66 11.32 -6 12 C-7 11 -7 11 -7.0625 8.4375 C-7.041875 7.633125 -7.02125 6.82875 -7 6 C-6.01 5.67 -5.02 5.34 -4 5 C-4 4.34 -4 3.68 -4 3 C-2.68 2.67 -1.36 2.34 0 2 C0 1.34 0 0.68 0 0 Z " fill="#9494A1" transform="translate(191,189)"/>
<path d="M0 0 C-0.99 0.33 -1.98 0.66 -3 1 C-3 1.99 -3 2.98 -3 4 C-3.99 4 -4.98 4 -6 4 C-6 4.66 -6 5.32 -6 6 C-6.66 6 -7.32 6 -8 6 C-8.33 6.99 -8.66 7.98 -9 9 C-9.66 9 -10.32 9 -11 9 C-11 9.99 -11 10.98 -11 12 C-11.99 12 -12.98 12 -14 12 C-14 12.66 -14 13.32 -14 14 C-14.66 14 -15.32 14 -16 14 C-15.1875 11.5625 -15.1875 11.5625 -14 9 C-13.01 8.67 -12.02 8.34 -11 8 C-11 7.34 -11 6.68 -11 6 C-10.34 6 -9.68 6 -9 6 C-8.7525 5.21625 -8.505 4.4325 -8.25 3.625 C-7 1 -7 1 -5.0625 -0.375 C-3 -1 -3 -1 0 0 Z " fill="#8584D0" transform="translate(240,156)"/>
<path d="M0 0 C0.33 0.66 0.66 1.32 1 2 C1.66 2.33 2.32 2.66 3 3 C2.38125 3.2475 1.7625 3.495 1.125 3.75 C-1.38710296 5.22770762 -1.76107344 6.43955177 -3 9 C-3.99 9.33 -4.98 9.66 -6 10 C-6.33 10.66 -6.66 11.32 -7 12 C-7.99 11.67 -8.98 11.34 -10 11 C-9.67 9.68 -9.34 8.36 -9 7 C-8.34 7 -7.68 7 -7 7 C-6.67 6.01 -6.34 5.02 -6 4 C-4.06757953 2.37926025 -2.25484379 1.12742189 0 0 Z " fill="#8C8FB5" transform="translate(201,185)"/>
<path d="M0 0 C1 3 1 3 0.25 5.5 C-0.96911926 7.93823853 -1.85364876 9.34896059 -4 11 C-6.1875 11.6875 -6.1875 11.6875 -8 12 C-8.6875 10.25 -8.6875 10.25 -9 8 C-7.5625 5.8125 -7.5625 5.8125 -6 4 C-6 3.67 -6 3.34 -6 3 C-5.195625 2.87625 -4.39125 2.7525 -3.5625 2.625 C-2.716875 2.41875 -1.87125 2.2125 -1 2 C-0.67 1.34 -0.34 0.68 0 0 Z " fill="#768ED2" transform="translate(211,186)"/>
<path d="M0 0 C1.20628008 2.33214148 2.1654738 4.49642139 3 7 C2.67 7.66 2.34 8.32 2 9 C1.01 9 0.02 9 -1 9 C-1.33 9.66 -1.66 10.32 -2 11 C-2.66 11 -3.32 11 -4 11 C-4 8.69 -4 6.38 -4 4 C-2.68 3.34 -1.36 2.68 0 2 C0 1.34 0 0.68 0 0 Z " fill="#639FC0" transform="translate(198,204)"/>
<path d="M0 0 C0.99 0.33 1.98 0.66 3 1 C2.67 2.32 2.34 3.64 2 5 C1.34 5 0.68 5 0 5 C0 5.99 0 6.98 0 8 C-0.99 8 -1.98 8 -3 8 C-3.33 8.66 -3.66 9.32 -4 10 C-4.66 9.67 -5.32 9.34 -6 9 C-5.38722388 6.03824877 -4.74627478 4.61941217 -3 2 C-2.01 2 -1.02 2 0 2 C0 1.34 0 0.68 0 0 Z " fill="#B7B54F" transform="translate(160,208)"/>
<path d="M0 0 C4 1 4 1 5 2 C4.72057545 3.67654729 4.37668344 5.34259285 4 7 C3.814375 7.928125 3.62875 8.85625 3.4375 9.8125 C3.293125 10.534375 3.14875 11.25625 3 12 C1.68 11.67 0.36 11.34 -1 11 C-0.67 7.37 -0.34 3.74 0 0 Z " fill="#6B98CB" transform="translate(200,195)"/>
<path d="M0 0 C0 1.32 0 2.64 0 4 C-0.99 4 -1.98 4 -3 4 C-3.33 5.98 -3.66 7.96 -4 10 C-5.65 9.67 -7.3 9.34 -9 9 C-8.67 7.68 -8.34 6.36 -8 5 C-7.34 5 -6.68 5 -6 5 C-5.896875 4.360625 -5.79375 3.72125 -5.6875 3.0625 C-5.460625 2.381875 -5.23375 1.70125 -5 1 C-2 0 -2 0 0 0 Z " fill="#BC946B" transform="translate(176,190)"/>
<path d="M0 0 C0.99 0.99 1.98 1.98 3 3 C1.71034824 4.37562854 0.37310707 5.70766393 -1 7 C-1.66 7 -2.32 7 -3 7 C-2.67 7.99 -2.34 8.98 -2 10 C-3.32 9.67 -4.64 9.34 -6 9 C-5.50233954 5.31731261 -4.93714041 3.34971233 -2 1 C-1.34 0.67 -0.68 0.34 0 0 Z " fill="#BCA25B" transform="translate(166,198)"/>
<path d="M0 0 C0 0.99 0 1.98 0 3 C-0.99 3.495 -0.99 3.495 -2 4 C-2.33 4.99 -2.66 5.98 -3 7 C-3.66 7 -4.32 7 -5 7 C-5 7.66 -5 8.32 -5 9 C-5.99 9.33 -6.98 9.66 -8 10 C-8.3125 7.25 -8.3125 7.25 -8 4 C-5.23478237 1.16004675 -4.0129782 0 0 0 Z " fill="#A58D97" transform="translate(192,185)"/>
<path d="M0 0 C1.32 0.33 2.64 0.66 4 1 C3.75 3.375 3.75 3.375 3 6 C1.125 7.375 1.125 7.375 -1 8 C-1.99 7.67 -2.98 7.34 -4 7 C-3.67 5.35 -3.34 3.7 -3 2 C-2.34 2 -1.68 2 -1 2 C-0.67 1.34 -0.34 0.68 0 0 Z " fill="#D3855E" transform="translate(168,184)"/>
<path d="M0 0 C0.66 0.66 1.32 1.32 2 2 C-4.92938497 10.81548975 -4.92938497 10.81548975 -11 12 C-10 10 -9 8 -8 6 C-7.01 6 -6.02 6 -5 6 C-5 5.34 -5 4.68 -5 4 C-4.34 4 -3.68 4 -3 4 C-2.67 3.34 -2.34 2.68 -2 2 C-1.34 1.34 -0.68 0.68 0 0 Z " fill="#B18398" transform="translate(197,175)"/>
<path d="M0 0 C2.56616632 3.84924948 2.55097676 6.4349304 3 11 C2.01 11 1.02 11 0 11 C0 10.34 0 9.68 0 9 C-0.99 8.67 -1.98 8.34 -3 8 C-3.9375 6.1875 -3.9375 6.1875 -4 4 C-2.0625 1.75 -2.0625 1.75 0 0 Z " fill="#76A69F" transform="translate(186,205)"/>
<path d="M0 0 C0.93423645 3.01031744 1.04449911 3.86650268 0 7 C-2.33116317 8.60769874 -3.42816426 9.09530596 -6.25 8.625 C-6.8275 8.41875 -7.405 8.2125 -8 8 C-7.34 6.68 -6.68 5.36 -6 4 C-4.68 4 -3.36 4 -2 4 C-2 3.01 -2 2.02 -2 1 C-1.34 0.67 -0.68 0.34 0 0 Z " fill="#C58774" transform="translate(180,182)"/>
<path d="M0 0 C0.99 0.33 1.98 0.66 3 1 C2.67 3.64 2.34 6.28 2 9 C0.35 9.33 -1.3 9.66 -3 10 C-3.125 5.25 -3.125 5.25 -2 3 C-1.34 3 -0.68 3 0 3 C0 2.01 0 1.02 0 0 Z " fill="#95AD75" transform="translate(173,205)"/>
<path d="M0 0 C1.65 0.33 3.3 0.66 5 1 C4.67 2.65 4.34 4.3 4 6 C3.01 6 2.02 6 1 6 C0.67 6.99 0.34 7.98 0 9 C-0.99 8.01 -1.98 7.02 -3 6 C-2 4 -1 2 0 0 Z " fill="#C3AD4B" transform="translate(156,204)"/>
<path d="M0 0 C0.99 0 1.98 0 3 0 C3.1875 3.375 3.1875 3.375 3 7 C2.01 7.66 1.02 8.32 0 9 C-1.32 8.34 -2.64 7.68 -4 7 C-3.34 5.68 -2.68 4.36 -2 3 C-1.34 3 -0.68 3 0 3 C0 2.01 0 1.02 0 0 Z " fill="#929F8E" transform="translate(181,197)"/>
<path d="M0 0 C0.66 0.66 1.32 1.32 2 2 C1.9375 4.5 1.9375 4.5 1 7 C-1.5625 8.3125 -1.5625 8.3125 -4 9 C-4.99 8.01 -5.98 7.02 -7 6 C-4.80090595 3.80090595 -2.43929746 1.92576115 0 0 Z " fill="#D4904E" transform="translate(164,188)"/>
<path d="M0 0 C0.66 0.33 1.32 0.66 2 1 C2.125 6.75 2.125 6.75 1 9 C0.01 9 -0.98 9 -2 9 C-2.33 9.66 -2.66 10.32 -3 11 C-3 8.69 -3 6.38 -3 4 C-2.34 4 -1.68 4 -1 4 C-0.67 2.68 -0.34 1.36 0 0 Z " fill="#A4A96D" transform="translate(171,201)"/>
<path d="M0 0 C0.66 0.33 1.32 0.66 2 1 C1.6189482 3.76262553 1.16402868 4.84143894 -0.875 6.8125 C-1.57625 7.204375 -2.2775 7.59625 -3 8 C-3.99 7.67 -4.98 7.34 -6 7 C-4.41891892 2.25675676 -4.41891892 2.25675676 -2.0625 0.8125 C-1.381875 0.544375 -0.70125 0.27625 0 0 Z " fill="#B78A84" transform="translate(184,184)"/>
<path d="M0 0 C0.66 0.33 1.32 0.66 2 1 C1.67 2.65 1.34 4.3 1 6 C-0.32 6.33 -1.64 6.66 -3 7 C-3 7.66 -3 8.32 -3 9 C-3.99 9 -4.98 9 -6 9 C-5.33333333 7.66666667 -4.66666667 6.33333333 -4 5 C-3.67 4.278125 -3.34 3.55625 -3 2.8125 C-2 1 -2 1 0 0 Z " fill="#BC7B8E" transform="translate(195,172)"/>
<path d="M0 0 C0 1.65 0 3.3 0 5 C-1.875 6.0625 -1.875 6.0625 -4 7 C-4.66 6.67 -5.32 6.34 -6 6 C-6 4.35 -6 2.7 -6 1 C-4 0 -4 0 0 0 Z " fill="#A1A07E" transform="translate(179,199)"/>
<path d="M0 0 C2.15377564 2.62198774 3.40072174 4.64404172 4 8 C2.68 8.33 1.36 8.66 0 9 C0 9.66 0 10.32 0 11 C-0.66 10.67 -1.32 10.34 -2 10 C-1.33333333 8 -0.66666667 6 0 4 C0 2.68 0 1.36 0 0 Z " fill="#CE738B" transform="translate(224,130)"/>
<path d="M0 0 C0.33 0.99 0.66 1.98 1 3 C0.01 3.33 -0.98 3.66 -2 4 C-2 4.66 -2 5.32 -2 6 C-2.66 6 -3.32 6 -4 6 C-4.33 6.66 -4.66 7.32 -5 8 C-5.66 8 -6.32 8 -7 8 C-7 7.34 -7 6.68 -7 6 C-6.34 6 -5.68 6 -5 6 C-4.9175 5.38125 -4.835 4.7625 -4.75 4.125 C-4 2 -4 2 -1.9375 0.75 C-1.298125 0.5025 -0.65875 0.255 0 0 Z " fill="#D76476" transform="translate(196,161)"/>
<path d="M0 0 C2 0 2 0 4.1875 1.6875 C6 4 6 4 5.75 6.75 C5.5025 7.4925 5.255 8.235 5 9 C4.67 7.68 4.34 6.36 4 5 C3.34 5 2.68 5 2 5 C2 4.34 2 3.68 2 3 C1.01 3 0.02 3 -1 3 C-0.67 2.01 -0.34 1.02 0 0 Z " fill="#3BB78F" transform="translate(219,290)"/>
<path d="M0 0 C0.99 1.32 1.98 2.64 3 4 C2.01 5.485 2.01 5.485 1 7 C0.01 7 -0.98 7 -2 7 C-2.33 7.66 -2.66 8.32 -3 9 C-2.67 7.35 -2.34 5.7 -2 4 C-1.34 4 -0.68 4 0 4 C0 2.68 0 1.36 0 0 Z " fill="#B27DA8" transform="translate(229,140)"/>
<path d="M0 0 C-1.17255709 3.33727786 -2.18868404 5.77437487 -5 8 C-5.66 8 -6.32 8 -7 8 C-4.18918919 0 -4.18918919 0 0 0 Z " fill="#B077A5" transform="translate(226,149)"/>
<path d="M0 0 C1.32 0 2.64 0 4 0 C3.67 1.32 3.34 2.64 3 4 C1.68 4.33 0.36 4.66 -1 5 C-0.67 3.35 -0.34 1.7 0 0 Z " fill="#A47BAE" transform="translate(201,176)"/>
</svg>
