<?xml version="1.0" encoding="UTF-8"?>
<svg version="1.1" xmlns="http://www.w3.org/2000/svg" width="293" height="293">
<path d="M0 0 C0.70382813 0.2376709 1.40765625 0.4753418 2.1328125 0.72021484 C33.7575577 11.60945483 58.98050548 31.99829557 77.83496094 59.32177734 C78.84381181 60.77501308 79.87680995 62.21142925 80.9140625 63.64453125 C90.87320092 78.08300818 95.84090768 96.14254314 100 113 C100.18336914 113.72429199 100.36673828 114.44858398 100.55566406 115.19482422 C101.19269212 119.21650132 101.20328318 123.19523842 101.23828125 127.26171875 C101.246353 128.16638382 101.25442474 129.07104889 101.26274109 130.00312805 C101.27655443 131.92206934 101.28728885 133.84103492 101.29516602 135.76000977 C101.30658464 137.68847042 101.32687179 139.61690208 101.35668945 141.54516602 C101.61562762 158.3240701 99.46087872 173.44595003 93.6875 189.25 C93.38900146 190.08080078 93.09050293 190.91160156 92.78295898 191.76757812 C83.02183765 218.27484341 63.88558974 244.417357 40 260 C38.78659762 260.83685817 37.57442467 261.67550087 36.36328125 262.515625 C21.21989031 272.83281124 4.82769374 279.75658496 -13 284 C-13.733396 284.18546387 -14.46679199 284.37092773 -15.22241211 284.56201172 C-23.98941885 286.48733537 -32.85342287 286.37218119 -41.78540039 286.37060547 C-44.53270722 286.37495286 -47.27836927 286.41129483 -50.02539062 286.44921875 C-61.87841705 286.52489054 -72.5738955 285.12834184 -84 282 C-85.40149292 281.62270752 -85.40149292 281.62270752 -86.83129883 281.23779297 C-88.95314106 280.62962306 -91.03788734 279.96742055 -93.125 279.25 C-93.855979 279.0017749 -94.58695801 278.7535498 -95.34008789 278.49780273 C-124.57398578 268.19237327 -151.0876472 246.9171402 -168 221 C-168.64839844 220.02417969 -169.29679687 219.04835937 -169.96484375 218.04296875 C-181.26939026 200.4460643 -188.90845103 179.8611638 -191 159 C-191.10957031 157.948125 -191.21914062 156.89625 -191.33203125 155.8125 C-191.62686511 152.54180973 -191.83562171 149.27973819 -192 146 C-192.05414063 144.98164063 -192.10828125 143.96328125 -192.1640625 142.9140625 C-193.00403958 111.37674129 -183.50663075 78.93885703 -164 54 C-163.08322467 52.70841045 -162.16655167 51.41674827 -161.25 50.125 C-152.69285278 38.80073181 -142.09621457 27.46362175 -130 20 C-128.53929742 19.02437126 -127.08118131 18.04486422 -125.625 17.0625 C-124.09052129 16.03089353 -122.54756492 15.01186937 -121 14 C-120.41653809 13.61497314 -119.83307617 13.22994629 -119.23193359 12.83325195 C-85.16654119 -9.14266083 -37.97121093 -12.8468096 0 0 Z " fill="#009587" transform="translate(192,7)"/>
<path d="M0 0 C0.33 0 0.66 0 1 0 C1 30.36 1 60.72 1 92 C17.17 92 33.34 92 50 92 C48.52666299 95.68334252 46.99990989 99.12173535 45.22937012 102.65478516 C44.66576279 103.78192932 44.10215546 104.90907349 43.52146912 106.07037354 C42.89911242 107.30995362 42.27672049 108.54951602 41.65429688 109.7890625 C40.99697873 111.10177854 40.33984331 112.41458608 39.68287659 113.72747803 C38.27024417 116.54958663 36.85637207 119.37106938 35.44154358 122.19207764 C33.20390865 126.65380832 30.96933783 131.11706906 28.73522949 135.58056641 C23.58924191 145.86050497 18.43924702 156.13843465 13.28922272 166.41635132 C8.56851853 175.8375757 3.84866162 185.25922197 -0.86795568 194.68249321 C-3.08845957 199.1185214 -5.31091019 203.55356707 -7.5348587 207.98786926 C-8.918321 210.74732922 -10.30012159 213.50761877 -11.68147469 216.26813507 C-12.32172485 217.546765 -12.96266585 218.82504928 -13.60435295 220.10295868 C-14.48121354 221.84944736 -15.3553576 223.59729913 -16.22937012 225.34521484 C-16.71900993 226.32227386 -17.20864975 227.29933289 -17.71312714 228.30599976 C-18.92207234 230.83686256 -19.99213248 233.38344106 -21 236 C-21.33 236 -21.66 236 -22 236 C-22 205.64 -22 175.28 -22 144 C-38.83 144 -55.66 144 -73 144 C-63.89742239 124.65702258 -63.89742239 124.65702258 -60.22265625 117.8515625 C-59.36876625 116.24835363 -58.51611815 114.64448284 -57.66455078 113.04003906 C-57.22927063 112.22007446 -56.79399048 111.40010986 -56.34552002 110.55529785 C-53.98109196 106.06497599 -51.67594134 101.54455615 -49.37109375 97.0234375 C-48.89222717 96.0842749 -48.4133606 95.1451123 -47.91998291 94.17749023 C-46.93262098 92.23973763 -45.9456473 90.30178715 -44.95904541 88.36364746 C-42.33641759 83.21223369 -39.7091141 78.06320537 -37.08203125 72.9140625 C-36.56139099 71.89344727 -36.04075073 70.87283203 -35.5043335 69.82128906 C-30.89517714 60.7886141 -26.26876831 51.76492675 -21.625 42.75 C-21.28045776 42.08087585 -20.93591553 41.41175171 -20.58093262 40.72235107 C-16.12485162 32.07198318 -11.64327594 23.43529862 -7.03955078 14.86230469 C-4.4524207 10.00770837 -2.17824994 5.05067547 0 0 Z " fill="#000101" transform="translate(161,29)"/>
</svg>
