<?xml version="1.0" encoding="UTF-8"?>
<svg version="1.1" xmlns="http://www.w3.org/2000/svg" width="931" height="932">
<path d="M0 0 C1.44907141 -0.00067623 2.89814271 -0.00164889 4.34721375 -0.00289917 C7.36682223 -0.00436256 10.38640088 -0.0022667 13.40600586 0.00244141 C17.23131104 0.00812235 21.05654576 0.0048613 24.88184834 -0.00113106 C27.87028002 -0.00478692 30.85869568 -0.00357507 33.84712791 -0.00100327 C35.25539344 -0.000347 36.66366052 -0.00111559 38.07192421 -0.00348282 C47.61790137 -0.01600903 57.2005285 0.08537207 66.69921875 1.1328125 C67.02921875 1.4628125 67.35921875 1.7928125 67.69921875 2.1328125 C70.02907998 2.34250001 72.36365911 2.50096639 74.69921875 2.6328125 C81.58810764 3.02170139 81.58810764 3.02170139 82.69921875 4.1328125 C84.86218148 4.34213147 87.03016585 4.50078319 89.19921875 4.6328125 C95.58810764 5.02170139 95.58810764 5.02170139 96.69921875 6.1328125 C98.36784301 6.47744413 100.04767646 6.76815819 101.73046875 7.03515625 C102.76945313 7.20337891 103.8084375 7.37160156 104.87890625 7.54492188 C106.52246094 7.80499023 106.52246094 7.80499023 108.19921875 8.0703125 C128.66223399 11.32804434 128.66223399 11.32804434 135.38671875 14.6953125 C139.17952637 16.50648468 142.45598625 17.78876662 146.69921875 18.1328125 C146.69921875 18.7928125 146.69921875 19.4528125 146.69921875 20.1328125 C149.00921875 20.1328125 151.31921875 20.1328125 153.69921875 20.1328125 C153.69921875 20.7928125 153.69921875 21.4528125 153.69921875 22.1328125 C154.75109375 22.0915625 155.80296875 22.0503125 156.88671875 22.0078125 C160.56600307 22.12844477 162.4152308 22.65501792 165.69921875 24.1328125 C169.34563391 25.22033983 172.99899393 26.24475854 176.69921875 27.1328125 C176.69921875 27.7928125 176.69921875 28.4528125 176.69921875 29.1328125 C177.58609375 29.0915625 178.47296875 29.0503125 179.38671875 29.0078125 C182.67198888 29.13178496 184.7537117 29.74669154 187.69921875 31.1328125 C187.69921875 31.7928125 187.69921875 32.4528125 187.69921875 33.1328125 C189.01921875 33.1328125 190.33921875 33.1328125 191.69921875 33.1328125 C191.69921875 33.7928125 191.69921875 34.4528125 191.69921875 35.1328125 C192.62734375 35.2153125 193.55546875 35.2978125 194.51171875 35.3828125 C201.20267037 36.32500773 207.73535515 39.01819521 213.69921875 42.1328125 C213.69921875 42.7928125 213.69921875 43.4528125 213.69921875 44.1328125 C215.01921875 44.1328125 216.33921875 44.1328125 217.69921875 44.1328125 C217.69921875 44.7928125 217.69921875 45.4528125 217.69921875 46.1328125 C219.06046875 46.16375 219.06046875 46.16375 220.44921875 46.1953125 C226.54008157 47.03713907 231.57432678 50.96723297 236.69921875 54.1328125 C238.00777898 54.86902606 239.31948811 55.59972681 240.63671875 56.3203125 C243.56118693 58.0511202 246.05888769 60.00587915 248.69921875 62.1328125 C249.68921875 62.4628125 250.67921875 62.7928125 251.69921875 63.1328125 C251.69921875 63.7928125 251.69921875 64.4528125 251.69921875 65.1328125 C253.01921875 65.1328125 254.33921875 65.1328125 255.69921875 65.1328125 C255.69921875 65.7928125 255.69921875 66.4528125 255.69921875 67.1328125 C256.21484375 67.2153125 256.73046875 67.2978125 257.26171875 67.3828125 C260.74377607 68.45421475 263.5712276 70.26804855 266.69921875 72.1328125 C266.69921875 72.7928125 266.69921875 73.4528125 266.69921875 74.1328125 C268.01921875 74.1328125 269.33921875 74.1328125 270.69921875 74.1328125 C270.69921875 74.7928125 270.69921875 75.4528125 270.69921875 76.1328125 C271.59640625 76.349375 271.59640625 76.349375 272.51171875 76.5703125 C274.26072279 77.0200564 275.98598898 77.56173591 277.69921875 78.1328125 C277.69921875 78.7928125 277.69921875 79.4528125 277.69921875 80.1328125 C278.35921875 80.1328125 279.01921875 80.1328125 279.69921875 80.1328125 C279.69921875 80.7928125 279.69921875 81.4528125 279.69921875 82.1328125 C280.26125 82.23722656 280.82328125 82.34164062 281.40234375 82.44921875 C284.12302346 83.25894485 286.09179682 84.49484588 288.44921875 86.0703125 C289.64804688 86.85728516 289.64804688 86.85728516 290.87109375 87.66015625 C291.474375 88.14613281 292.07765625 88.63210937 292.69921875 89.1328125 C292.69921875 89.7928125 292.69921875 90.4528125 292.69921875 91.1328125 C293.62734375 91.349375 293.62734375 91.349375 294.57421875 91.5703125 C296.69921875 92.1328125 296.69921875 92.1328125 298.69921875 93.1328125 C298.69921875 93.7928125 298.69921875 94.4528125 298.69921875 95.1328125 C301.17421875 96.1228125 301.17421875 96.1228125 303.69921875 97.1328125 C303.69921875 97.7928125 303.69921875 98.4528125 303.69921875 99.1328125 C304.56546875 99.535 304.56546875 99.535 305.44921875 99.9453125 C307.75471918 101.16210439 309.71978067 102.43615129 311.69921875 104.1328125 C311.69921875 104.7928125 311.69921875 105.4528125 311.69921875 106.1328125 C312.59640625 106.5659375 312.59640625 106.5659375 313.51171875 107.0078125 C315.69921875 108.1328125 315.69921875 108.1328125 318.69921875 110.1328125 C318.69921875 110.7928125 318.69921875 111.4528125 318.69921875 112.1328125 C319.35921875 112.1328125 320.01921875 112.1328125 320.69921875 112.1328125 C320.69921875 112.7928125 320.69921875 113.4528125 320.69921875 114.1328125 C322.01921875 114.4628125 323.33921875 114.7928125 324.69921875 115.1328125 C324.69921875 115.7928125 324.69921875 116.4528125 324.69921875 117.1328125 C325.35921875 117.1328125 326.01921875 117.1328125 326.69921875 117.1328125 C326.69921875 117.7928125 326.69921875 118.4528125 326.69921875 119.1328125 C327.68921875 119.1328125 328.67921875 119.1328125 329.69921875 119.1328125 C329.69921875 119.7928125 329.69921875 120.4528125 329.69921875 121.1328125 C330.35921875 121.1328125 331.01921875 121.1328125 331.69921875 121.1328125 C331.69921875 121.7928125 331.69921875 122.4528125 331.69921875 123.1328125 C333.01921875 123.7928125 334.33921875 124.4528125 335.69921875 125.1328125 C335.69921875 125.7928125 335.69921875 126.4528125 335.69921875 127.1328125 C336.35921875 127.1328125 337.01921875 127.1328125 337.69921875 127.1328125 C337.69921875 127.7928125 337.69921875 128.4528125 337.69921875 129.1328125 C339.01921875 129.4628125 340.33921875 129.7928125 341.69921875 130.1328125 C341.69921875 130.7928125 341.69921875 131.4528125 341.69921875 132.1328125 C343.01921875 132.7928125 344.33921875 133.4528125 345.69921875 134.1328125 C345.69921875 134.7928125 345.69921875 135.4528125 345.69921875 136.1328125 C347.01921875 136.7928125 348.33921875 137.4528125 349.69921875 138.1328125 C349.69921875 138.7928125 349.69921875 139.4528125 349.69921875 140.1328125 C350.35921875 140.1328125 351.01921875 140.1328125 351.69921875 140.1328125 C352.02921875 141.4528125 352.35921875 142.7728125 352.69921875 144.1328125 C354.01921875 144.4628125 355.33921875 144.7928125 356.69921875 145.1328125 C356.69921875 145.7928125 356.69921875 146.4528125 356.69921875 147.1328125 C357.35921875 147.1328125 358.01921875 147.1328125 358.69921875 147.1328125 C358.69921875 147.7928125 358.69921875 148.4528125 358.69921875 149.1328125 C359.35921875 149.1328125 360.01921875 149.1328125 360.69921875 149.1328125 C361.92952601 150.7316316 363.08562038 152.38811835 364.19921875 154.0703125 C366.40900053 157.70051936 366.40900053 157.70051936 369.69921875 160.1328125 C369.69921875 160.7928125 369.69921875 161.4528125 369.69921875 162.1328125 C370.35921875 162.1328125 371.01921875 162.1328125 371.69921875 162.1328125 C371.69921875 162.7928125 371.69921875 163.4528125 371.69921875 164.1328125 C372.35921875 164.1328125 373.01921875 164.1328125 373.69921875 164.1328125 C377.69921875 169.54457721 377.69921875 169.54457721 377.69921875 172.1328125 C378.35921875 172.1328125 379.01921875 172.1328125 379.69921875 172.1328125 C379.69921875 172.7928125 379.69921875 173.4528125 379.69921875 174.1328125 C380.35921875 174.1328125 381.01921875 174.1328125 381.69921875 174.1328125 C386.69921875 179.48995536 386.69921875 179.48995536 386.69921875 183.1328125 C387.35921875 183.1328125 388.01921875 183.1328125 388.69921875 183.1328125 C388.69921875 183.7928125 388.69921875 184.4528125 388.69921875 185.1328125 C389.35921875 185.1328125 390.01921875 185.1328125 390.69921875 185.1328125 C392.42578125 187.46875 392.42578125 187.46875 394.32421875 190.5078125 C394.95585938 191.50554687 395.5875 192.50328125 396.23828125 193.53125 C397.69921875 196.1328125 397.69921875 196.1328125 397.69921875 198.1328125 C398.35921875 198.1328125 399.01921875 198.1328125 399.69921875 198.1328125 C399.69921875 199.4528125 399.69921875 200.7728125 399.69921875 202.1328125 C400.35921875 202.1328125 401.01921875 202.1328125 401.69921875 202.1328125 C401.69921875 202.7928125 401.69921875 203.4528125 401.69921875 204.1328125 C402.35921875 204.1328125 403.01921875 204.1328125 403.69921875 204.1328125 C404.35921875 205.7828125 405.01921875 207.4328125 405.69921875 209.1328125 C406.35921875 209.1328125 407.01921875 209.1328125 407.69921875 209.1328125 C408.98828125 210.8125 408.98828125 210.8125 410.32421875 213.0078125 C410.99324219 214.08675781 410.99324219 214.08675781 411.67578125 215.1875 C412.69921875 217.1328125 412.69921875 217.1328125 412.69921875 219.1328125 C413.35921875 219.1328125 414.01921875 219.1328125 414.69921875 219.1328125 C414.69921875 220.4528125 414.69921875 221.7728125 414.69921875 223.1328125 C415.35921875 223.1328125 416.01921875 223.1328125 416.69921875 223.1328125 C417.70430676 224.92162986 418.70314611 226.71395946 419.69921875 228.5078125 C420.53453125 230.00441406 420.53453125 230.00441406 421.38671875 231.53125 C422.69921875 234.1328125 422.69921875 234.1328125 422.69921875 236.1328125 C423.35921875 236.1328125 424.01921875 236.1328125 424.69921875 236.1328125 C427.69921875 242.6328125 427.69921875 242.6328125 427.69921875 247.1328125 C428.35921875 247.1328125 429.01921875 247.1328125 429.69921875 247.1328125 C429.69921875 248.1228125 429.69921875 249.1128125 429.69921875 250.1328125 C430.35921875 250.1328125 431.01921875 250.1328125 431.69921875 250.1328125 C432.70691395 251.8992782 433.70513589 253.67115073 434.69921875 255.4453125 C435.53453125 256.92451172 435.53453125 256.92451172 436.38671875 258.43359375 C437.69921875 261.1328125 437.69921875 261.1328125 437.69921875 264.1328125 C438.35921875 264.1328125 439.01921875 264.1328125 439.69921875 264.1328125 C439.95316406 264.85726563 440.20710937 265.58171875 440.46875 266.328125 C441.95955092 270.51576804 443.40019277 274.55611953 445.44921875 278.5078125 C446.78152703 281.30565988 446.96898267 283.07548806 446.69921875 286.1328125 C447.35921875 286.1328125 448.01921875 286.1328125 448.69921875 286.1328125 C448.69921875 287.4528125 448.69921875 288.7728125 448.69921875 290.1328125 C449.35921875 290.1328125 450.01921875 290.1328125 450.69921875 290.1328125 C450.69921875 291.4528125 450.69921875 292.7728125 450.69921875 294.1328125 C451.35921875 294.1328125 452.01921875 294.1328125 452.69921875 294.1328125 C455.50770754 301.73682364 458.14497172 309.25107286 460.12109375 317.12109375 C460.51764056 319.11266693 460.51764056 319.11266693 461.69921875 320.1328125 C461.74002658 322.13239614 461.74176231 324.13326504 461.69921875 326.1328125 C462.35921875 326.1328125 463.01921875 326.1328125 463.69921875 326.1328125 C465.94749927 330.62937354 465.86604147 334.21154216 465.69921875 339.1328125 C466.35921875 339.1328125 467.01921875 339.1328125 467.69921875 339.1328125 C468.85503849 342.29205313 469.70311878 345.16289841 470.13671875 348.5078125 C470.65893261 351.87319072 471.66782959 354.53795683 472.9375 357.671875 C474.30499218 362.08992665 474.71593207 366.6745727 475.26953125 371.25390625 C475.3909722 374.02289191 475.3909722 374.02289191 476.69921875 375.1328125 C476.77165928 377.15245449 476.78299063 379.17448374 476.76171875 381.1953125 C476.75269531 382.30003906 476.74367188 383.40476562 476.734375 384.54296875 C476.72277344 385.39761719 476.71117187 386.25226563 476.69921875 387.1328125 C477.35921875 387.1328125 478.01921875 387.1328125 478.69921875 387.1328125 C480.94570255 391.69690746 481.13047205 395.89283944 481.31591797 400.87915039 C481.35351667 401.75269448 481.39111538 402.62623857 481.42985344 403.5262537 C481.8663602 414.74416504 481.84353086 425.96687395 481.83203125 437.19140625 C481.83270739 439.55632029 481.83367998 441.92123426 481.83493042 444.28614807 C481.8363931 449.21005931 481.83429952 454.13395224 481.82958984 459.05786133 C481.82389664 465.30818613 481.82717821 471.55846793 481.83316231 477.80879116 C481.83680953 482.68297132 481.83561036 487.55714161 481.83303452 492.4313221 C481.83237654 494.73335844 481.8331532 497.03539573 481.83551407 499.33743095 C481.84446102 510.50884679 481.77430623 521.66898465 481.31591797 532.83227539 C481.27040393 534.11414938 481.27040393 534.11414938 481.22397041 535.42191982 C481.0057456 539.99388681 480.41085037 543.82689499 478.69921875 548.1328125 C478.03921875 548.1328125 477.37921875 548.1328125 476.69921875 548.1328125 C476.73402344 549.45345703 476.73402344 549.45345703 476.76953125 550.80078125 C476.79660156 552.54294922 476.79660156 552.54294922 476.82421875 554.3203125 C476.84742188 555.46886719 476.870625 556.61742187 476.89453125 557.80078125 C476.70042852 561.11217389 476.00937532 563.12915725 474.69921875 566.1328125 C474.3216855 567.95755655 473.98877572 569.7920575 473.69921875 571.6328125 C473.24766031 574.503434 472.76245225 576.97569414 471.67578125 579.67578125 C470.67999045 582.18119089 470.31375531 584.27048753 470.07421875 586.9453125 C469.99945312 587.73550781 469.9246875 588.52570312 469.84765625 589.33984375 C469.79867187 589.93152344 469.7496875 590.52320313 469.69921875 591.1328125 C469.03921875 591.1328125 468.37921875 591.1328125 467.69921875 591.1328125 C467.69921875 592.4528125 467.69921875 593.7728125 467.69921875 595.1328125 C467.03921875 595.1328125 466.37921875 595.1328125 465.69921875 595.1328125 C465.72242188 595.71289062 465.745625 596.29296875 465.76953125 596.890625 C465.88172298 601.74692416 465.5743679 605.56213645 463.69921875 610.1328125 C463.03921875 610.1328125 462.37921875 610.1328125 461.69921875 610.1328125 C461.79203125 611.1228125 461.79203125 611.1228125 461.88671875 612.1328125 C461.68759991 615.31871394 460.80696559 617.80348862 459.625 620.75 C458.1494448 624.5478425 456.92781183 628.42832848 455.6640625 632.30078125 C454.76053296 634.95284164 453.76481588 637.54222748 452.69921875 640.1328125 C452.03921875 640.1328125 451.37921875 640.1328125 450.69921875 640.1328125 C450.80234375 640.9371875 450.90546875 641.7415625 451.01171875 642.5703125 C450.63450792 646.87051591 449.12254932 649.35988251 446.890625 652.984375 C445.7414673 655.0566266 445.1544791 656.81988063 444.69921875 659.1328125 C444.03921875 659.1328125 443.37921875 659.1328125 442.69921875 659.1328125 C442.57546875 660.2053125 442.45171875 661.2778125 442.32421875 662.3828125 C441.80277939 665.51144865 441.29833621 667.46761674 439.69921875 670.1328125 C439.03921875 670.1328125 438.37921875 670.1328125 437.69921875 670.1328125 C437.69921875 671.4528125 437.69921875 672.7728125 437.69921875 674.1328125 C437.03921875 674.1328125 436.37921875 674.1328125 435.69921875 674.1328125 C435.54453125 675.1846875 435.54453125 675.1846875 435.38671875 676.2578125 C434.60562872 679.52418897 433.27863132 682.1799977 431.69921875 685.1328125 C431.03921875 685.1328125 430.37921875 685.1328125 429.69921875 685.1328125 C429.69921875 686.4528125 429.69921875 687.7728125 429.69921875 689.1328125 C429.03921875 689.1328125 428.37921875 689.1328125 427.69921875 689.1328125 C427.52241577 690.22662231 427.52241577 690.22662231 427.34204102 691.3425293 C426.69389277 694.15593086 425.77638714 696.24238524 424.4140625 698.77734375 C423.96611328 699.61845703 423.51816406 700.45957031 423.05664062 701.32617188 C422.58806641 702.19048828 422.11949219 703.05480469 421.63671875 703.9453125 C420.92805664 705.27079102 420.92805664 705.27079102 420.20507812 706.62304688 C419.04218591 708.79612828 417.873435 710.96583534 416.69921875 713.1328125 C416.03921875 713.1328125 415.37921875 713.1328125 414.69921875 713.1328125 C414.61542969 713.679375 414.53164063 714.2259375 414.4453125 714.7890625 C413.45132885 717.91152422 411.74014707 720.02829926 409.76171875 722.6328125 C407.42979861 725.71382496 405.28953341 728.60248048 403.69921875 732.1328125 C403.03921875 732.1328125 402.37921875 732.1328125 401.69921875 732.1328125 C401.46203125 732.98101563 401.22484375 733.82921875 400.98046875 734.703125 C399.52227769 738.60645351 397.59198923 741.62888421 395.19921875 745.0078125 C394.79574219 745.60078125 394.39226563 746.19375 393.9765625 746.8046875 C392.94063018 748.28849814 391.82559587 749.7164353 390.69921875 751.1328125 C390.03921875 751.1328125 389.37921875 751.1328125 388.69921875 751.1328125 C388.69921875 751.7928125 388.69921875 752.4528125 388.69921875 753.1328125 C388.03921875 753.1328125 387.37921875 753.1328125 386.69921875 753.1328125 C386.69921875 754.1228125 386.69921875 755.1128125 386.69921875 756.1328125 C386.03921875 756.1328125 385.37921875 756.1328125 384.69921875 756.1328125 C384.69921875 756.7928125 384.69921875 757.4528125 384.69921875 758.1328125 C384.03921875 758.1328125 383.37921875 758.1328125 382.69921875 758.1328125 C382.36921875 759.4528125 382.03921875 760.7728125 381.69921875 762.1328125 C381.03921875 762.1328125 380.37921875 762.1328125 379.69921875 762.1328125 C379.69921875 762.7928125 379.69921875 763.4528125 379.69921875 764.1328125 C379.03921875 764.1328125 378.37921875 764.1328125 377.69921875 764.1328125 C377.45171875 764.8753125 377.20421875 765.6178125 376.94921875 766.3828125 C375.59456836 769.36304337 374.18906465 771.03200502 371.69921875 773.1328125 C371.03921875 773.1328125 370.37921875 773.1328125 369.69921875 773.1328125 C369.03921875 775.1128125 368.37921875 777.0928125 367.69921875 779.1328125 C367.03921875 779.1328125 366.37921875 779.1328125 365.69921875 779.1328125 C365.47234375 779.6896875 365.24546875 780.2465625 365.01171875 780.8203125 C363.32371839 783.79440838 361.23245358 785.85290115 358.69921875 788.1328125 C358.03921875 788.1328125 357.37921875 788.1328125 356.69921875 788.1328125 C356.03921875 789.4528125 355.37921875 790.7728125 354.69921875 792.1328125 C354.03921875 792.1328125 353.37921875 792.1328125 352.69921875 792.1328125 C352.69921875 793.4528125 352.69921875 794.7728125 352.69921875 796.1328125 C351.70921875 796.1328125 350.71921875 796.1328125 349.69921875 796.1328125 C349.03921875 797.4528125 348.37921875 798.7728125 347.69921875 800.1328125 C347.03921875 800.1328125 346.37921875 800.1328125 345.69921875 800.1328125 C345.69921875 800.7928125 345.69921875 801.4528125 345.69921875 802.1328125 C344.37921875 802.4628125 343.05921875 802.7928125 341.69921875 803.1328125 C341.69921875 803.7928125 341.69921875 804.4528125 341.69921875 805.1328125 C341.03921875 805.1328125 340.37921875 805.1328125 339.69921875 805.1328125 C339.69921875 805.7928125 339.69921875 806.4528125 339.69921875 807.1328125 C339.03921875 807.1328125 338.37921875 807.1328125 337.69921875 807.1328125 C337.69921875 807.7928125 337.69921875 808.4528125 337.69921875 809.1328125 C337.03921875 809.1328125 336.37921875 809.1328125 335.69921875 809.1328125 C335.69921875 809.7928125 335.69921875 810.4528125 335.69921875 811.1328125 C335.03921875 811.1328125 334.37921875 811.1328125 333.69921875 811.1328125 C333.69921875 811.7928125 333.69921875 812.4528125 333.69921875 813.1328125 C331.80078125 814.859375 331.80078125 814.859375 329.32421875 816.7578125 C328.51210938 817.38945313 327.7 818.02109375 326.86328125 818.671875 C324.69921875 820.1328125 324.69921875 820.1328125 322.69921875 820.1328125 C322.69921875 820.7928125 322.69921875 821.4528125 322.69921875 822.1328125 C322.03921875 822.1328125 321.37921875 822.1328125 320.69921875 822.1328125 C320.47234375 822.6896875 320.24546875 823.2465625 320.01171875 823.8203125 C318.32371839 826.79440838 316.23245358 828.85290115 313.69921875 831.1328125 C313.03921875 831.1328125 312.37921875 831.1328125 311.69921875 831.1328125 C311.69921875 831.7928125 311.69921875 832.4528125 311.69921875 833.1328125 C309.71921875 833.7928125 307.73921875 834.4528125 305.69921875 835.1328125 C305.69921875 835.7928125 305.69921875 836.4528125 305.69921875 837.1328125 C305.03921875 837.1328125 304.37921875 837.1328125 303.69921875 837.1328125 C303.69921875 837.7928125 303.69921875 838.4528125 303.69921875 839.1328125 C303.03921875 839.1328125 302.37921875 839.1328125 301.69921875 839.1328125 C301.69921875 839.7928125 301.69921875 840.4528125 301.69921875 841.1328125 C300.70921875 841.1328125 299.71921875 841.1328125 298.69921875 841.1328125 C298.69921875 841.7928125 298.69921875 842.4528125 298.69921875 843.1328125 C298.03921875 843.1328125 297.37921875 843.1328125 296.69921875 843.1328125 C296.69921875 843.7928125 296.69921875 844.4528125 296.69921875 845.1328125 C295.37921875 845.1328125 294.05921875 845.1328125 292.69921875 845.1328125 C292.69921875 845.7928125 292.69921875 846.4528125 292.69921875 847.1328125 C288.31460337 850.1328125 288.31460337 850.1328125 285.69921875 850.1328125 C285.69921875 850.7928125 285.69921875 851.4528125 285.69921875 852.1328125 C283.71921875 852.7928125 281.73921875 853.4528125 279.69921875 854.1328125 C279.69921875 854.7928125 279.69921875 855.4528125 279.69921875 856.1328125 C274.4051011 860.1328125 274.4051011 860.1328125 270.69921875 860.1328125 C270.69921875 860.7928125 270.69921875 861.4528125 270.69921875 862.1328125 C267.38207765 863.5544444 264.25702071 864.52290359 260.69921875 865.1328125 C260.69921875 865.7928125 260.69921875 866.4528125 260.69921875 867.1328125 C260.03921875 867.1328125 259.37921875 867.1328125 258.69921875 867.1328125 C258.69921875 867.7928125 258.69921875 868.4528125 258.69921875 869.1328125 C256.87889383 870.52014751 254.99030815 871.81856066 253.07421875 873.0703125 C252.03007813 873.75996094 250.9859375 874.44960938 249.91015625 875.16015625 C241.81605043 880.1328125 241.81605043 880.1328125 236.69921875 880.1328125 C236.69921875 880.7928125 236.69921875 881.4528125 236.69921875 882.1328125 C235.43230368 882.80689558 234.16051126 883.47181747 232.88671875 884.1328125 C232.17902344 884.5040625 231.47132813 884.8753125 230.7421875 885.2578125 C228.69921875 886.1328125 228.69921875 886.1328125 225.69921875 886.1328125 C225.69921875 886.7928125 225.69921875 887.4528125 225.69921875 888.1328125 C224.37921875 888.1328125 223.05921875 888.1328125 221.69921875 888.1328125 C221.69921875 888.7928125 221.69921875 889.4528125 221.69921875 890.1328125 C220.37921875 890.1328125 219.05921875 890.1328125 217.69921875 890.1328125 C217.69921875 890.7928125 217.69921875 891.4528125 217.69921875 892.1328125 C211.19921875 895.1328125 211.19921875 895.1328125 206.69921875 895.1328125 C206.69921875 895.7928125 206.69921875 896.4528125 206.69921875 897.1328125 C205.37921875 897.1328125 204.05921875 897.1328125 202.69921875 897.1328125 C202.69921875 897.7928125 202.69921875 898.4528125 202.69921875 899.1328125 C198.86932769 900.93511418 195.91800067 901.32903491 191.69921875 901.1328125 C191.69921875 901.7928125 191.69921875 902.4528125 191.69921875 903.1328125 C190.37921875 903.1328125 189.05921875 903.1328125 187.69921875 903.1328125 C187.69921875 903.7928125 187.69921875 904.4528125 187.69921875 905.1328125 C185.16070413 905.97697413 182.61911021 906.80828549 180.07421875 907.6328125 C179.36136719 907.87128906 178.64851562 908.10976563 177.9140625 908.35546875 C173.70615851 909.70663058 170.17685077 910.41531294 165.69921875 910.1328125 C165.69921875 910.7928125 165.69921875 911.4528125 165.69921875 912.1328125 C164.04921875 912.1328125 162.39921875 912.1328125 160.69921875 912.1328125 C160.69921875 912.7928125 160.69921875 913.4528125 160.69921875 914.1328125 C153.32041843 917.28306804 145.86389588 919.67983314 138.13671875 921.8203125 C137.06486328 922.12775391 135.99300781 922.43519531 134.88867188 922.75195312 C128.78824798 924.4570869 122.99983696 925.54111358 116.69921875 926.1328125 C116.36921875 926.4628125 116.03921875 926.7928125 115.69921875 927.1328125 C113.12024181 927.45518462 110.53990054 927.64548554 107.94921875 927.8515625 C105.73256523 927.89481915 105.73256523 927.89481915 104.69921875 929.1328125 C102.73637945 929.35805635 100.77277153 929.58036038 98.8046875 929.75390625 C96.67631524 930.01501846 96.67631524 930.01501846 94.94353962 931.14104176 C92.06485225 932.41314057 89.8304814 932.38165044 86.68461609 932.38005066 C85.45235291 932.38424515 84.22008972 932.38843964 82.95048523 932.39276123 C81.58767621 932.38727792 80.22486799 932.38159494 78.86206055 932.37573242 C77.42456984 932.37680557 75.98707956 932.37874475 74.54959106 932.38148499 C70.64654712 932.3863325 66.74361751 932.37867769 62.84058738 932.36853194 C58.75324876 932.35974405 54.66591365 932.36150907 50.5785675 932.3618927 C43.71129445 932.36095602 36.84406557 932.35227345 29.97680664 932.33862305 C22.0459153 932.32291627 14.11507239 932.31762432 6.18416661 932.3183586 C-2.2663281 932.31903525 -10.71680422 932.31208512 -19.16729331 932.302912 C-21.59790668 932.30078445 -24.02851703 932.30007132 -26.45913124 932.29967308 C-30.28650165 932.2986651 -34.11383173 932.29253143 -37.94118881 932.28250694 C-39.34278682 932.27959718 -40.74438947 932.27835347 -42.14599037 932.27893448 C-44.06574053 932.27942893 -45.98548878 932.27312437 -47.90522766 932.26652527 C-48.97760839 932.26484942 -50.04998911 932.26317358 -51.15486622 932.26144695 C-54.58935906 932.12101274 -57.90772442 931.67088442 -61.30078125 931.1328125 C-61.30078125 930.4728125 -61.30078125 929.8128125 -61.30078125 929.1328125 C-64.93078125 929.1328125 -68.56078125 929.1328125 -72.30078125 929.1328125 C-72.30078125 928.4728125 -72.30078125 927.8128125 -72.30078125 927.1328125 C-74.94078125 927.1328125 -77.58078125 927.1328125 -80.30078125 927.1328125 C-80.30078125 926.4728125 -80.30078125 925.8128125 -80.30078125 925.1328125 C-80.87256104 925.16979248 -81.44434082 925.20677246 -82.03344727 925.24487305 C-89.52637385 925.51048468 -96.05796812 923.96516762 -103.23828125 921.9453125 C-104.34107422 921.65333984 -105.44386719 921.36136719 -106.58007812 921.06054688 C-112.99294306 919.30126534 -118.90267314 917.14003749 -124.86547852 914.19018555 C-127.34667138 913.11288767 -129.6376956 912.56462407 -132.30078125 912.1328125 C-132.30078125 911.4728125 -132.30078125 910.8128125 -132.30078125 910.1328125 C-133.39390625 910.0503125 -134.48703125 909.9678125 -135.61328125 909.8828125 C-141.14207803 909.21776872 -146.15072749 907.16821978 -151.30078125 905.1328125 C-151.30078125 904.4728125 -151.30078125 903.8128125 -151.30078125 903.1328125 C-152.87859375 903.1946875 -152.87859375 903.1946875 -154.48828125 903.2578125 C-158.04088298 903.14133375 -160.14944766 902.66073182 -163.30078125 901.1328125 C-163.30078125 900.4728125 -163.30078125 899.8128125 -163.30078125 899.1328125 C-164.29078125 899.1328125 -165.28078125 899.1328125 -166.30078125 899.1328125 C-166.30078125 898.4728125 -166.30078125 897.8128125 -166.30078125 897.1328125 C-167.13480469 897.20113281 -167.96882813 897.26945313 -168.828125 897.33984375 C-173.02469625 897.08965446 -176.16646837 895.66315703 -179.86328125 893.8203125 C-180.50974609 893.51158203 -181.15621094 893.20285156 -181.82226562 892.88476562 C-185.43419729 891.13942733 -188.86737591 889.20023937 -192.30078125 887.1328125 C-194.49208659 886.43701796 -194.49208659 886.43701796 -196.30078125 886.1328125 C-196.30078125 885.4728125 -196.30078125 884.8128125 -196.30078125 884.1328125 C-197.62078125 884.1328125 -198.94078125 884.1328125 -200.30078125 884.1328125 C-200.30078125 883.4728125 -200.30078125 882.8128125 -200.30078125 882.1328125 C-200.81640625 882.0296875 -201.33203125 881.9265625 -201.86328125 881.8203125 C-205.1610456 880.89017384 -208.16711457 879.51885738 -211.30078125 878.1328125 C-211.30078125 877.4728125 -211.30078125 876.8128125 -211.30078125 876.1328125 C-211.81640625 876.0503125 -212.33203125 875.9678125 -212.86328125 875.8828125 C-217.17600507 874.55582056 -221.26492514 872.7541525 -223.73828125 868.8828125 C-223.92390625 868.3053125 -224.10953125 867.7278125 -224.30078125 867.1328125 C-225.29078125 867.1328125 -226.28078125 867.1328125 -227.30078125 867.1328125 C-227.30078125 866.4728125 -227.30078125 865.8128125 -227.30078125 865.1328125 C-228.16703125 865.0503125 -229.03328125 864.9678125 -229.92578125 864.8828125 C-233.81211296 864.01918323 -236.08649092 862.43871643 -239.30078125 860.1328125 C-240.61993945 859.43851871 -241.94727531 858.75750755 -243.30078125 858.1328125 C-243.30078125 857.4728125 -243.30078125 856.8128125 -243.30078125 856.1328125 C-243.96078125 856.1328125 -244.62078125 856.1328125 -245.30078125 856.1328125 C-245.30078125 855.4728125 -245.30078125 854.8128125 -245.30078125 854.1328125 C-245.91953125 853.9884375 -246.53828125 853.8440625 -247.17578125 853.6953125 C-249.30078125 853.1328125 -249.30078125 853.1328125 -251.30078125 852.1328125 C-251.30078125 851.4728125 -251.30078125 850.8128125 -251.30078125 850.1328125 C-252.18765625 849.8646875 -253.07453125 849.5965625 -253.98828125 849.3203125 C-257.09174785 848.207749 -259.6118881 847.03085472 -262.30078125 845.1328125 C-262.30078125 844.4728125 -262.30078125 843.8128125 -262.30078125 843.1328125 C-262.88601563 843.0296875 -263.47125 842.9265625 -264.07421875 842.8203125 C-266.64999541 842.02498497 -267.94846514 840.94462638 -269.92578125 839.1328125 C-272.42452437 836.86064026 -272.42452437 836.86064026 -275.30078125 835.1328125 C-275.30078125 834.4728125 -275.30078125 833.8128125 -275.30078125 833.1328125 C-275.96078125 833.1328125 -276.62078125 833.1328125 -277.30078125 833.1328125 C-277.30078125 832.4728125 -277.30078125 831.8128125 -277.30078125 831.1328125 C-277.91953125 830.8234375 -278.53828125 830.5140625 -279.17578125 830.1953125 C-280.55078125 829.5078125 -281.92578125 828.8203125 -283.30078125 828.1328125 C-283.30078125 827.4728125 -283.30078125 826.8128125 -283.30078125 826.1328125 C-283.96078125 826.1328125 -284.62078125 826.1328125 -285.30078125 826.1328125 C-286.50132684 824.665479 -287.69973271 823.19629557 -288.8828125 821.71484375 C-291.01704782 819.33367212 -293.61020178 817.83501584 -296.30078125 816.1328125 C-301.95671756 812.04212368 -301.95671756 812.04212368 -303.17578125 808.8203125 C-303.21703125 808.2634375 -303.25828125 807.7065625 -303.30078125 807.1328125 C-303.96078125 807.1328125 -304.62078125 807.1328125 -305.30078125 807.1328125 C-305.30078125 806.4728125 -305.30078125 805.8128125 -305.30078125 805.1328125 C-306.62078125 804.8028125 -307.94078125 804.4728125 -309.30078125 804.1328125 C-309.30078125 803.4728125 -309.30078125 802.8128125 -309.30078125 802.1328125 C-310.62078125 801.4728125 -311.94078125 800.8128125 -313.30078125 800.1328125 C-313.30078125 799.4728125 -313.30078125 798.8128125 -313.30078125 798.1328125 C-314.29078125 798.1328125 -315.28078125 798.1328125 -316.30078125 798.1328125 C-316.63078125 796.8128125 -316.96078125 795.4928125 -317.30078125 794.1328125 C-318.29078125 794.1328125 -319.28078125 794.1328125 -320.30078125 794.1328125 C-320.30078125 792.8128125 -320.30078125 791.4928125 -320.30078125 790.1328125 C-320.91953125 789.8234375 -321.53828125 789.5140625 -322.17578125 789.1953125 C-323.55078125 788.5078125 -324.92578125 787.8203125 -326.30078125 787.1328125 C-326.30078125 786.4728125 -326.30078125 785.8128125 -326.30078125 785.1328125 C-326.96078125 785.1328125 -327.62078125 785.1328125 -328.30078125 785.1328125 C-333.30078125 779.65662202 -333.30078125 779.65662202 -333.30078125 777.1328125 C-333.96078125 777.1328125 -334.62078125 777.1328125 -335.30078125 777.1328125 C-335.30078125 776.4728125 -335.30078125 775.8128125 -335.30078125 775.1328125 C-335.96078125 775.1328125 -336.62078125 775.1328125 -337.30078125 775.1328125 C-337.30078125 774.1428125 -337.30078125 773.1528125 -337.30078125 772.1328125 C-337.96078125 772.1328125 -338.62078125 772.1328125 -339.30078125 772.1328125 C-339.30078125 771.4728125 -339.30078125 770.8128125 -339.30078125 770.1328125 C-339.96078125 770.1328125 -340.62078125 770.1328125 -341.30078125 770.1328125 C-341.30078125 769.4728125 -341.30078125 768.8128125 -341.30078125 768.1328125 C-341.96078125 768.1328125 -342.62078125 768.1328125 -343.30078125 768.1328125 C-344.63697746 766.47510329 -345.89540264 764.75429234 -347.11328125 763.0078125 C-349.41053977 759.75650126 -351.68672683 756.57385354 -354.30078125 753.5703125 C-356.30078125 751.1328125 -356.30078125 751.1328125 -356.30078125 749.1328125 C-356.96078125 749.1328125 -357.62078125 749.1328125 -358.30078125 749.1328125 C-359.56082664 747.45577367 -360.73207647 745.71182017 -361.86328125 743.9453125 C-364.13403014 740.43710963 -366.40497983 736.95172367 -368.828125 733.546875 C-369.44675415 732.67518677 -369.44675415 732.67518677 -370.07788086 731.78588867 C-371.25296405 730.13739404 -372.43301926 728.49244702 -373.61328125 726.84765625 C-375.30078125 724.1328125 -375.30078125 724.1328125 -375.30078125 721.1328125 C-375.96078125 721.1328125 -376.62078125 721.1328125 -377.30078125 721.1328125 C-380.30078125 715.3828125 -380.30078125 715.3828125 -380.30078125 713.1328125 C-380.96078125 713.1328125 -381.62078125 713.1328125 -382.30078125 713.1328125 C-386.30078125 707.83869485 -386.30078125 707.83869485 -386.30078125 704.1328125 C-386.96078125 704.1328125 -387.62078125 704.1328125 -388.30078125 704.1328125 C-389.28747884 702.24088775 -390.26484145 700.34409272 -391.23828125 698.4453125 C-391.78355469 697.38957031 -392.32882812 696.33382812 -392.890625 695.24609375 C-394.14783885 692.47047203 -394.86147694 690.13009124 -395.30078125 687.1328125 C-395.96078125 687.1328125 -396.62078125 687.1328125 -397.30078125 687.1328125 C-397.30078125 685.8128125 -397.30078125 684.4928125 -397.30078125 683.1328125 C-397.96078125 683.1328125 -398.62078125 683.1328125 -399.30078125 683.1328125 C-400.76140975 680.48542334 -401.30078125 679.23832916 -401.30078125 676.1328125 C-401.96078125 676.1328125 -402.62078125 676.1328125 -403.30078125 676.1328125 C-403.50832031 675.57335937 -403.71585937 675.01390625 -403.9296875 674.4375 C-405.94785502 669.18519791 -408.24256604 664.14233853 -410.80078125 659.1328125 C-414.72361641 651.42513135 -417.8575285 643.64309151 -420.515625 635.421875 C-421.37731526 632.9096835 -422.35716603 630.46555521 -423.36328125 628.0078125 C-425.52468278 622.67469914 -427.30078125 617.96080153 -427.30078125 612.1328125 C-427.96078125 612.1328125 -428.62078125 612.1328125 -429.30078125 612.1328125 C-429.40390625 611.1015625 -429.50703125 610.0703125 -429.61328125 609.0078125 C-430.09178953 605.1821877 -430.09178953 605.1821877 -431.80078125 602.2578125 C-433.47558478 598.76863848 -433.6847228 596.08596097 -433.98828125 592.28515625 C-434.21491718 589.91162809 -434.21491718 589.91162809 -435.80078125 587.1953125 C-437.58134891 583.55998686 -437.7013344 580.62165495 -437.9921875 576.6328125 C-438.36775604 573.59023191 -439.35813428 571.16089336 -440.5390625 568.35546875 C-441.84861768 564.5342539 -442.30213214 560.56194092 -442.87109375 556.57421875 C-443.04949215 554.19282286 -443.04949215 554.19282286 -444.30078125 553.1328125 C-444.42132211 551.71561768 -444.48028297 550.29305825 -444.51171875 548.87109375 C-444.54007812 547.99904297 -444.5684375 547.12699219 -444.59765625 546.22851562 C-444.64918602 544.39276752 -444.6936151 542.55680449 -444.73046875 540.72070312 C-444.76140625 539.84220703 -444.79234375 538.96371094 -444.82421875 538.05859375 C-444.84403809 537.25848877 -444.86385742 536.45838379 -444.88427734 535.6340332 C-445.19538591 532.97295151 -445.19538591 532.97295151 -446.79858398 530.2434082 C-448.49923304 526.72187892 -448.72423601 524.33034933 -448.8125 520.4375 C-448.83956276 519.46567276 -448.83956276 519.46567276 -448.86717224 518.47421265 C-448.92247868 516.31879906 -448.95605567 514.16368641 -448.98828125 512.0078125 C-449.02073305 510.46059952 -449.05378877 508.91339911 -449.08740234 507.36621094 C-449.60988297 481.19450099 -449.55067081 455.00110131 -448.98138428 428.83093262 C-448.9446826 427.132503 -448.91065122 425.43401331 -448.87945557 423.73547363 C-448.83445734 421.39100144 -448.77672477 419.04720497 -448.71484375 416.703125 C-448.70328247 416.02079803 -448.69172119 415.33847107 -448.67980957 414.63546753 C-448.55061298 410.47136715 -447.79771513 407.01583648 -446.30078125 403.1328125 C-445.64078125 403.1328125 -444.98078125 403.1328125 -444.30078125 403.1328125 C-444.31125488 402.55313721 -444.32172852 401.97346191 -444.33251953 401.3762207 C-444.3742674 398.73262929 -444.40016663 396.08910745 -444.42578125 393.4453125 C-444.44253906 392.53330078 -444.45929688 391.62128906 -444.4765625 390.68164062 C-444.51099935 385.94657405 -444.3281129 382.47813267 -442.30078125 378.1328125 C-441.73508157 375.56957041 -441.21114745 373.02481015 -440.73828125 370.4453125 C-439.42521221 363.38167441 -439.42521221 363.38167441 -438.30078125 361.1328125 C-438.12274565 359.71983156 -437.98155072 358.30204614 -437.86328125 356.8828125 C-437.48110601 353.0672242 -436.68428988 349.72993494 -435.30078125 346.1328125 C-434.64078125 346.1328125 -433.98078125 346.1328125 -433.30078125 346.1328125 C-433.34203125 344.9159375 -433.38328125 343.6990625 -433.42578125 342.4453125 C-433.43832633 338.91387123 -432.90076342 336.33277684 -431.30078125 333.1328125 C-430.64078125 333.1328125 -429.98078125 333.1328125 -429.30078125 333.1328125 C-429.38328125 332.2046875 -429.46578125 331.2765625 -429.55078125 330.3203125 C-429.5598555 325.81948352 -427.9896062 322.1051768 -426.37109375 317.95703125 C-425.38936352 315.36655331 -424.60132758 312.80080756 -423.86328125 310.1328125 C-422.49005303 305.38341545 -420.52726399 301.0278645 -418.38671875 296.578125 C-417.42778852 294.41880728 -416.78324969 292.43793951 -416.30078125 290.1328125 C-415.64078125 290.1328125 -414.98078125 290.1328125 -414.30078125 290.1328125 C-414.30078125 288.8128125 -414.30078125 287.4928125 -414.30078125 286.1328125 C-413.64078125 286.1328125 -412.98078125 286.1328125 -412.30078125 286.1328125 C-412.17058594 285.4109375 -412.04039062 284.6890625 -411.90625 283.9453125 C-409.88040486 274.53493507 -405.41932719 265.76803048 -401.30078125 257.1328125 C-400.64078125 257.1328125 -399.98078125 257.1328125 -399.30078125 257.1328125 C-399.30078125 256.1428125 -399.30078125 255.1528125 -399.30078125 254.1328125 C-398.64078125 254.1328125 -397.98078125 254.1328125 -397.30078125 254.1328125 C-397.17960937 253.5759375 -397.0584375 253.0190625 -396.93359375 252.4453125 C-394.76063696 244.50463089 -390.33923534 237.22477743 -386.140625 230.21484375 C-384.85531791 228.06174971 -383.59973476 225.89075639 -382.3671875 223.70703125 C-381.74714844 222.61003906 -381.12710938 221.51304687 -380.48828125 220.3828125 C-379.92496094 219.37734375 -379.36164063 218.371875 -378.78125 217.3359375 C-378.29269531 216.60890625 -377.80414063 215.881875 -377.30078125 215.1328125 C-376.64078125 215.1328125 -375.98078125 215.1328125 -375.30078125 215.1328125 C-375.19765625 214.5759375 -375.09453125 214.0190625 -374.98828125 213.4453125 C-374.15899717 210.6559024 -372.95779069 208.5189061 -371.30078125 206.1328125 C-370.64078125 206.1328125 -369.98078125 206.1328125 -369.30078125 206.1328125 C-369.30078125 205.4728125 -369.30078125 204.8128125 -369.30078125 204.1328125 C-368.64078125 204.1328125 -367.98078125 204.1328125 -367.30078125 204.1328125 C-367.30078125 203.4728125 -367.30078125 202.8128125 -367.30078125 202.1328125 C-366.64078125 202.1328125 -365.98078125 202.1328125 -365.30078125 202.1328125 C-365.11515625 200.988125 -365.11515625 200.988125 -364.92578125 199.8203125 C-364.30078125 197.1328125 -364.30078125 197.1328125 -362.30078125 194.1328125 C-361.64078125 194.1328125 -360.98078125 194.1328125 -360.30078125 194.1328125 C-360.19765625 193.5759375 -360.09453125 193.0190625 -359.98828125 192.4453125 C-359.15899717 189.6559024 -357.95779069 187.5189061 -356.30078125 185.1328125 C-355.64078125 185.1328125 -354.98078125 185.1328125 -354.30078125 185.1328125 C-354.01203125 184.3696875 -353.72328125 183.6065625 -353.42578125 182.8203125 C-352.30078125 180.1328125 -352.30078125 180.1328125 -350.30078125 177.1328125 C-349.64078125 177.1328125 -348.98078125 177.1328125 -348.30078125 177.1328125 C-347.97078125 176.1428125 -347.64078125 175.1528125 -347.30078125 174.1328125 C-346.64078125 174.1328125 -345.98078125 174.1328125 -345.30078125 174.1328125 C-345.01203125 173.3696875 -344.72328125 172.6065625 -344.42578125 171.8203125 C-343.30078125 169.1328125 -343.30078125 169.1328125 -341.30078125 166.1328125 C-340.64078125 166.1328125 -339.98078125 166.1328125 -339.30078125 166.1328125 C-339.30078125 165.4728125 -339.30078125 164.8128125 -339.30078125 164.1328125 C-338.64078125 164.1328125 -337.98078125 164.1328125 -337.30078125 164.1328125 C-337.30078125 163.4728125 -337.30078125 162.8128125 -337.30078125 162.1328125 C-336.64078125 162.1328125 -335.98078125 162.1328125 -335.30078125 162.1328125 C-335.04296875 161.57078125 -334.78515625 161.00875 -334.51953125 160.4296875 C-333.15908348 157.86576671 -331.57289163 155.68054885 -329.80078125 153.3828125 C-329.19234375 152.58359375 -328.58390625 151.784375 -327.95703125 150.9609375 C-327.41046875 150.35765625 -326.86390625 149.754375 -326.30078125 149.1328125 C-325.64078125 149.1328125 -324.98078125 149.1328125 -324.30078125 149.1328125 C-324.30078125 148.4728125 -324.30078125 147.8128125 -324.30078125 147.1328125 C-323.64078125 147.1328125 -322.98078125 147.1328125 -322.30078125 147.1328125 C-322.30078125 146.4728125 -322.30078125 145.8128125 -322.30078125 145.1328125 C-320.06142196 142.64463551 -318.1459107 140.54330395 -315.11328125 139.0703125 C-312.77217194 137.85939389 -312.26006999 136.53103436 -311.30078125 134.1328125 C-310.64078125 134.1328125 -309.98078125 134.1328125 -309.30078125 134.1328125 C-309.30078125 133.4728125 -309.30078125 132.8128125 -309.30078125 132.1328125 C-308.64078125 132.1328125 -307.98078125 132.1328125 -307.30078125 132.1328125 C-307.30078125 131.4728125 -307.30078125 130.8128125 -307.30078125 130.1328125 C-306.68203125 130.0503125 -306.06328125 129.9678125 -305.42578125 129.8828125 C-303.11640558 129.32022791 -303.11640558 129.32022791 -302.05078125 127.0703125 C-301.67953125 126.11125 -301.67953125 126.11125 -301.30078125 125.1328125 C-300.64078125 125.1328125 -299.98078125 125.1328125 -299.30078125 125.1328125 C-298.96046875 124.2046875 -298.96046875 124.2046875 -298.61328125 123.2578125 C-296.9214829 120.51871041 -295.30833964 120.08256778 -292.30078125 119.1328125 C-292.30078125 118.4728125 -292.30078125 117.8128125 -292.30078125 117.1328125 C-291.64078125 117.1328125 -290.98078125 117.1328125 -290.30078125 117.1328125 C-290.30078125 116.4728125 -290.30078125 115.8128125 -290.30078125 115.1328125 C-288.56686174 113.52647235 -286.76269025 111.9952838 -284.92578125 110.5078125 C-283.92804688 109.69054687 -282.9303125 108.87328125 -281.90234375 108.03125 C-279.30078125 106.1328125 -279.30078125 106.1328125 -277.30078125 106.1328125 C-277.30078125 105.4728125 -277.30078125 104.8128125 -277.30078125 104.1328125 C-271.82459077 99.1328125 -271.82459077 99.1328125 -269.30078125 99.1328125 C-269.30078125 98.4728125 -269.30078125 97.8128125 -269.30078125 97.1328125 C-268.31078125 97.1328125 -267.32078125 97.1328125 -266.30078125 97.1328125 C-266.30078125 96.4728125 -266.30078125 95.8128125 -266.30078125 95.1328125 C-265.64078125 95.1328125 -264.98078125 95.1328125 -264.30078125 95.1328125 C-264.30078125 94.4728125 -264.30078125 93.8128125 -264.30078125 93.1328125 C-261.30078125 91.1328125 -261.30078125 91.1328125 -258.30078125 91.1328125 C-258.30078125 90.4728125 -258.30078125 89.8128125 -258.30078125 89.1328125 C-257.64078125 89.1328125 -256.98078125 89.1328125 -256.30078125 89.1328125 C-256.30078125 88.4728125 -256.30078125 87.8128125 -256.30078125 87.1328125 C-248.87220982 82.70424107 -248.87220982 82.70424107 -245.30078125 82.1328125 C-245.30078125 81.4728125 -245.30078125 80.8128125 -245.30078125 80.1328125 C-243.32078125 79.4728125 -241.34078125 78.8128125 -239.30078125 78.1328125 C-239.30078125 77.4728125 -239.30078125 76.8128125 -239.30078125 76.1328125 C-238.31078125 76.1328125 -237.32078125 76.1328125 -236.30078125 76.1328125 C-236.30078125 75.4728125 -236.30078125 74.8128125 -236.30078125 74.1328125 C-233.30078125 72.1328125 -233.30078125 72.1328125 -230.30078125 72.1328125 C-230.30078125 71.4728125 -230.30078125 70.8128125 -230.30078125 70.1328125 C-223.80078125 67.1328125 -223.80078125 67.1328125 -219.30078125 67.1328125 C-219.30078125 66.4728125 -219.30078125 65.8128125 -219.30078125 65.1328125 C-216.30078125 63.1328125 -216.30078125 63.1328125 -213.30078125 63.1328125 C-213.30078125 62.4728125 -213.30078125 61.8128125 -213.30078125 61.1328125 C-212.64078125 61.1328125 -211.98078125 61.1328125 -211.30078125 61.1328125 C-211.30078125 60.4728125 -211.30078125 59.8128125 -211.30078125 59.1328125 C-210.52734375 58.75769531 -209.75390625 58.38257813 -208.95703125 57.99609375 C-207.91546875 57.48433594 -206.87390625 56.97257812 -205.80078125 56.4453125 C-204.77984375 55.94644531 -203.75890625 55.44757812 -202.70703125 54.93359375 C-200.21734005 53.61736939 -197.93989138 52.2799658 -195.58984375 50.75390625 C-190.67745256 47.63751255 -185.47156035 45.26984383 -180.17578125 42.8828125 C-179.21285156 42.43679687 -178.24992187 41.99078125 -177.2578125 41.53125 C-172.62084244 39.42643553 -168.4387444 37.58260052 -163.30078125 37.1328125 C-163.30078125 36.4728125 -163.30078125 35.8128125 -163.30078125 35.1328125 C-161.65078125 35.1328125 -160.00078125 35.1328125 -158.30078125 35.1328125 C-158.30078125 34.4728125 -158.30078125 33.8128125 -158.30078125 33.1328125 C-155.99078125 33.1328125 -153.68078125 33.1328125 -151.30078125 33.1328125 C-151.30078125 32.4728125 -151.30078125 31.8128125 -151.30078125 31.1328125 C-149.98078125 31.1328125 -148.66078125 31.1328125 -147.30078125 31.1328125 C-147.30078125 30.4728125 -147.30078125 29.8128125 -147.30078125 29.1328125 C-144.99078125 29.1328125 -142.68078125 29.1328125 -140.30078125 29.1328125 C-140.30078125 28.4728125 -140.30078125 27.8128125 -140.30078125 27.1328125 C-138.98078125 27.1328125 -137.66078125 27.1328125 -136.30078125 27.1328125 C-136.30078125 26.4728125 -136.30078125 25.8128125 -136.30078125 25.1328125 C-125.69448941 22.08326385 -125.69448941 22.08326385 -121.17578125 21.5078125 C-118.40875086 21.44401903 -118.40875086 21.44401903 -117.30078125 20.1328125 C-114.96780692 20.09188313 -112.633729 20.09039527 -110.30078125 20.1328125 C-110.30078125 19.4728125 -110.30078125 18.8128125 -110.30078125 18.1328125 C-109.39328125 17.8853125 -108.48578125 17.6378125 -107.55078125 17.3828125 C-105.31363739 16.75182321 -103.12608752 16.07015376 -100.9375 15.28515625 C-87.24684082 10.39138951 -71.95382929 5.74170034 -57.30078125 7.1328125 C-57.30078125 6.4728125 -57.30078125 5.8128125 -57.30078125 5.1328125 C-56.44613281 5.07222656 -55.59148437 5.01164063 -54.7109375 4.94921875 C-53.60621094 4.86542969 -52.50148438 4.78164062 -51.36328125 4.6953125 C-50.26113281 4.61410156 -49.15898437 4.53289063 -48.0234375 4.44921875 C-45.38968222 4.42863166 -45.38968222 4.42863166 -44.30078125 3.1328125 C-40.8760812 2.86244144 -37.45838821 2.68651592 -34.02734375 2.52734375 C-30.35891077 2.67122601 -30.35891077 2.67122601 -27.30078125 1.1328125 C-18.27141681 -0.15557417 -9.09862967 -0.01521768 0 0 Z " fill="#FEF5F0" transform="translate(449.30078125,-0.1328125)"/>
<path d="M0 0 C1.53701894 0.48931442 3.0748441 0.97610048 4.61328125 1.4609375 C36.30643506 11.69879032 70.88604284 33.75361637 87 64 C104.08082147 104.58333286 91.31656805 155.84109732 78 196 C77.65098633 197.06331543 77.30197266 198.12663086 76.94238281 199.22216797 C64.28119964 237.56486196 48.08429298 273.98244448 28 309 C35.50501286 308.6599291 42.65844768 307.96792234 50 306.4375 C61.3662305 304.15904443 72.47081551 303.32788008 83 309 C88.94087243 313.1375722 93.68096681 318.04290043 96 325 C97.16441081 336.8946775 95.30657932 344.87128199 88.0546875 354.61328125 C74.81506077 370.3200709 55.61515028 381.53870526 36 387 C34.88753906 387.33773438 33.77507812 387.67546875 32.62890625 388.0234375 C16.96551869 392.23855794 1.11261589 392.40677888 -15 392 C-15.04487549 392.90427734 -15.08975098 393.80855469 -15.13598633 394.74023438 C-19.67315413 483.92411549 -19.67315413 483.92411549 -45 515 C-45.51691406 515.6909375 -46.03382813 516.381875 -46.56640625 517.09375 C-60.22666208 534.34881 -85.99909862 543.98460992 -107.2578125 546.71484375 C-120.53032091 547.72621443 -133.59549629 548.49703955 -146 543 C-146.80179687 542.649375 -147.60359375 542.29875 -148.4296875 541.9375 C-160.41899736 535.96358782 -169.71509472 525.27627708 -175.6875 513.5 C-176.06455078 512.77941406 -176.44160156 512.05882812 -176.83007812 511.31640625 C-193.10539421 479.9019218 -193.31717306 440.65481622 -193 406 C-194.44826172 406.67482422 -194.44826172 406.67482422 -195.92578125 407.36328125 C-217.3683902 416.50689565 -243.97847643 415.11102528 -265.47509766 407.07470703 C-273.17346517 403.84051988 -279.26577498 400.13570805 -285 394 C-288.19222172 395.09732622 -290.83811311 396.51134107 -293.625 398.375 C-305.37742796 405.6958285 -318.21926546 407.1527966 -331.69140625 404.1875 C-359.97427402 394.38549529 -375.81065021 364.19904837 -388.0625 339 C-393.73069669 327.04600649 -398.28419741 314.63120485 -402.82373047 302.21630859 C-403.80944527 299.52103944 -404.80918744 296.83180265 -405.81640625 294.14453125 C-409.28517553 284.76358288 -411.95347361 275.22071706 -414.5078125 265.5546875 C-415.428032 262.08322225 -416.39106255 258.63317532 -417.4296875 255.1953125 C-422.39730024 238.70519973 -425.97211781 221.90474568 -429.55865479 205.0713501 C-429.9637554 203.17010552 -430.37116852 201.26935406 -430.77880859 199.36865234 C-432.29198767 192.26397646 -433.68843438 185.14448941 -435 178 C-435.19609863 176.9677832 -435.39219727 175.93556641 -435.59423828 174.87207031 C-443.03353584 134.9078962 -441.40055308 91.03414276 -421 55 C-420.44570313 54.00613281 -419.89140625 53.01226562 -419.3203125 51.98828125 C-410.11419019 36.54930579 -396.47717753 24.80218627 -381 16 C-380.07703125 15.46375 -379.1540625 14.9275 -378.203125 14.375 C-336.59321998 -8.19308408 -284.47056699 -0.23381852 -241 12 C-237.83073427 13.10713016 -234.68298887 14.23831699 -231.55737305 15.46313477 C-228.32658675 16.14136857 -226.91181761 15.46771427 -224 14 C-223.35119873 13.70367676 -222.70239746 13.40735352 -222.03393555 13.10205078 C-221.407854 12.80282715 -220.78177246 12.50360352 -220.13671875 12.1953125 C-210.93730815 7.88779202 -202.02826521 4.39855277 -192.03759766 2.41015625 C-190.61952067 2.12470581 -189.20770074 1.80707399 -187.80224609 1.46484375 C-179.02496698 -0.47382295 -170.21089251 -0.30184463 -161.26953125 -0.26074219 C-158.5336229 -0.25013041 -155.79838698 -0.26062535 -153.0625 -0.2734375 C-144.19697358 -0.27768423 -135.55546788 0.05840217 -126.75390625 1.15234375 C-120.14770239 1.95677714 -114.79719257 2.09923313 -108.4375 -0.1875 C-106.86669057 -0.67224648 -105.29369137 -1.14994508 -103.71875 -1.62109375 C-102.55472656 -1.9766333 -102.55472656 -1.9766333 -101.3671875 -2.33935547 C-97.43997347 -3.43537869 -93.46024549 -4.10827531 -89.4375 -4.75 C-88.73616943 -4.86496826 -88.03483887 -4.97993652 -87.31225586 -5.09838867 C-59.45220194 -9.46026643 -26.80369118 -9.38886358 0 0 Z " fill="#FBFBFC" transform="translate(628,227)"/>
<path d="M0 0 C0.8161377 0.18304688 1.63227539 0.36609375 2.47314453 0.5546875 C42.46146984 9.6547524 76.34125649 32.46030395 99 67 C99.71285156 68.07507813 100.42570313 69.15015625 101.16015625 70.2578125 C104.87650923 76.08654338 108.18435801 82.0910424 111.3125 88.25 C111.63822998 88.88736084 111.96395996 89.52472168 112.29956055 90.18139648 C114.67505832 94.9811994 116.41328567 99.88897026 118 105 C117.31599121 105.01458252 116.63198242 105.02916504 115.92724609 105.04418945 C86.58005811 105.30692277 86.58005811 105.30692277 62 120 C60.54443457 122.35949068 59.33848349 124.51196179 58.1875 127 C57.88908203 127.60328125 57.59066406 128.2065625 57.28320312 128.828125 C48.83969566 146.36317437 54.98910152 169.23591342 60.91088867 186.68383789 C67.44885345 205.07586691 76.55312678 222.29946553 85.81005859 239.43481445 C86.50233759 240.71692781 87.19455812 241.99907274 87.88671875 243.28125 C88.22611481 243.90907883 88.56551086 244.53690765 88.91519165 245.1837616 C91.79970191 250.55240587 94.52564177 255.99467406 97.17204285 261.48449707 C100.43081819 268.14312404 104.58870545 274.04515855 109 280 C109.62777344 280.85207031 110.25554687 281.70414063 110.90234375 282.58203125 C112.25473413 284.3990075 113.61771011 286.20573351 115 288 C114.34773437 288.23074219 113.69546875 288.46148438 113.0234375 288.69921875 C103.96660434 292.07883348 99.16686479 295.80486974 94.98046875 304.59765625 C93.55043508 308.1015236 92.88959023 311.35356295 92.640625 315.12109375 C91.70651706 327.87982206 90.19340577 340.51190714 88.42938232 353.1769104 C86.13216187 369.68901483 84.10903054 386.23002802 82.14355469 402.78466797 C81.03856091 412.0274565 79.88085558 421.25608338 78.46484375 430.45703125 C78.35224213 431.2058255 78.2396405 431.95461975 78.12362671 432.72610474 C75.849395 447.01100236 70.94372368 460.78782174 59.515625 470.19140625 C49.93159593 477.0817874 39.31790445 479.83473235 28.0078125 482.52270508 C26.66276122 482.84244915 25.32271308 483.18397477 23.98852539 483.54638672 C14.26793878 485.7638023 1.61033561 485.10737298 -7 480 C-14.04146119 475.19546709 -18.60888583 469.81427947 -22.4375 462.3125 C-22.74324951 461.71469727 -23.04899902 461.11689453 -23.36401367 460.50097656 C-29.2650689 447.87242438 -30.84043911 434.53383113 -31.6875 420.8125 C-31.74858948 419.91655121 -31.80967896 419.02060242 -31.87261963 418.09750366 C-32.88249988 402.97504067 -33.12298794 387.86867056 -33.23046875 372.71875 C-33.23779463 371.78325506 -33.24512051 370.84776012 -33.25266838 369.88391685 C-33.32717623 360.34377122 -33.3831823 350.80451914 -33.36127567 341.26406288 C-33.35721569 337.62978078 -33.37267304 333.99573664 -33.39194679 330.36151123 C-33.39621904 328.65544482 -33.39160261 326.94932918 -33.37738609 325.24331665 C-33.28862072 314.24410732 -34.05853897 305.82838993 -41.4375 297.125 C-47.85197093 291.80568264 -53.44517273 289.32095621 -61.73046875 288.44921875 C-62.53250732 288.36373779 -63.3345459 288.27825684 -64.16088867 288.19018555 C-64.76779541 288.12742432 -65.37470215 288.06466309 -66 288 C-64.65760078 283.72886923 -63.30636165 279.46066294 -61.94726562 275.19482422 C-61.48721083 273.74668256 -61.02947737 272.29780113 -60.57421875 270.84814453 C-56.12211883 256.68148449 -56.12211883 256.68148449 -52.92480469 250.76855469 C-51.13768447 247.35094676 -49.84421365 243.73412158 -48.5 240.125 C-48.07654297 239.04605469 -48.07654297 239.04605469 -47.64453125 237.9453125 C-42.08659015 223.05707208 -40.3037441 208.35709056 -40.5 192.5625 C-40.50487427 191.69958344 -40.50974854 190.83666687 -40.51477051 189.94760132 C-40.76161289 152.08747797 -40.76161289 152.08747797 -57.1875 119.25 C-66.90049813 110.14934305 -79.32037742 108.3153397 -92.078125 108.625 C-106.90575891 109.44941173 -121.83117221 115.4155861 -135 122 C-135.76590753 103.73085278 -130.44948266 84.00318155 -124 67 C-123.73461426 66.29987793 -123.46922852 65.59975586 -123.19580078 64.87841797 C-113.13327003 38.99732422 -95.28120853 16.99093012 -69.73681641 5.32519531 C-48.86638057 -3.69203384 -22.0524924 -5.15963827 0 0 Z " fill="#336791" transform="translate(496,258)"/>
<path d="M0 0 C-0.3403125 0.44988281 -0.680625 0.89976562 -1.03125 1.36328125 C-2.08078007 2.75614163 -3.1258626 4.15235778 -4.16796875 5.55078125 C-5.38809515 7.18195236 -6.61990642 8.80444879 -7.86328125 10.41796875 C-31.33288527 41.50696326 -40.77507489 79.98360017 -41.82421875 118.44140625 C-42 122 -42 122 -43 123 C-43.08302055 124.58774572 -43.09636969 126.1791951 -43.08178711 127.76904297 C-43.07199074 129.29862137 -43.07199074 129.29862137 -43.06199646 130.85910034 C-43.05056107 131.9755191 -43.03912567 133.09193787 -43.02734375 134.2421875 C-43.01466971 136.61327964 -43.0023109 138.98437349 -42.99023438 141.35546875 C-42.96568077 145.08713109 -42.93801233 148.81870396 -42.90405273 152.55029297 C-42.59483719 188.78451156 -42.59483719 188.78451156 -46 199 C-47.27763566 222.29228084 -41.67327693 242.74965556 -27 261 C-24.11861009 264.13935957 -21.14357299 267.12396514 -18 270 C-23.70751773 276.68197197 -29.46090194 283.31213483 -35.375 289.8125 C-39.26096463 294.11856891 -42.94915206 298.55395421 -46.6015625 303.05859375 C-49.28953244 306.35507806 -52.01021064 309.62155792 -54.75 312.875 C-55.19778809 313.41036377 -55.64557617 313.94572754 -56.10693359 314.49731445 C-67.70383371 328.23229883 -67.70383371 328.23229883 -75.12890625 329.30859375 C-82.54039627 329.70117669 -87.22878772 327.57323411 -93 323 C-124.08523128 294.58751758 -136.64344476 240.5942453 -147.37060547 201.27197266 C-147.95377597 199.16685835 -148.5654082 197.0731797 -149.19140625 194.98046875 C-155.78580051 172.66916213 -160.29843689 149.62739404 -164.4375 126.75 C-164.56301239 126.05703827 -164.68852478 125.36407654 -164.81784058 124.65011597 C-171.26304296 88.85170302 -170.04507937 48.96677048 -148.95703125 18 C-135.94360655 0.96046586 -116.91999735 -9.2682435 -95.83203125 -12.49609375 C-63.66068666 -16.41807878 -30.44540988 -10.25024545 0 0 Z " fill="#336791" transform="translate(387,271)"/>
<path d="M0 0 C1.53701894 0.48931442 3.0748441 0.97610048 4.61328125 1.4609375 C36.30643506 11.69879032 70.88604284 33.75361637 87 64 C104.08082147 104.58333286 91.31656805 155.84109732 78 196 C77.65098633 197.06331543 77.30197266 198.12663086 76.94238281 199.22216797 C64.28119964 237.56486196 48.08429298 273.98244448 28 309 C35.50501286 308.6599291 42.65844768 307.96792234 50 306.4375 C61.3662305 304.15904443 72.47081551 303.32788008 83 309 C88.94087243 313.1375722 93.68096681 318.04290043 96 325 C97.16441081 336.8946775 95.30657932 344.87128199 88.0546875 354.61328125 C74.81506077 370.3200709 55.61515028 381.53870526 36 387 C34.88753906 387.33773438 33.77507812 387.67546875 32.62890625 388.0234375 C16.96551869 392.23855794 1.11261589 392.40677888 -15 392 C-15.04487549 392.90427734 -15.08975098 393.80855469 -15.13598633 394.74023438 C-19.67315413 483.92411549 -19.67315413 483.92411549 -45 515 C-45.51691406 515.6909375 -46.03382813 516.381875 -46.56640625 517.09375 C-60.22666208 534.34881 -85.99909862 543.98460992 -107.2578125 546.71484375 C-120.53032091 547.72621443 -133.59549629 548.49703955 -146 543 C-146.80179687 542.649375 -147.60359375 542.29875 -148.4296875 541.9375 C-160.41899736 535.96358782 -169.71509472 525.27627708 -175.6875 513.5 C-176.06455078 512.77941406 -176.44160156 512.05882812 -176.83007812 511.31640625 C-193.10539421 479.9019218 -193.31717306 440.65481622 -193 406 C-194.44826172 406.67482422 -194.44826172 406.67482422 -195.92578125 407.36328125 C-217.3683902 416.50689565 -243.97847643 415.11102528 -265.47509766 407.07470703 C-273.17346517 403.84051988 -279.26577498 400.13570805 -285 394 C-288.19222172 395.09732622 -290.83811311 396.51134107 -293.625 398.375 C-305.37742796 405.6958285 -318.21926546 407.1527966 -331.69140625 404.1875 C-359.97427402 394.38549529 -375.81065021 364.19904837 -388.0625 339 C-393.73069669 327.04600649 -398.28419741 314.63120485 -402.82373047 302.21630859 C-403.80944527 299.52103944 -404.80918744 296.83180265 -405.81640625 294.14453125 C-409.28517553 284.76358288 -411.95347361 275.22071706 -414.5078125 265.5546875 C-415.428032 262.08322225 -416.39106255 258.63317532 -417.4296875 255.1953125 C-422.39730024 238.70519973 -425.97211781 221.90474568 -429.55865479 205.0713501 C-429.9637554 203.17010552 -430.37116852 201.26935406 -430.77880859 199.36865234 C-432.29198767 192.26397646 -433.68843438 185.14448941 -435 178 C-435.19609863 176.9677832 -435.39219727 175.93556641 -435.59423828 174.87207031 C-443.03353584 134.9078962 -441.40055308 91.03414276 -421 55 C-420.44570313 54.00613281 -419.89140625 53.01226562 -419.3203125 51.98828125 C-410.11419019 36.54930579 -396.47717753 24.80218627 -381 16 C-380.07703125 15.46375 -379.1540625 14.9275 -378.203125 14.375 C-336.59321998 -8.19308408 -284.47056699 -0.23381852 -241 12 C-237.83073427 13.10713016 -234.68298887 14.23831699 -231.55737305 15.46313477 C-228.32658675 16.14136857 -226.91181761 15.46771427 -224 14 C-223.35119873 13.70367676 -222.70239746 13.40735352 -222.03393555 13.10205078 C-221.407854 12.80282715 -220.78177246 12.50360352 -220.13671875 12.1953125 C-210.93730815 7.88779202 -202.02826521 4.39855277 -192.03759766 2.41015625 C-190.61952067 2.12470581 -189.20770074 1.80707399 -187.80224609 1.46484375 C-179.02496698 -0.47382295 -170.21089251 -0.30184463 -161.26953125 -0.26074219 C-158.5336229 -0.25013041 -155.79838698 -0.26062535 -153.0625 -0.2734375 C-144.19697358 -0.27768423 -135.55546788 0.05840217 -126.75390625 1.15234375 C-120.14770239 1.95677714 -114.79719257 2.09923313 -108.4375 -0.1875 C-106.86669057 -0.67224648 -105.29369137 -1.14994508 -103.71875 -1.62109375 C-102.55472656 -1.9766333 -102.55472656 -1.9766333 -101.3671875 -2.33935547 C-97.43997347 -3.43537869 -93.46024549 -4.10827531 -89.4375 -4.75 C-88.73616943 -4.86496826 -88.03483887 -4.97993652 -87.31225586 -5.09838867 C-59.45220194 -9.46026643 -26.80369118 -9.38886358 0 0 Z M-106.75878906 16.05517578 C-116.58441597 18.55350071 -124.66210547 17.5395591 -134.43530273 15.47143555 C-163.96010251 10.04426864 -194.76273631 13.60307609 -220.73046875 28.80078125 C-224.13588912 30.60020303 -225.83102072 31.35174377 -229.609375 30.21484375 C-230.64578125 29.79332031 -231.6821875 29.37179687 -232.75 28.9375 C-251.47106223 21.81975416 -271.25002609 18.71861292 -291 16 C-292.122854 15.823479 -293.24570801 15.64695801 -294.40258789 15.46508789 C-300.69951554 14.65099579 -307.03487098 14.75532913 -313.375 14.75 C-314.45263107 14.74898788 -314.45263107 14.74898788 -315.55203247 14.74795532 C-326.34225383 14.7640698 -336.50725144 15.27518153 -347 18 C-348.03519775 18.24943359 -348.03519775 18.24943359 -349.09130859 18.50390625 C-372.99285331 24.3112557 -393.98643246 38.15979332 -406.89453125 59.34765625 C-430.99709156 100.33611653 -425.31385685 151.50237538 -416 196 C-415.86039856 196.67053406 -415.72079712 197.34106812 -415.57696533 198.03192139 C-414.1004322 205.08082082 -412.4684038 212.08221721 -410.72070312 219.06835938 C-409.98159648 222.07486094 -409.29012248 225.08915732 -408.609375 228.109375 C-405.20734751 243.06507961 -400.92887505 257.65845861 -396.21191406 272.25 C-395.40040508 274.76103505 -394.59511577 277.27408824 -393.79589844 279.7890625 C-375.78424486 339.37964798 -375.78424486 339.37964798 -335 384 C-333.92685547 384.64582031 -333.92685547 384.64582031 -332.83203125 385.3046875 C-325.63199273 389.10798653 -317.8804262 389.08811613 -310.0390625 387.33984375 C-296.40337787 382.92829872 -287.05878511 371.69645319 -278.359375 360.8671875 C-275.14885326 356.96565942 -271.74487199 353.25975324 -268.328125 349.5390625 C-266.40375593 347.44033785 -264.50186132 345.32857966 -262.625 343.1875 C-262.08488281 342.57261719 -261.54476562 341.95773437 -260.98828125 341.32421875 C-259.31358005 339.36656214 -257.67474506 337.38778671 -256.04296875 335.39453125 C-255.24608643 334.4341394 -255.24608643 334.4341394 -254.43310547 333.4543457 C-253.3663796 332.16794309 -252.30909769 330.87364068 -251.26220703 329.57104492 C-249.76953125 327.78125 -249.76953125 327.78125 -247 325 C-242.67811936 325 -239.38856549 326.11447593 -235.375 327.5 C-229.12945242 329.57260601 -223.63262301 330.71747124 -217 330 C-219.06526027 337.41763636 -223.68799416 342.94208351 -229.9609375 347.390625 C-236.28923754 350.5422685 -243.61038491 351.54507691 -250.4765625 353.0078125 C-264.4811701 355.9423148 -264.4811701 355.9423148 -276 364 C-278.5925264 368.19253445 -278.66057941 372.20034709 -278 377 C-273.68429121 385.97667428 -265.63905455 388.76157682 -256.79296875 391.88671875 C-233.35270723 398.76671312 -211.48180908 395.74895883 -190.0859375 384.74609375 C-186.94753381 382.97031343 -183.98962459 381.0137974 -181 379 C-181.01571045 380.60210327 -181.01571045 380.60210327 -181.03173828 382.23657227 C-183.12833221 436.88808543 -183.12833221 436.88808543 -173 490 C-172.62359375 491.04027344 -172.2471875 492.08054687 -171.859375 493.15234375 C-169.06336185 500.17191198 -165.58478321 506.00877363 -161 512 C-160.360625 512.9075 -159.72125 513.815 -159.0625 514.75 C-151.88102252 522.58433907 -140.54473214 529.34274248 -129.84716797 530.2746582 C-126.18943735 530.30313857 -122.53285745 530.32171839 -118.875 530.3125 C-116.99167969 530.33666992 -116.99167969 530.33666992 -115.0703125 530.36132812 C-106.92910107 530.36555075 -99.77300241 529.40303915 -92 527 C-91.21963379 526.76498779 -90.43926758 526.52997559 -89.63525391 526.2878418 C-70.97285109 520.43095701 -56.14993665 511.07055325 -46.6015625 493.4140625 C-40.28433917 480.35846762 -38.15969911 466.78749424 -36.5 452.5625 C-36.29039175 450.83970143 -36.07959879 449.11704662 -35.86767578 447.39453125 C-35.44118708 443.91999215 -35.01979911 440.44489729 -34.60253906 436.96923828 C-33.7390978 429.80689108 -32.80640864 422.65376092 -31.875 415.5 C-31.55461611 413.01172794 -31.23430158 410.52344695 -30.9140625 408.03515625 C-30.31697101 403.41625422 -29.70726912 398.79929591 -29.0859375 394.18359375 C-28.94430176 393.12398437 -28.80266602 392.064375 -28.65673828 390.97265625 C-28.39546441 389.0229823 -28.13108045 387.07372121 -27.86279297 385.125 C-27.27303536 380.71218636 -26.85335667 376.46528925 -27 372 C-26.00033203 372.21112427 -26.00033203 372.21112427 -24.98046875 372.42651367 C-18.25877476 373.75968882 -11.84656515 374.35339094 -5 374.3125 C-4.00669678 374.30758545 -3.01339355 374.3026709 -1.98999023 374.29760742 C23.34954438 373.90291062 47.83707467 366.67396237 68 351 C68.64324219 350.53207031 69.28648437 350.06414062 69.94921875 349.58203125 C75.41166817 345.35189146 80.33824336 339.54598041 81.359375 332.53125 C81.20683622 329.26256195 80.75771743 326.96499576 78.71484375 324.36328125 C74.32864145 320.44823111 70.41614334 319.85297245 64.75 319.8125 C63.85796875 319.79832031 62.9659375 319.78414062 62.046875 319.76953125 C58.93390101 320.0049998 56.10021535 320.69092324 53.08886719 321.48999023 C38.22580404 325.11889848 17.23186386 327.29198192 3 321 C3.95785357 319.35388741 4.91633259 317.70813876 5.875 316.0625 C6.51824219 314.95777344 7.16148437 313.85304688 7.82421875 312.71484375 C9.29325345 310.19928136 10.77635743 307.69271016 12.26953125 305.19140625 C21.81715215 289.16581168 31.02564267 273.04399947 38.21875 255.81201172 C39.48700039 252.87046348 40.91264276 250.00572473 42.3125 247.125 C52.21173241 226.22693294 59.19955496 204.05653778 66 182 C66.27714844 181.11376953 66.55429687 180.22753906 66.83984375 179.31445312 C74.10708638 155.88250595 78.44754652 130.57955959 78.375 106.0625 C78.37445618 105.36477478 78.37391235 104.66704956 78.37335205 103.94818115 C78.2975087 82.75148217 73.25645686 68.78163549 58.38183594 53.4375 C57.12033964 52.12518724 55.89037334 50.78275069 54.6640625 49.4375 C32.39621649 25.72566397 -2.84330675 11.26877417 -35.07305908 9.91278076 C-59.57486028 9.15100782 -82.96940071 9.72108182 -106.75878906 16.05517578 Z " fill="#040404" transform="translate(628,227)"/>
<path d="M0 0 C1.99661495 1.62462205 3.97707065 3.26939185 5.9375 4.9375 C7.27361328 6.04738281 7.27361328 6.04738281 8.63671875 7.1796875 C19.95540932 16.9210414 29.93174238 28.31771499 31.16088867 43.74047852 C32.14949268 70.82737049 27.9249503 96.85101888 20.9375 122.9375 C20.70305176 123.83339844 20.46860352 124.72929687 20.22705078 125.65234375 C8.01668497 172.04656361 -12.63481587 216.39335798 -38.0625 256.9375 C-38.3925 256.2775 -38.7225 255.6175 -39.0625 254.9375 C-39.7225 254.9375 -40.3825 254.9375 -41.0625 254.9375 C-39.72355073 250.80958726 -38.23213853 246.78036299 -36.625 242.75 C-29.16932358 223.46201115 -28.24538667 203.71575322 -31.5625 183.375 C-34.80902139 162.84330333 -33.74774181 141.99432682 -30.45605469 121.55224609 C-29.75963869 116.9253135 -29.27579852 112.28020374 -28.8125 107.625 C-28.72049316 106.78308105 -28.62848633 105.94116211 -28.53369141 105.07373047 C-27.61981794 95.66931303 -28.9347293 88.14138763 -32.5625 79.4375 C-32.91852295 78.57092773 -33.2745459 77.70435547 -33.64135742 76.81152344 C-39.82132824 62.07871002 -47.63173503 48.80976053 -57.0625 35.9375 C-57.48724609 35.34904297 -57.91199219 34.76058594 -58.34960938 34.15429688 C-75.34353055 10.78436187 -98.28922332 -8.8636838 -125.0625 -20.0625 C-125.0625 -20.7225 -125.0625 -21.3825 -125.0625 -22.0625 C-81.64750374 -29.09948183 -36.42847637 -28.05800262 0 0 Z " fill="#346791" transform="translate(659.0625,276.0625)"/>
<path d="M0 0 C0.83233154 -0.01023193 1.66466309 -0.02046387 2.5222168 -0.03100586 C9.23534082 0.06509753 14.45697075 1.59562253 20.3125 5 C27.00629267 12.0556193 28.75718528 20.9670132 30.26904297 30.30664062 C30.63356031 32.48874445 31.05060276 34.65647663 31.47265625 36.828125 C35.32220382 57.77063224 35.6899931 79.91622197 29.625 100.4375 C29.41069336 101.17967773 29.19638672 101.92185547 28.97558594 102.68652344 C26.26502888 111.87558804 22.77631739 120.54591813 18.74511719 129.22631836 C14.16944866 139.30002772 10.96189292 149.90375523 7.625 160.4375 C-8.59702103 160.76927438 -20.74964492 154.51006442 -32.375 143.4375 C-38.53634925 136.44637151 -43.02019069 129.11470721 -46.375 120.4375 C-46.7875 119.385625 -47.2 118.33375 -47.625 117.25 C-49.33916364 110.82188633 -49.55680799 104.30161725 -49.5625 97.6875 C-49.57474609 96.98496094 -49.58699219 96.28242188 -49.59960938 95.55859375 C-49.61018752 91.41901245 -49.38901632 87.35725012 -48.90332031 83.24755859 C-47.77828597 73.69273931 -47.25157584 64.38385558 -47.4609375 54.7578125 C-47.4814064 53.67890747 -47.50187531 52.60000244 -47.52296448 51.48840332 C-47.61336437 47.04245278 -47.71395423 42.5980372 -47.86865234 38.15380859 C-47.9773986 34.85485543 -48.03563539 31.5581039 -48.0859375 28.2578125 C-48.13350189 27.25783234 -48.18106628 26.25785217 -48.23007202 25.22756958 C-48.28107449 18.46519566 -48.28107449 18.46519566 -45.67074585 15.50448608 C-43.6343263 13.94644356 -41.62688547 12.65931771 -39.375 11.4375 C-38.77302795 11.09489136 -38.17105591 10.75228271 -37.55084229 10.39929199 C-25.65353775 4.00587873 -13.54885658 0.12804223 0 0 Z " fill="#346791" transform="translate(407.375,381.5625)"/>
<path d="M0 0 C1.53333984 0.00773437 1.53333984 0.00773437 3.09765625 0.015625 C10.53195153 0.09398384 10.53195153 0.09398384 14 1.25 C13.66904643 7.73212508 13.18588945 14.14953671 12.265625 20.57421875 C9.53757376 39.68519197 9.09145239 58.46557872 11 77.6875 C12.84054724 96.29093349 14.53303447 116.36760639 8 134.25 C7.34 134.91 6.68 135.57 6 136.25 C5.47535156 135.2496875 4.95070313 134.249375 4.41015625 133.21875 C4.04664063 132.52692627 3.683125 131.83510254 3.30859375 131.12231445 C2.4545843 129.49645045 1.60178009 127.86995298 0.75 126.24291992 C-1.80872213 121.36818824 -4.39489642 116.51018614 -7.02682495 111.67466736 C-44.24525615 43.28637015 -44.24525615 43.28637015 -37.24609375 18.58984375 C-34.19978158 11.43399674 -30.27437213 6.39976319 -23 3.25 C-15.2744132 0.54130719 -8.14278145 -0.16942068 0 0 Z " fill="#356892" transform="translate(602,378.75)"/>
<path d="M0 0 C4.88123806 2.72441194 7.14442758 6.87981087 9 12 C9.62623637 15.91397729 9.29765272 17.46193547 7.375 20.9375 C6.59125 21.948125 5.8075 22.95875 5 24 C4.62230469 24.53367187 4.24460937 25.06734375 3.85546875 25.6171875 C-3.15984635 34.81551606 -14.02941992 40.93095055 -25 44 C-25.69996094 44.22300781 -26.39992188 44.44601562 -27.12109375 44.67578125 C-41.08217168 48.55532464 -58.18439101 46.4078045 -71 40 C-71 39.34 -71 38.68 -71 38 C-65.388566 36.03121195 -59.75694629 34.37579574 -53.99487305 32.90917969 C-39.21164704 29.1089174 -28.72421224 25.36803903 -19 13 C-18.27683594 12.08863281 -17.55367188 11.17726563 -16.80859375 10.23828125 C-15.46695056 8.54578477 -14.1371849 6.84374463 -12.82421875 5.12890625 C-8.86675314 0.51045067 -6.16961945 -0.75767256 0 0 Z " fill="#376A93" transform="translate(439,562)"/>
<path d="M0 0 C1.42300331 0.74171987 2.81762121 1.53922557 4.1875 2.375 C12.81319161 7.5745857 23.43582994 7.36170925 33.25 7.3125 C34.33249023 7.31121094 35.41498047 7.30992187 36.53027344 7.30859375 C44.23069251 7.21694937 51.39878945 6.39255524 58.890625 4.65625 C61.7113945 4.06091171 64.13170726 3.87060334 67 4 C59.59483072 12.06178528 49.05376358 17.01500906 38.8125 20.4375 C38.11366699 20.67194824 37.41483398 20.90639648 36.69482422 21.14794922 C26.39306377 24.36918377 16.12564288 25.32943825 5.375 25.25 C4.32054687 25.25773438 3.26609375 25.26546875 2.1796875 25.2734375 C-14.76851349 25.23148651 -14.76851349 25.23148651 -18 22 C-18.81552121 15.37097762 -18.48114248 10.07246498 -14.484375 4.59375 C-10.36600033 0.17191614 -5.83488855 -0.79117133 0 0 Z " fill="#376A93" transform="translate(621,560)"/>
<path d="M0 0 C1.77734375 1.42578125 1.77734375 1.42578125 3 3 C3.06788901 6.12289457 2.81459236 8.11199961 0.65625 10.46484375 C-4.45684006 14.78841255 -7.64458151 15.35423595 -14.171875 15.27734375 C-18.50776137 14.85213942 -20.54621811 13.6784431 -24 11 C-28 5.97435897 -28 5.97435897 -28 2 C-27.34 2 -26.68 2 -26 2 C-25.731875 1.360625 -25.46375 0.72125 -25.1875 0.0625 C-21.15388074 -6.94325976 -5.93924544 -2.69260568 0 0 Z " fill="#FBFCFC" transform="translate(426,393)"/>
<path d="M0 0 C1.01513672 -0.01836914 1.01513672 -0.01836914 2.05078125 -0.03710938 C5.76357044 -0.04809396 7.32983076 0.07405384 10.5 2.1875 C11 5 11 5 10.5 8.1875 C7.58935134 11.64881192 4.6317821 14.93340213 -0.0234375 15.48828125 C-9.51793111 15.52729972 -9.51793111 15.52729972 -13.5 12.1875 C-15.5 10.1875 -15.5 10.1875 -15.9375 7.8125 C-15.5 5.1875 -15.5 5.1875 -13.1875 2.9375 C-8.81264173 0.08875508 -5.05860826 0.00481772 0 0 Z " fill="#FAFBFB" transform="translate(590.5,386.8125)"/>
<path d="M0 0 C-0.53141602 0.24532471 -1.06283203 0.49064941 -1.61035156 0.7434082 C-12.83601171 5.94879729 -23.84317637 11.38437977 -34.60058594 17.50708008 C-35.77476074 18.17066528 -35.77476074 18.17066528 -36.97265625 18.84765625 C-37.99758179 19.4355896 -37.99758179 19.4355896 -39.04321289 20.03540039 C-41.01869693 21.00921667 -42.84980076 21.55050297 -45 22 C-45 21.34 -45 20.68 -45 20 C-44.2265625 19.62488281 -43.453125 19.24976562 -42.65625 18.86328125 C-41.6146875 18.35152344 -40.573125 17.83976562 -39.5 17.3125 C-38.4790625 16.81363281 -37.458125 16.31476562 -36.40625 15.80078125 C-33.92054912 14.48666645 -31.64698657 13.15236155 -29.30078125 11.62890625 C-24.32360649 8.47152964 -19.04720092 6.05701332 -13.6875 3.625 C-12.69943359 3.16222656 -11.71136719 2.69945312 -10.69335938 2.22265625 C-9.74654297 1.79082031 -8.79972656 1.35898437 -7.82421875 0.9140625 C-6.96916748 0.5217041 -6.11411621 0.1293457 -5.2331543 -0.27490234 C-3 -1 -3 -1 0 0 Z " fill="#FFFFFE" transform="translate(283,39)"/>
<path d="M0 0 C-0.95712891 0.07347656 -0.95712891 0.07347656 -1.93359375 0.1484375 C-2.75988281 0.22320312 -3.58617187 0.29796875 -4.4375 0.375 C-5.67306641 0.47941406 -5.67306641 0.47941406 -6.93359375 0.5859375 C-7.61550781 0.72257813 -8.29742187 0.85921875 -9 1 C-9.33 1.66 -9.66 2.32 -10 3 C-11.77308416 3.20859814 -13.54722806 3.40985482 -15.32421875 3.58203125 C-20.99849615 4.46837823 -26.51104159 6.34251958 -32 8 C-32.66 7.34 -33.32 6.68 -34 6 C-4.53670676 -3.02447117 -4.53670676 -3.02447117 0 0 Z " fill="#FFFEFE" transform="translate(383,9)"/>
<path d="M0 0 C2.475 0.99 2.475 0.99 5 2 C5 2.66 5 3.32 5 4 C5.67417969 4.25523437 6.34835938 4.51046875 7.04296875 4.7734375 C10.55132756 6.22868805 13.92678552 7.90947835 17.3125 9.625 C17.95767578 9.94984375 18.60285156 10.2746875 19.26757812 10.609375 C20.84597541 11.40441956 22.42311694 12.20195634 24 13 C24 13.66 24 14.32 24 15 C20.08406554 14.21681311 16.63593365 12.60820142 13 11 C13 10.34 13 9.68 13 9 C12.484375 8.9175 11.96875 8.835 11.4375 8.75 C7.12477618 7.42300806 3.03585611 5.62134 0.5625 1.75 C0.376875 1.1725 0.19125 0.595 0 0 Z " fill="#FFFFFF" transform="translate(225,867)"/>
<path d="M0 0 C0.66 0 1.32 0 2 0 C1.42680177 3.39050429 0.42888683 4.89433853 -2.125 7.1640625 C-2.74890625 7.72867188 -3.3728125 8.29328125 -4.015625 8.875 C-4.67046875 9.4525 -5.3253125 10.03 -6 10.625 C-7.29390029 11.78135971 -8.58567458 12.94010406 -9.875 14.1015625 C-10.44992188 14.61025879 -11.02484375 15.11895508 -11.6171875 15.64306641 C-13.1215967 16.97221485 -13.1215967 16.97221485 -14 19 C-14.66 19 -15.32 19 -16 19 C-14.63055898 16.05043472 -13.12169591 13.47531189 -11 11 C-10.34 11 -9.68 11 -9 11 C-9 10.34 -9 9.68 -9 9 C-8.34 9 -7.68 9 -7 9 C-7 8.34 -7 7.68 -7 7 C-5.37660195 5.29115995 -3.70680947 3.62553283 -2 2 C-1.34 1.34 -0.68 0.68 0 0 Z " fill="#FFFDFA" transform="translate(134,138)"/>
<path d="M0 0 C0.99 0 1.98 0 3 0 C4.36363208 1.97946592 5.69418644 3.9819245 7 6 C9.10575643 7.83300909 9.10575643 7.83300909 11 9 C10.67 9.66 10.34 10.32 10 11 C5.3323765 8.24185884 2.77679438 5.80599027 0 1 C0 0.67 0 0.34 0 0 Z " fill="#EAE3DE" transform="translate(350,603)"/>
<path d="M0 0 C0.99 0 1.98 0 3 0 C3.67154933 1.28913487 4.33708859 2.58140204 5 3.875 C5.37125 4.59429687 5.7425 5.31359375 6.125 6.0546875 C7 8 7 8 7 10 C3.17398693 8.54875366 1.77670876 6.64225296 0 3 C0 2.01 0 1.02 0 0 Z " fill="#EDE8E7" transform="translate(398,395)"/>
</svg>
